#N canvas 258 277 500 300 10;
#X declare -path abs -path else;
#X obj 0 0 cnv 15 500 300 empty empty empty 20 12 0 14 #b7b7b7 #4d4d4d 0;
#N canvas 502 54 450 300 notes 0;
#X text 8 44 - PAN follows a triangular random distribution.;
#X text 8 4 - Triangular random distribution with an exponential factor for most parameters.;
#X text 8 104 - Deviations from the mean are expressed in percentage or the total range.;
#X text 8 74 - Values ouside the valid ranges are mirrored back.;
#X restore 854 138 pd notes;
#X obj 97 63 cnv 15 80 180 empty empty MEAN 10 10 1 14 #404040 #b8b8b8 0;
#X obj 110 208 nbx 4 20 5 2000 0 0 \$0-grainDur.m \$0-load.grainDur.m duration 0 -14 1 14 #000000 #fcfcfc #fcfcfc 0 256;
#X obj 110 158 nbx 4 20 20 5000 0 0 \$0-iot.m \$0-load.iot.m iot 0 -14 1 14 #000000 #fcfcfc #fcfcfc 0 256;
#X obj 110 107 nbx 4 20 0 10000 0 0 \$0-delread.m \$0-load.delread.m delread 0 -14 1 14 #000000 #fcfcfc #fcfcfc 0 256;
#X obj 180 63 cnv 15 55 180 empty empty DEV 1 10 1 14 #606060 #202020 0;
#X obj 185 207 nbx 3 20 0 100 0 0 \$0-grainDur.d \$0-load.grainDur.d empty 52 8 1 14 #000000 #fcfcfc #fcfcfc 0 256;
#X obj 185 158 nbx 3 20 0 100 0 0 \$0-iot.d \$0-load.iot.d empty 52 8 1 14 #000000 #fcfcfc #fcfcfc 0 256;
#X obj 185 107 nbx 3 20 0 100 0 0 \$0-delread.d \$0-load.delread.d empty 62 8 1 14 #000000 #fcfcfc #000000 0 256;
#X obj 248 63 cnv 15 80 180 empty empty MEAN 10 10 1 14 #404040 #b8b8b8 0;
#X obj 331 63 cnv 15 55 180 empty empty DEV 10 10 1 14 #606060 #202020 0;
#X obj 262 207 nbx 4 20 -12 12 0 0 \$0-pitch.m \$0-load.pitch.m pitch 0 -14 1 14 #000000 #fcfcfc #fcfcfc 0 256;
#X obj 262 107 nbx 4 20 1 99 0 0 \$0-env.m \$0-load.env.m envelope 0 -14 1 14 #000000 #fcfcfc #fcfcfc 0 256;
#X obj 262 157 nbx 4 20 60 112 0 0 \$0-amp.m \$0-load.amp.m dynamics 0 -14 1 14 #000000 #fcfcfc #fcfcfc 0 256;
#X obj 336 208 nbx 3 20 0 100 0 0 \$0-pitch.d \$0-load.pitch.d empty 52 8 1 14 #000000 #fcfcfc #000000 0 256;
#X obj 336 158 nbx 3 20 0 100 0 0 \$0-amp.d \$0-load.amp.d empty 52 8 1 14 #000000 #fcfcfc #fcfcfc 0 256;
#X obj 336 107 nbx 3 20 0 100 0 0 \$0-env.d \$0-load.env.d empty 52 8 1 14 #000000 #fcfcfc #000000 0 256;
#X floatatom 703 55 10 0 0 0 - \$0-set.buffSize \$0-init.buffSize 0;
#X text 583 50 buffer size (ms):;
#X text 558 230 max. amplitude (dB):;
#X text 532 190 max. grain duration (ms):;
#X text 535 170 min. grain duration (ms):;
#X text 548 250 min. transposition (st):;
#X text 544 270 max. transposition (st):;
#X text 541 70 max. number of voices:;
#X floatatom 703 75 10 0 0 0 - \$0-set.maxVoices \$0-init.maxVoices 0;
#X floatatom 703 175 10 0 0 0 - \$0-set.grainDur.min \$0-init.grainDur.min 0;
#X floatatom 703 195 10 0 0 0 - \$0-set.grainDur.max \$0-init.grainDur.max 0;
#X floatatom 703 215 10 0 0 0 - \$0-set.amp.min \$0-init.amp.min 0;
#X floatatom 703 235 10 0 0 0 - \$0-set.amp.max \$0-init.amp.max 0;
#X floatatom 703 255 10 0 0 0 - \$0-set.pitch.min \$0-init.pitch.min 0;
#X floatatom 703 275 10 0 0 0 - \$0-set.pitch.max \$0-init.pitch.max 0;
#X floatatom 703 94 10 0 0 0 - \$0-set.iot.min \$0-init.iot.min 0;
#X floatatom 703 115 10 0 0 0 - \$0-set.iot.max \$0-init.iot.max 0;
#X text 524 89 min. inter-onset time (ms):;
#X text 523 110 max. inter-onset time (ms):;
#X floatatom 703 135 10 0 0 0 - \$0-set.env.min \$0-init.env.min 0;
#X floatatom 703 155 10 0 0 0 - \$0-set.env.max \$0-init.env.max 0;
#X text 547 130 min. envelope (attack):;
#X text 542 150 max. envelope (decay):;
#X obj 703 318 bng 15 250 50 0 \$0-apply empty empty 17 7 0 10 #fcfcfc #000000 #000000;
#X text 589 312 apply changes:;
#N canvas 372 349 435 317 multiple-instances 0;
#X obj 32 129 until;
#X obj 82 179 + 1;
#X msg 98 129 clear;
#X obj 32 219 t f f;
#X obj 32 80 t f b b;
#X obj 59 255 * 25;
#X obj 59 290 + 25;
#X msg 70 129 1;
#X obj 32 180 f 1;
#X obj 15 326 pack f f \$0;
#X obj 99 410 s pd-grains;
#X obj 32 18 r \$0-init.maxVoices;
#X msg 294 138 clear;
#X obj 281 18 r \$0-init.buffSize;
#X obj 281 89 t f b;
#X msg 281 212 obj 25 25 inputBuffer \$2 \$1;
#X obj 281 172 pack 0 \$0;
#X obj 281 253 s pd-input;
#X msg 15 362 obj 25 \$2 inputGrain \$3 \$1;
#X obj 174 18 r \$0-pre.load;
#X connect 0 0 8 0;
#X connect 1 0 8 1;
#X connect 2 0 10 0;
#X connect 3 0 9 0;
#X connect 3 1 5 0;
#X connect 4 0 0 0;
#X connect 4 1 7 0;
#X connect 4 2 2 0;
#X connect 5 0 6 0;
#X connect 6 0 9 1;
#X connect 7 0 8 1;
#X connect 8 0 1 0;
#X connect 8 0 3 0;
#X connect 9 0 18 0;
#X connect 11 0 4 0;
#X connect 12 0 17 0;
#X connect 13 0 14 0;
#X connect 14 0 16 0;
#X connect 14 1 12 0;
#X connect 15 0 17 0;
#X connect 16 0 15 0;
#X connect 18 0 10 0;
#X connect 19 0 12 0;
#X connect 19 0 2 0;
#X restore 793 317 pd multiple-instances;
#N canvas 1001 308 215 974 grains 0;
#X obj 25 50 inputGrain 1037 1;
#X obj 25 75 inputGrain 1037 2;
#X obj 25 100 inputGrain 1037 3;
#X obj 25 125 inputGrain 1037 4;
#X obj 25 150 inputGrain 1037 5;
#X obj 25 175 inputGrain 1037 6;
#X obj 25 200 inputGrain 1037 7;
#X obj 25 225 inputGrain 1037 8;
#X obj 25 250 inputGrain 1037 9;
#X obj 25 275 inputGrain 1037 10;
#X obj 25 300 inputGrain 1037 11;
#X obj 25 325 inputGrain 1037 12;
#X obj 25 350 inputGrain 1037 13;
#X obj 25 375 inputGrain 1037 14;
#X obj 25 400 inputGrain 1037 15;
#X obj 25 425 inputGrain 1037 16;
#X obj 25 450 inputGrain 1037 17;
#X obj 25 475 inputGrain 1037 18;
#X obj 25 500 inputGrain 1037 19;
#X obj 25 525 inputGrain 1037 20;
#X obj 25 550 inputGrain 1037 21;
#X obj 25 575 inputGrain 1037 22;
#X obj 25 600 inputGrain 1037 23;
#X obj 25 625 inputGrain 1037 24;
#X obj 25 650 inputGrain 1037 25;
#X obj 25 675 inputGrain 1037 26;
#X obj 25 700 inputGrain 1037 27;
#X obj 25 725 inputGrain 1037 28;
#X obj 25 750 inputGrain 1037 29;
#X obj 25 775 inputGrain 1037 30;
#X restore 793 289 pd grains;
#N canvas 503 179 303 271 input 0;
#X obj 25 25 inputBuffer 1037 10000;
#X restore 793 168 pd input;
#X obj 793 91 bng 36 250 50 0 empty empty empty 17 7 0 10 #fcfcfc #000000 #000000;
#N canvas 705 271 1037 678 mapping 0;
#X msg 209 142 range \$1 \$2;
#X obj 209 113 pack 0 0;
#X obj 209 80 t b f;
#X obj 19 15 r \$0-init.maxVoices;
#X obj 19 78 s \$0-load.voices;
#X msg 209 432 range \$1 \$2;
#X obj 209 410 pack 0 0;
#X obj 227 386 t b f;
#X obj 209 294 r \$0-init.grainDur.min;
#X obj 219 317 value \$0-grainDur.min;
#X obj 227 341 r \$0-init.grainDur.max;
#X obj 237 364 value \$0-grainDur.max;
#X obj 209 455 s \$0-load.grainDur.m;
#X obj 227 47 value \$0-delread.max;
#X obj 209 171 s \$0-load.delread.m;
#X obj 257 78 value \$0-delread.min;
#X msg 209 667 range \$1 \$2;
#X obj 209 638 pack 0 0;
#X obj 234 602 t b f;
#X obj 209 504 r \$0-init.iot.min;
#X obj 232 532 value \$0-iot.min;
#X obj 234 561 r \$0-init.iot.max;
#X obj 277 602 value \$0-iot.max;
#X obj 209 699 s \$0-load.iot.m;
#X msg 489 432 range \$1 \$2;
#X obj 489 410 pack 0 0;
#X obj 516 380 t b f;
#X msg 489 667 range \$1 \$2;
#X obj 489 638 pack 0 0;
#X obj 511 602 t b f;
#X msg 445 179 range \$1 \$2;
#X obj 445 155 pack 0 0;
#X obj 463 123 t b f;
#X obj 489 280 r \$0-init.amp.min;
#X obj 508 311 value \$0-amp.min;
#X obj 516 335 r \$0-init.amp.max;
#X obj 564 380 value \$0-amp.max;
#X obj 489 455 s \$0-load.amp.m;
#X obj 489 504 r \$0-init.pitch.min;
#X obj 511 532 value \$0-pitch.min;
#X obj 511 561 r \$0-init.pitch.max;
#X obj 559 602 value \$0-pitch.max;
#X obj 489 699 s \$0-load.pitch.m;
#X obj 445 208 s \$0-load.env.m;
#X obj 445 15 r \$0-init.env.min;
#X obj 463 47 value \$0-env.min;
#X obj 463 78 r \$0-init.env.max;
#X obj 511 123 value \$0-env.max;
#X obj 209 15 r \$0-init.buffSize;
#X msg 19 47 range 0 \$1;
#X connect 0 0 14 0;
#X connect 1 0 0 0;
#X connect 2 0 1 0;
#X connect 2 1 1 1;
#X connect 3 0 49 0;
#X connect 5 0 12 0;
#X connect 6 0 5 0;
#X connect 7 0 6 0;
#X connect 7 1 6 1;
#X connect 8 0 6 0;
#X connect 8 0 9 0;
#X connect 10 0 7 0;
#X connect 10 0 11 0;
#X connect 16 0 23 0;
#X connect 17 0 16 0;
#X connect 18 0 17 0;
#X connect 18 1 17 1;
#X connect 19 0 17 0;
#X connect 19 0 20 0;
#X connect 21 0 18 0;
#X connect 21 0 22 0;
#X connect 24 0 37 0;
#X connect 25 0 24 0;
#X connect 26 0 25 0;
#X connect 26 1 25 1;
#X connect 27 0 42 0;
#X connect 28 0 27 0;
#X connect 29 0 28 0;
#X connect 29 1 28 1;
#X connect 30 0 43 0;
#X connect 31 0 30 0;
#X connect 32 0 31 0;
#X connect 32 1 31 1;
#X connect 33 0 25 0;
#X connect 33 0 34 0;
#X connect 35 0 26 0;
#X connect 35 0 36 0;
#X connect 38 0 28 0;
#X connect 38 0 39 0;
#X connect 40 0 29 0;
#X connect 40 0 41 0;
#X connect 44 0 31 0;
#X connect 44 0 45 0;
#X connect 46 0 32 0;
#X connect 46 0 47 0;
#X connect 48 0 2 0;
#X connect 48 0 13 0;
#X connect 49 0 4 0;
#X restore 793 256 pd mapping ranges;
#X obj 352 645 hip~ 5;
#X obj 398 704 hip~ 5;
#X obj 296 1025 dac~, f 26;
#X obj 398 675 catch~ \$0-RightOut;
#X obj 352 618 catch~ \$0-LeftOut;
#X obj 620 848 line~;
#X msg 620 820 \$1 100;
#X obj 609 887 *~;
#X obj 142 896 s~ \$0-input;
#X obj 116 523 adc~ 1;
#X obj 140 660 *~;
#X obj 181 594 line~, f 10;
#X obj 172 624 *~, f 6;
#X obj 66 85 vu 20 150 \$0-in-vu-data empty -1 -8 0 10 #404040 #000000 1 0;
#N canvas 329 161 625 417 vu 1;
#X obj 59 129 env~ 1024;
#X obj 161 111 abs~;
#X obj 161 213 snapshot~;
#X obj 161 256 rmstodb;
#X obj 161 21 inlet~;
#X obj 161 288 - 100;
#X obj 59 287 - 100;
#X obj 59 361 outlet;
#X obj 161 361 outlet;
#X text 344 307 Check the help file of env~ and slop~ for more details., f 31;
#X obj 239 89 expr 1000 / $f1;
#X floatatom 239 117 5 0 0 0 - - - 0;
#X obj 161 146 slop~ 0 0 0 0 1e+09;
#X floatatom 239 57 5 0 0 0 - - - 0;
#X text 359 89 convert to hz;
#X text 282 118 hz;
#X text 284 57 peak decay time in ms;
#X obj 59 171 t f b;
#X text 345 132 The env~ object is dedicated to RMS analysis. Its output is in dB (0-100 range \, pd style) but needs to be converted to dBFS (and we do that by simply subtracting 100)., f 31;
#X text 345 225 The slop~ object is used here for peak detection. We need to convert the output to dB with rmstodb and also subtract by 100 to convert it to dBFS., f 31;
#X msg 239 31 500;
#X obj 238 8 loadbang;
#X connect 0 0 17 0;
#X connect 1 0 12 0;
#X connect 2 0 3 0;
#X connect 3 0 5 0;
#X connect 4 0 0 0;
#X connect 4 0 1 0;
#X connect 5 0 8 0;
#X connect 6 0 7 0;
#X connect 10 0 11 0;
#X connect 11 0 12 3;
#X connect 12 0 2 0;
#X connect 13 0 10 0;
#X connect 17 0 6 0;
#X connect 17 1 2 0;
#X connect 20 0 13 0;
#X connect 21 0 20 0;
#X restore 174 794 pd vu;
#X f 10;
#X text 532 24 INSTRUMENT SETTINGS;
#N canvas 341 145 1162 761 presets 0;
#X listbox -1 301 123 0 0 0 - - - 36;
#X obj -1 354 list prepend \$0;
#X msg -1 388 \; \$1-apply bang \; \$1-load.voices \$14 \; \$1-load.delread.m \$2 \; \$1-load.iot.m \$4 \; \$1-load.grainDur.m \$6 \; \$1-load.env.m \$8 \; \$1-load.amp.m \$10 \; \$1-load.pitch.m \$12 \; \$1-load.delread.d \$3 \; \$1-load.iot.d \$5 \; \$1-load.grainDur.d \$7 \; \$1-load.env.d \$9 \; \$1-load.amp.d \$11 \; \$1-load.pitch.d \$13;
#X msg 38 227 1000 100 1000 10 800 10 100 50 100 10 0 5 2;
#X text 115 353 DELAY - IOT - DUR - ENV - VOL - TRANSPO - N.GRAINS;
#X obj 22 11 inlet;
#X msg 55 189 5000 100 1000 100 500 50 100 50 100 10 0 1 5;
#X msg 72 151 5000 100 1000 100 500 50 100 50 100 10 0 1 5;
#X msg 89 111 5000 100 1000 100 500 50 100 50 100 10 0 1 5;
#X msg 106 72 5000 100 1000 100 500 50 100 50 100 10 0 1 5;
#X msg 22 265 500 10 400 20 150 30 1 10 100 0 0 1 10;
#X obj 22 42 sel 0 1 2 3 4 5;
#X connect 0 0 1 0;
#X connect 1 0 2 0;
#X connect 3 0 0 0 32.................H....n8+++OB....Z++++aC....;
#X connect 5 0 11 0;
#X connect 6 0 0 0 32.................L....j7+++OC....I++++yE....;
#X connect 7 0 0 0 32.................J....f6+++uB....39+++KH....;
#X connect 8 0 0 0 64.................N....P8+++uC....T++++2....Pw++++M....T7+++eC....m9+++2....vo++++pB....;
#X connect 9 0 0 0 64.................J....r7+++uB....K++++u....ft++++K....n6+++OC....V9+++y....fk++++QC....;
#X connect 10 0 0 0;
#X connect 11 0 10 0 32.................lA........fY.........rL....;
#X connect 11 1 3 0;
#X connect 11 2 6 0;
#X connect 11 3 7 0;
#X connect 11 4 8 0;
#X connect 11 5 9 0;
#X restore 793 226 pd presets;
#N canvas 1113 546 540 457 init 0;
#X obj 67 17 loadbang;
#X msg 20 551 \; pd dsp 1;
#X obj 20 17 inlet;
#X obj 20 82 \$0;
#X obj 20 526 del 500;
#X obj 20 217 del 1000;
#X obj 40 254 \$0;
#X obj 220 251 \$0;
#X obj 220 221 del 100;
#X text 150 16 this loadbang must be connected in order to initialise its parameters, f 38;
#X text 106 253 INIT PRESET;
#X msg 20 111 bang \; pd dsp 0 \; \$1-pre.load bang;
#X obj 20 175 t b b;
#X text 262 250 set default parameter ranges;
#X msg 40 282 \; \$1-apply bang \; \$1-load.voices 3 \; \$1-load.delread.m 1000 \; \$1-load.iot.m 100 \; \$1-load.grainDur.m 80 \; \$1-load.env.m 50 \; \$1-load.amp.m 90 \; \$1-load.pitch.m 0 \; \$1-load.delread.d 20 \; \$1-load.iot.d 30 \; \$1-load.grainDur.d 3 \; \$1-load.env.d 50 \; \$1-load.amp.d 20 \; \$1-load.pitch.d 1;
#X msg 220 282 \; \$1-set.buffSize 10000 \; \$1-set.maxVoices 30 \; \$1-set.iot.min 20 \; \$1-set.iot.max 5000 \; \$1-set.grainDur.min 5 \; \$1-set.grainDur.max 2000 \; \$1-set.env.min 1 \; \$1-set.env.max 99 \; \$1-set.amp.min 60 \; \$1-set.amp.max 112 \; \$1-set.pitch.min -12 \; \$1-set.pitch.max 12 \; \$1-set.rand.curve 2 \; \$1-set-gain 0 \; \$1-set-mastervol 1;
#X connect 0 0 3 0;
#X connect 2 0 3 0;
#X connect 3 0 11 0;
#X connect 4 0 1 0;
#X connect 5 0 4 0;
#X connect 5 0 6 0;
#X connect 6 0 14 0;
#X connect 7 0 15 0;
#X connect 8 0 7 0;
#X connect 11 0 12 0;
#X connect 12 0 5 0;
#X connect 12 1 8 0 32.................M....fK...PC....3B...fG....;
#X restore 793 138 pd init;
#X obj 793 197 hradio 20 1 0 6 empty empty empty 0 -8 0 10 #191919 #e1e1e1 #e1e1e1 0;
#X text 561 210 min. amplitude (dB):;
#X floatatom 703 295 10 0 0 0 - \$0-set.rand.curve \$0-init.rand.curve 0;
#X text 566 290 random exp. curve:;
#X obj 397 85 vu 20 150 \$0-out-vu-l empty -1 -8 0 10 #e4e4e4 #373737 1 0;
#X msg 181 563 \$1 100, f 10;
#X obj 181 525 r \$0-gain;
#X obj 174 861 s \$0-in-vu-data;
#X obj 174 827 pack 0 0;
#X obj 33 81 vsl 20 150 0 2 0 0 \$0-gain \$0-set-gain INPUT -3 -17 0 16 #e4e4e4 #4d4d4d #373737 0 1;
#X obj 421 85 vu 20 150 \$0-out-vu-r empty -1 -8 0 10 #e4e4e4 #373737 1 0;
#N canvas 329 161 625 417 vu 0;
#X obj 59 129 env~ 1024;
#X obj 161 111 abs~;
#X obj 161 213 snapshot~;
#X obj 161 256 rmstodb;
#X obj 161 21 inlet~;
#X obj 161 288 - 100;
#X obj 59 287 - 100;
#X obj 59 361 outlet;
#X obj 161 361 outlet;
#X text 344 307 Check the help file of env~ and slop~ for more details., f 31;
#X obj 239 89 expr 1000 / $f1;
#X floatatom 239 117 5 0 0 0 - - - 0;
#X obj 161 146 slop~ 0 0 0 0 1e+09;
#X floatatom 239 57 5 0 0 0 - - - 0;
#X text 359 89 convert to hz;
#X text 282 118 hz;
#X text 284 57 peak decay time in ms;
#X obj 59 171 t f b;
#X text 345 132 The env~ object is dedicated to RMS analysis. Its output is in dB (0-100 range \, pd style) but needs to be converted to dBFS (and we do that by simply subtracting 100)., f 31;
#X text 345 225 The slop~ object is used here for peak detection. We need to convert the output to dB with rmstodb and also subtract by 100 to convert it to dBFS., f 31;
#X msg 239 31 500;
#X obj 238 8 loadbang;
#X connect 0 0 17 0;
#X connect 1 0 12 0;
#X connect 2 0 3 0;
#X connect 3 0 5 0;
#X connect 4 0 0 0;
#X connect 4 0 1 0;
#X connect 5 0 8 0;
#X connect 6 0 7 0;
#X connect 10 0 11 0;
#X connect 11 0 12 3;
#X connect 12 0 2 0;
#X connect 13 0 10 0;
#X connect 17 0 6 0;
#X connect 17 1 2 0;
#X connect 20 0 13 0;
#X connect 21 0 20 0;
#X restore 324 818 pd vu;
#X f 10;
#X obj 324 851 pack 0 0;
#X obj 324 885 s \$0-out-vu-l;
#N canvas 329 161 625 417 vu 0;
#X obj 59 129 env~ 1024;
#X obj 161 111 abs~;
#X obj 161 213 snapshot~;
#X obj 161 256 rmstodb;
#X obj 161 21 inlet~;
#X obj 161 288 - 100;
#X obj 59 287 - 100;
#X obj 59 361 outlet;
#X obj 161 361 outlet;
#X text 344 307 Check the help file of env~ and slop~ for more details., f 31;
#X obj 239 89 expr 1000 / $f1;
#X floatatom 239 117 5 0 0 0 - - - 0;
#X obj 161 146 slop~ 0 0 0 0 1e+09;
#X floatatom 239 57 5 0 0 0 - - - 0;
#X text 359 89 convert to hz;
#X text 282 118 hz;
#X text 284 57 peak decay time in ms;
#X obj 59 171 t f b;
#X text 345 132 The env~ object is dedicated to RMS analysis. Its output is in dB (0-100 range \, pd style) but needs to be converted to dBFS (and we do that by simply subtracting 100)., f 31;
#X text 345 225 The slop~ object is used here for peak detection. We need to convert the output to dB with rmstodb and also subtract by 100 to convert it to dBFS., f 31;
#X msg 239 31 500;
#X obj 238 8 loadbang;
#X connect 0 0 17 0;
#X connect 1 0 12 0;
#X connect 2 0 3 0;
#X connect 3 0 5 0;
#X connect 4 0 0 0;
#X connect 4 0 1 0;
#X connect 5 0 8 0;
#X connect 6 0 7 0;
#X connect 10 0 11 0;
#X connect 11 0 12 3;
#X connect 12 0 2 0;
#X connect 13 0 10 0;
#X connect 17 0 6 0;
#X connect 17 1 2 0;
#X connect 20 0 13 0;
#X connect 21 0 20 0;
#X restore 457 818 pd vu;
#X f 10;
#X obj 457 851 pack 0 0;
#X obj 457 885 s \$0-out-vu-r;
#X obj 103 251 hsl 276 20 -1 1 0 0 \$0-xfade \$0-set-xfade DRY<>WET 104 10 0 16 #dcdcdc #000000 #000000 0 1;
#X obj 296 781 else/xfade~ 2, f 26;
#X obj 793 59 declare -path abs -path else;
#X obj 296 997 *~;
#X obj 426 997 *~;
#X obj 455 85 vsl 20 150 0 2 0 0 \$0-mastervol \$0-set-mastervol OUTPUT -31 -17 0 16 #e4e4e4 #4d4d4d #373737 0 1;
#X obj 537 675 line~, f 10;
#X msg 537 644 \$1 100, f 10;
#X obj 537 606 r \$0-xfade;
#X obj 620 782 r \$0-mastervol;
#X obj 103 33 hsl 281 20 0 30 0 0 \$0-voices \$0-load.voices GRAINS 110 9 0 16 #e4e4e4 #4d4d4d #373737 0 1;
#X obj 142 695 expr~ atan($v1);
#X obj 142 717 *~ 0.63662;
#X obj 779 332 midi.learn;
#A saved ctlin 112 1;
#X floatatom 798 254 5 0 0 0 - - - 12;
#X obj 741 289 bng 25 250 50 0 empty empty empty 17 7 0 10 #e4e4e4 #4d4d4d #373737;
#X floatatom 783 367 5 0 0 0 - - - 12;
#X listbox 793 419 9 0 0 0 - - - 0;
#X connect 46 0 65 0;
#X connect 48 0 84 2;
#X connect 49 0 84 3;
#X connect 51 0 49 0;
#X connect 52 0 48 0;
#X connect 53 0 55 1;
#X connect 53 0 55 0;
#X connect 54 0 53 0;
#X connect 55 0 86 1;
#X connect 55 0 87 1;
#X connect 57 0 58 0;
#X connect 58 0 94 0;
#X connect 59 0 60 1;
#X connect 59 0 60 0;
#X connect 60 0 58 1;
#X connect 62 0 74 0;
#X connect 62 1 74 1;
#X connect 66 0 64 0;
#X connect 71 0 59 0;
#X connect 72 0 71 0;
#X connect 74 0 73 0;
#X connect 77 0 78 0;
#X connect 77 1 78 1;
#X connect 78 0 79 0;
#X connect 80 0 81 0;
#X connect 80 1 81 1;
#X connect 81 0 82 0;
#X connect 84 0 77 0;
#X connect 84 0 86 0;
#X connect 84 1 80 0;
#X connect 84 1 87 0;
#X connect 86 0 50 0;
#X connect 87 0 50 1;
#X connect 89 0 84 4;
#X connect 90 0 89 0;
#X connect 91 0 90 0;
#X connect 92 0 54 0;
#X connect 94 0 95 0;
#X connect 95 0 56 0;
#X connect 95 0 62 0;
#X connect 95 0 84 0;
#X connect 95 0 84 1;
#X connect 96 0 99 0;
#X connect 97 0 96 0;
#X connect 98 0 96 0;
#X coords 0 -1 1 1 351 308 0;
