#N canvas 258 277 500 350 10;
#X declare -path abs -path else;
#X obj 0 0 cnv 15 500 350 empty empty empty 20 12 0 14 #b7b7b7 #4d4d4d 0;
#N canvas 502 54 450 300 notes 0;
#X text 8 44 - PAN follows a triangular random distribution.;
#X text 8 4 - Triangular random distribution with an exponential factor for most parameters.;
#X text 8 104 - Deviations from the mean are expressed in percentage or the total range.;
#X text 8 74 - Values ouside the valid ranges are mirrored back.;
#X restore 920 200 pd notes;
#X obj 93 73 cnv 15 80 200 empty empty MEAN 10 10 1 14 #404040 #b8b8b8 0;
#X obj 106 237 nbx 3 20 5 2000 0 0 \$0-grainDur.m \$0-load.grainDur.m duration 0 -14 1 14 #000000 #fcfcfc #fcfcfc 0 256;
#X obj 106 176 nbx 3 20 20 5000 0 0 \$0-iot.m \$0-load.iot.m iot 0 -14 1 14 #000000 #fcfcfc #fcfcfc 0 256;
#X obj 106 117 nbx 3 20 0 10000 0 0 \$0-delread.m \$0-load.delread.m delread 0 -14 1 14 #000000 #fcfcfc #fcfcfc 0 256;
#X obj 176 73 cnv 15 55 200 empty empty DEV 1 10 1 14 #606060 #202020 0;
#X obj 181 237 nbx 3 20 0 100 0 0 \$0-grainDur.d \$0-load.grainDur.d empty 52 8 1 14 #000000 #fcfcfc #fcfcfc 0 256;
#X obj 181 176 nbx 3 20 0 100 0 0 \$0-iot.d \$0-load.iot.d empty 52 8 1 14 #000000 #fcfcfc #fcfcfc 0 256;
#X obj 181 117 nbx 3 20 0 100 0 0 \$0-delread.d \$0-load.delread.d empty 62 8 1 14 #000000 #fcfcfc #000000 0 256;
#X obj 244 73 cnv 15 80 200 empty empty MEAN 10 10 1 14 #404040 #b8b8b8 0;
#X obj 327 73 cnv 15 55 200 empty empty DEV 10 10 1 14 #606060 #202020 0;
#X obj 258 237 nbx 3 20 -12 12 0 0 \$0-pitch.m \$0-load.pitch.m pitch 0 -14 1 14 #000000 #fcfcfc #fcfcfc 0 256;
#X obj 258 117 nbx 3 20 1 99 0 0 \$0-env.m \$0-load.env.m envelope 0 -14 1 14 #000000 #fcfcfc #fcfcfc 0 256;
#X obj 258 177 nbx 3 20 60 112 0 0 \$0-amp.m \$0-load.amp.m dynamics 0 -14 1 14 #000000 #fcfcfc #fcfcfc 0 256;
#X obj 332 237 nbx 3 20 0 100 0 0 \$0-pitch.d \$0-load.pitch.d empty 52 8 1 14 #000000 #fcfcfc #000000 0 256;
#X obj 332 176 nbx 3 20 0 100 0 0 \$0-amp.d \$0-load.amp.d empty 52 8 1 14 #000000 #fcfcfc #fcfcfc 0 256;
#X obj 332 117 nbx 3 20 0 100 0 0 \$0-env.d \$0-load.env.d empty 52 8 1 14 #000000 #fcfcfc #000000 0 256;
#N canvas 372 349 435 317 multiple-instances 0;
#X obj 32 129 until;
#X obj 82 179 + 1;
#X msg 98 129 clear;
#X obj 32 219 t f f;
#X obj 32 80 t f b b;
#X obj 59 255 * 25;
#X obj 59 290 + 25;
#X msg 70 129 1;
#X obj 32 180 f 1;
#X obj 15 326 pack f f \$0;
#X obj 99 410 s pd-grains;
#X obj 32 18 r \$0-init.maxVoices;
#X msg 294 138 clear;
#X obj 281 18 r \$0-init.buffSize;
#X obj 281 89 t f b;
#X msg 281 212 obj 25 25 inputBuffer \$2 \$1;
#X obj 281 172 pack 0 \$0;
#X obj 281 253 s pd-input;
#X msg 15 362 obj 25 \$2 inputGrain \$3 \$1;
#X obj 174 18 r \$0-pre.load;
#X connect 0 0 8 0;
#X connect 1 0 8 1;
#X connect 2 0 10 0;
#X connect 3 0 9 0;
#X connect 3 1 5 0;
#X connect 4 0 0 0;
#X connect 4 1 7 0;
#X connect 4 2 2 0;
#X connect 5 0 6 0;
#X connect 6 0 9 1;
#X connect 7 0 8 1;
#X connect 8 0 1 0;
#X connect 8 0 3 0;
#X connect 9 0 18 0;
#X connect 11 0 4 0;
#X connect 12 0 17 0;
#X connect 13 0 14 0;
#X connect 14 0 16 0;
#X connect 14 1 12 0;
#X connect 15 0 17 0;
#X connect 16 0 15 0;
#X connect 18 0 10 0;
#X connect 19 0 12 0;
#X connect 19 0 2 0;
#X restore 859 379 pd multiple-instances;
#N canvas 1001 308 215 974 grains 0;
#X obj 25 50 inputGrain 1006 1;
#X obj 25 75 inputGrain 1006 2;
#X obj 25 100 inputGrain 1006 3;
#X obj 25 125 inputGrain 1006 4;
#X obj 25 150 inputGrain 1006 5;
#X obj 25 175 inputGrain 1006 6;
#X obj 25 200 inputGrain 1006 7;
#X obj 25 225 inputGrain 1006 8;
#X obj 25 250 inputGrain 1006 9;
#X obj 25 275 inputGrain 1006 10;
#X obj 25 300 inputGrain 1006 11;
#X obj 25 325 inputGrain 1006 12;
#X obj 25 350 inputGrain 1006 13;
#X obj 25 375 inputGrain 1006 14;
#X obj 25 400 inputGrain 1006 15;
#X obj 25 425 inputGrain 1006 16;
#X obj 25 450 inputGrain 1006 17;
#X obj 25 475 inputGrain 1006 18;
#X obj 25 500 inputGrain 1006 19;
#X obj 25 525 inputGrain 1006 20;
#X obj 25 550 inputGrain 1006 21;
#X obj 25 575 inputGrain 1006 22;
#X obj 25 600 inputGrain 1006 23;
#X obj 25 625 inputGrain 1006 24;
#X obj 25 650 inputGrain 1006 25;
#X obj 25 675 inputGrain 1006 26;
#X obj 25 700 inputGrain 1006 27;
#X obj 25 725 inputGrain 1006 28;
#X obj 25 750 inputGrain 1006 29;
#X obj 25 775 inputGrain 1006 30;
#X restore 859 351 pd grains;
#N canvas 503 179 303 271 input 0;
#X obj 25 25 inputBuffer 1006 10000;
#X restore 859 230 pd input;
#X obj 859 153 bng 36 250 50 0 empty empty empty 17 7 0 10 #fcfcfc #000000 #000000;
#N canvas 705 271 1037 678 mapping 0;
#X msg 209 142 range \$1 \$2;
#X obj 209 113 pack 0 0;
#X obj 209 80 t b f;
#X obj 19 15 r \$0-init.maxVoices;
#X obj 19 78 s \$0-load.voices;
#X msg 189 412 range \$1 \$2;
#X obj 189 390 pack 0 0;
#X obj 207 366 t b f;
#X obj 189 274 r \$0-init.grainDur.min;
#X obj 199 297 value \$0-grainDur.min;
#X obj 207 321 r \$0-init.grainDur.max;
#X obj 217 344 value \$0-grainDur.max;
#X obj 189 435 s \$0-load.grainDur.m;
#X obj 227 47 value \$0-delread.max;
#X obj 209 171 s \$0-load.delread.m;
#X obj 257 78 value \$0-delread.min;
#X msg 189 647 range \$1 \$2;
#X obj 189 618 pack 0 0;
#X obj 214 582 t b f;
#X obj 189 484 r \$0-init.iot.min;
#X obj 212 512 value \$0-iot.min;
#X obj 214 541 r \$0-init.iot.max;
#X obj 257 582 value \$0-iot.max;
#X obj 189 679 s \$0-load.iot.m;
#X msg 469 412 range \$1 \$2;
#X obj 469 390 pack 0 0;
#X obj 496 360 t b f;
#X msg 469 647 range \$1 \$2;
#X obj 469 618 pack 0 0;
#X obj 491 582 t b f;
#X msg 445 179 range \$1 \$2;
#X obj 445 155 pack 0 0;
#X obj 463 123 t b f;
#X obj 469 260 r \$0-init.amp.min;
#X obj 488 291 value \$0-amp.min;
#X obj 496 315 r \$0-init.amp.max;
#X obj 544 360 value \$0-amp.max;
#X obj 469 435 s \$0-load.amp.m;
#X obj 469 484 r \$0-init.pitch.min;
#X obj 491 512 value \$0-pitch.min;
#X obj 491 541 r \$0-init.pitch.max;
#X obj 539 582 value \$0-pitch.max;
#X obj 469 679 s \$0-load.pitch.m;
#X obj 445 208 s \$0-load.env.m;
#X obj 445 15 r \$0-init.env.min;
#X obj 463 47 value \$0-env.min;
#X obj 463 78 r \$0-init.env.max;
#X obj 511 123 value \$0-env.max;
#X obj 209 15 r \$0-init.buffSize;
#X msg 19 47 range 0 \$1;
#X connect 0 0 14 0;
#X connect 1 0 0 0;
#X connect 2 0 1 0;
#X connect 2 1 1 1;
#X connect 3 0 49 0;
#X connect 5 0 12 0;
#X connect 6 0 5 0;
#X connect 7 0 6 0;
#X connect 7 1 6 1;
#X connect 8 0 6 0;
#X connect 8 0 9 0;
#X connect 10 0 7 0;
#X connect 10 0 11 0;
#X connect 16 0 23 0;
#X connect 17 0 16 0;
#X connect 18 0 17 0;
#X connect 18 1 17 1;
#X connect 19 0 17 0;
#X connect 19 0 20 0;
#X connect 21 0 18 0;
#X connect 21 0 22 0;
#X connect 24 0 37 0;
#X connect 25 0 24 0;
#X connect 26 0 25 0;
#X connect 26 1 25 1;
#X connect 27 0 42 0;
#X connect 28 0 27 0;
#X connect 29 0 28 0;
#X connect 29 1 28 1;
#X connect 30 0 43 0;
#X connect 31 0 30 0;
#X connect 32 0 31 0;
#X connect 32 1 31 1;
#X connect 33 0 25 0;
#X connect 33 0 34 0;
#X connect 35 0 26 0;
#X connect 35 0 36 0;
#X connect 38 0 28 0;
#X connect 38 0 39 0;
#X connect 40 0 29 0;
#X connect 40 0 41 0;
#X connect 44 0 31 0;
#X connect 44 0 45 0;
#X connect 46 0 32 0;
#X connect 46 0 47 0;
#X connect 48 0 2 0;
#X connect 48 0 13 0;
#X connect 49 0 4 0;
#X restore 859 318 pd mapping ranges;
#X obj 240 583 hip~ 5;
#X obj 273 643 hip~ 5;
#X obj 174 984 dac~, f 26;
#X obj 273 614 catch~ \$0-RightOut;
#X obj 240 556 catch~ \$0-LeftOut;
#X obj 498 611 line~;
#X msg 498 583 \$1 100;
#X obj 487 650 *~;
#X obj 20 875 s~ \$0-input;
#X obj 20 409 adc~ 1;
#X obj 20 566 *~;
#X obj 41 508 line~, f 6;
#X obj 41 539 *~, f 6;
#X obj 67 136 vu 20 120 \$0-in-vu-data empty -1 -8 0 10 #404040 #000000 0 0;
#N canvas 329 161 625 417 vu 0;
#X obj 59 129 env~ 1024;
#X obj 161 111 abs~;
#X obj 161 213 snapshot~;
#X obj 161 256 rmstodb;
#X obj 161 21 inlet~;
#X obj 161 288 - 100;
#X obj 59 287 - 100;
#X obj 59 361 outlet;
#X obj 161 361 outlet;
#X text 344 307 Check the help file of env~ and slop~ for more details., f 31;
#X obj 239 89 expr 1000 / $f1;
#X floatatom 239 117 5 0 0 0 - - - 0;
#X obj 161 146 slop~ 0 0 0 0 1e+09;
#X floatatom 239 57 5 0 0 0 - - - 0;
#X text 359 89 convert to hz;
#X text 282 118 hz;
#X text 284 57 peak decay time in ms;
#X obj 59 171 t f b;
#X text 345 132 The env~ object is dedicated to RMS analysis. Its output is in dB (0-100 range \, pd style) but needs to be converted to dBFS (and we do that by simply subtracting 100)., f 31;
#X text 345 225 The slop~ object is used here for peak detection. We need to convert the output to dB with rmstodb and also subtract by 100 to convert it to dBFS., f 31;
#X msg 239 31 500;
#X obj 238 8 loadbang;
#X connect 0 0 17 0;
#X connect 1 0 12 0;
#X connect 2 0 3 0;
#X connect 3 0 5 0;
#X connect 4 0 0 0;
#X connect 4 0 1 0;
#X connect 5 0 8 0;
#X connect 6 0 7 0;
#X connect 10 0 11 0;
#X connect 11 0 12 3;
#X connect 12 0 2 0;
#X connect 13 0 10 0;
#X connect 17 0 6 0;
#X connect 17 1 2 0;
#X connect 20 0 13 0;
#X connect 21 0 20 0;
#X restore 52 773 pd vu;
#X f 10;
#N canvas 341 145 1162 761 presets 0;
#X listbox -1 301 123 0 0 0 - - - 36;
#X obj -1 354 list prepend \$0;
#X msg -1 388 \; \$1-apply bang \; \$1-load.voices \$14 \; \$1-load.delread.m \$2 \; \$1-load.iot.m \$4 \; \$1-load.grainDur.m \$6 \; \$1-load.env.m \$8 \; \$1-load.amp.m \$10 \; \$1-load.pitch.m \$12 \; \$1-load.delread.d \$3 \; \$1-load.iot.d \$5 \; \$1-load.grainDur.d \$7 \; \$1-load.env.d \$9 \; \$1-load.amp.d \$11 \; \$1-load.pitch.d \$13;
#X msg 38 227 1000 100 1000 10 800 10 100 50 100 10 0 5 2;
#X text 115 353 DELAY - IOT - DUR - ENV - VOL - TRANSPO - N.GRAINS;
#X obj 22 11 inlet;
#X msg 55 189 5000 100 1000 100 500 50 100 50 100 10 0 1 5;
#X msg 72 151 5000 100 1000 100 500 50 100 50 100 10 0 1 5;
#X msg 89 111 5000 100 1000 100 500 50 100 50 100 10 0 1 5;
#X msg 106 72 5000 100 1000 100 500 50 100 50 100 10 0 1 5;
#X msg 22 265 500 10 400 20 150 30 1 10 100 0 0 1 10;
#X obj 22 42 sel 0 1 2 3 4 5;
#X connect 0 0 1 0;
#X connect 1 0 2 0;
#X connect 3 0 0 0 32.................H....n8+++OB....Z++++aC....;
#X connect 5 0 11 0;
#X connect 6 0 0 0 32.................L....j7+++OC....I++++yE....;
#X connect 7 0 0 0 32.................J....f6+++uB....39+++KH....;
#X connect 8 0 0 0 64.................N....P8+++uC....T++++2....Pw++++M....T7+++eC....m9+++2....vo++++pB....;
#X connect 9 0 0 0 64.................J....r7+++uB....K++++u....ft++++K....n6+++OC....V9+++y....fk++++QC....;
#X connect 10 0 0 0;
#X connect 11 0 10 0 32.................lA........fY.........rL....;
#X connect 11 1 3 0;
#X connect 11 2 6 0;
#X connect 11 3 7 0;
#X connect 11 4 8 0;
#X connect 11 5 9 0;
#X restore 859 288 pd presets;
#N canvas 1113 546 540 457 init 0;
#X obj 67 17 loadbang;
#X msg 20 611 \; pd dsp 1;
#X obj 20 17 inlet;
#X obj 20 82 \$0;
#X obj 20 586 del 500;
#X obj 20 217 del 1000;
#X obj 40 254 \$0;
#X text 150 16 this loadbang must be connected in order to initialise its parameters, f 38;
#X text 106 253 INIT PRESET;
#X msg 20 111 bang \; pd dsp 0 \; \$1-pre.load bang;
#X obj 20 175 t b b;
#X msg 40 282 \; \$1-apply bang \; \$1-load.voices 3 \; \$1-load.delread.m 1000 \; \$1-load.iot.m 100 \; \$1-load.grainDur.m 80 \; \$1-load.env.m 50 \; \$1-load.amp.m 90 \; \$1-load.pitch.m 0 \; \$1-load.delread.d 20 \; \$1-load.iot.d 30 \; \$1-load.grainDur.d 3 \; \$1-load.env.d 50 \; \$1-load.amp.d 20 \; \$1-load.pitch.d 1 \; \$1-set-gain 0 \; \$1-set-mastervol 1 \; \$1-set-xfade 0.9;
#X obj 226 258 \$0;
#X obj 226 228 del 100;
#X text 268 257 set default parameter ranges;
#X msg 226 289 \; \$1-init.buffSize 10000 \; \$1-init.maxVoices 30 \; \$1-init.iot.min 20 \; \$1-init.iot.max 5000 \; \$1-init.grainDur.min 5 \; \$1-init.grainDur.max 2000 \; \$1-init.env.min 1 \; \$1-init.env.max 99 \; \$1-init.amp.min 60 \; \$1-init.amp.max 112 \; \$1-init.pitch.min -12 \; \$1-init.pitch.max 12 \; \$1-init.rand.curve 2;
#X connect 0 0 3 0;
#X connect 2 0 3 0;
#X connect 3 0 9 0;
#X connect 4 0 1 0;
#X connect 5 0 4 0;
#X connect 5 0 6 0;
#X connect 6 0 11 0;
#X connect 9 0 10 0;
#X connect 10 0 5 0;
#X connect 10 1 13 0;
#X connect 12 0 15 0;
#X connect 13 0 12 0;
#X restore 859 200 pd init;
#X obj 859 259 hradio 20 1 0 6 empty empty empty 0 -8 0 10 #191919 #e1e1e1 #e1e1e1 0;
#X obj 405 137 vu 20 120 \$0-out-vu-l empty -1 -8 0 10 #e4e4e4 #373737 0 0;
#X msg 41 477 \$1 100, f 10;
#X obj 41 447 r \$0-gain;
#X obj 52 840 s \$0-in-vu-data;
#X obj 52 806 pack 0 0;
#X obj 39 129 vsl 20 118 0 2 0 0 \$0-gain \$0-set-gain INPUT -3 -17 0 16 #e4e4e4 #4d4d4d #373737 0 1;
#X obj 428 137 vu 20 120 \$0-out-vu-r empty -1 -8 0 10 #e4e4e4 #373737 0 0;
#X obj 99 290 hsl 281 20 -1 1 0 0 \$0-xfade \$0-set-xfade DRY<>WET 104 10 0 16 #dcdcdc #000000 #000000 0 1;
#X obj 174 680 else/xfade~ 2, f 26;
#X obj 859 121 declare -path abs -path else;
#X obj 174 756 *~;
#X obj 310 756 *~;
#X obj 450 128 vsl 20 120 0 2 0 0 \$0-mastervol \$0-set-mastervol OUTPUT -45 -17 0 16 #e4e4e4 #4d4d4d #373737 0 1;
#X obj 415 614 line~, f 6;
#X msg 415 583 \$1 100, f 8;
#X obj 415 557 r \$0-xfade;
#X obj 498 557 r \$0-mastervol;
#X obj 99 37 hsl 281 20 0 30 0 0 \$0-voices \$0-load.voices GRAINS 110 10 0 16 #e4e4e4 #4d4d4d #373737 0 1;
#X obj 20 592 expr~ atan($v1);
#X obj 20 616 *~ 0.63662;
#X obj 459 253 bng 10 250 50 0 \$0-ml-mastervol nnnnn empty 17 7 0 10 #e4e4e4 #4d4d4d #373737;
#X obj 628 443 r \$0-ml-delread-mean;
#X obj 628 469 midi.learn;
#A saved ctlin 9 17;
#X obj 628 589 s \$0-load.delread.m;
#X obj 628 560 scale 0 127 0 10000;
#X obj 853 469 midi.learn;
#A saved ctlin 10 17;
#X obj 853 443 r \$0-ml-delread-dev;
#X obj 853 560 scale 0 127 0 100;
#X obj 853 589 s \$0-load.delread.d;
#X obj 40 252 bng 10 250 50 0 \$0-ml-gain nnnnn empty 17 7 0 10 #e4e4e4 #4d4d4d #373737;
#X obj 107 260 bng 8 250 50 0 \$0-ml-duration-mean nnnnn empty 17 7 0 10 #e4e4e4 #4d4d4d #373737;
#X obj 181 260 bng 8 250 50 0 \$0-ml-duration-dev nnnnn empty 17 7 0 10 #e4e4e4 #4d4d4d #373737;
#X obj 259 260 bng 8 250 50 0 \$0-ml-pitch-mean nnnnn empty 17 7 0 10 #e4e4e4 #4d4d4d #373737;
#X obj 333 260 bng 8 250 50 0 \$0-ml-pitch-dev nnnnn empty 17 7 0 10 #e4e4e4 #4d4d4d #373737;
#X obj 106 199 bng 8 250 50 0 \$0-ml-iot-mean nnnnn empty 17 7 0 10 #e4e4e4 #4d4d4d #373737;
#X obj 181 199 bng 8 250 50 0 \$0-ml-iot-dev nnnnn empty 17 7 0 10 #e4e4e4 #4d4d4d #373737;
#X obj 258 199 bng 8 250 50 0 \$0-ml-dynamics-mean nnnnn empty 17 7 0 10 #e4e4e4 #4d4d4d #373737;
#X obj 332 199 bng 8 250 50 0 \$0-ml-dynamics-dev nnnnn empty 17 7 0 10 #e4e4e4 #4d4d4d #373737;
#X obj 106 140 bng 8 250 50 0 \$0-ml-delread-mean nnnnn empty 17 7 0 10 #e4e4e4 #4d4d4d #373737;
#X obj 181 140 bng 8 250 50 0 \$0-ml-delread-dev nnnnn empty 17 7 0 10 #e4e4e4 #4d4d4d #373737;
#X obj 258 140 bng 8 250 50 0 \$0-ml-env-mean nnnnn empty 17 7 0 10 #e4e4e4 #4d4d4d #373737;
#X obj 332 140 bng 8 250 50 0 \$0-ml-env-dev nnnnn empty 17 7 0 10 #e4e4e4 #4d4d4d #373737;
#X obj 96 276 bng 10 250 50 0 \$0-ml-xfade nnnnn empty 17 7 0 10 #e4e4e4 #4d4d4d #373737;
#X obj 96 60 bng 10 250 50 0 \$0-ml-grains nnnnn empty 17 7 0 10 #e4e4e4 #4d4d4d #373737;
#X obj 1063 147 midi.learn;
#A saved ctlin 1 17;
#X obj 1248 147 midi.learn;
#A saved ctlin 74 17;
#X obj 1063 121 r \$0-ml-grains;
#X obj 1248 121 r \$0-ml-xfade;
#X obj 1063 218 scale 0 127 0 30;
#X obj 1248 218 scale 0 127 -1 1;
#X obj 1069 320 midi.learn;
#A saved notein 17;
#X obj 1254 320 midi.learn;
#A saved ctlin 16 17;
#X obj 1069 294 r \$0-ml-gain;
#X obj 1254 294 r \$0-ml-mastervol;
#X obj 1069 351 scale 0 127 0 2;
#X obj 1254 351 scale 0 127 0 2;
#X obj 1063 247 s \$0-load.voices;
#X obj 1248 247 s \$0-set-xfade;
#X obj 1254 380 s \$0-set-mastervol;
#X obj 1069 380 s \$0-set-gain;
#X obj 631 651 midi.learn;
#A saved ctlin 9 17;
#X obj 856 651 midi.learn;
#A saved ctlin 2 17;
#X obj 856 742 scale 0 127 0 100;
#X obj 1058 469 midi.learn;
#A saved ctlin 3 17;
#X obj 1263 469 midi.learn;
#A saved ctlin 6 17;
#X obj 1263 560 scale 0 127 0 100;
#X obj 1061 651 midi.learn;
#A saved ctlin 19 17;
#X obj 1266 651 midi.learn;
#A saved ctlin 5 17;
#X obj 1266 742 scale 0 127 0 100;
#X obj 633 834 midi.learn;
#A saved ctlin 72 17;
#X obj 858 834 midi.learn;
#A saved ctlin 3 17;
#X obj 858 925 scale 0 127 0 100;
#X obj 1063 834 midi.learn;
#A saved ctlin 18 17;
#X obj 1268 834 midi.learn;
#A saved ctlin 16 17;
#X obj 1268 925 scale 0 127 0 100;
#X obj 1058 443 r \$0-ml-env-mean;
#X obj 1263 443 r \$0-ml-env-dev;
#X obj 631 625 r \$0-ml-iot-mean;
#X obj 856 625 r \$0-ml-iot-dev;
#X obj 633 808 r \$0-ml-duration-mean;
#X obj 858 808 r \$0-ml-duration-dev;
#X obj 1063 808 r \$0-ml-pitch-mean;
#X obj 1268 808 r \$0-ml-pitch-dev;
#X obj 1266 625 r \$0-ml-dynamics-dev;
#X obj 1061 625 r \$0-ml-dynamics-mean;
#X obj 631 771 s \$0-load.iot.m;
#X obj 856 771 s \$0-load.iot.d;
#X obj 633 954 s \$0-load.grainDur.m;
#X obj 858 954 s \$0-load.grainDur.d;
#X obj 1058 589 s \$0-load.env.m;
#X obj 1263 589 s \$0-load.env.d;
#X obj 1061 771 s \$0-load.amp.m;
#X obj 1266 771 s \$0-load.amp.d;
#X obj 1063 954 s \$0-load.pitch.m;
#X obj 1268 954 s \$0-load.pitch.d;
#X obj 631 742 scale 0 127 20 5000;
#X obj 633 925 scale 0 127 5 2000;
#X obj 1058 560 scale 0 127 1 99;
#X obj 1061 742 scale 0 127 60 112;
#X obj 1063 925 scale 0 127 -12 12;
#X obj 647 501 r \$0-init.buffSize;
#X obj 1086 173 r \$0-init.maxVoices;
#X obj 650 677 r \$0-init.iot.min;
#X obj 700 703 r \$0-init.iot.max;
#X obj 654 861 r \$0-init.grainDur.min;
#X obj 704 887 r \$0-init.grainDur.max;
#X obj 1140 887 r \$0-init.pitch.max;
#X obj 1090 861 r \$0-init.pitch.min;
#X obj 1086 677 r \$0-init.amp.min;
#X obj 1136 703 r \$0-init.amp.max;
#X obj 1077 501 r \$0-init.env.min;
#X obj 1127 527 r \$0-init.env.max;
#X obj 310 785 expr~ atan($v1);
#X obj 310 817 *~ 0.63662;
#N canvas 329 161 625 417 vu 0;
#X obj 59 129 env~ 1024;
#X obj 161 111 abs~;
#X obj 161 213 snapshot~;
#X obj 161 256 rmstodb;
#X obj 161 21 inlet~;
#X obj 161 288 - 100;
#X obj 59 287 - 100;
#X obj 59 361 outlet;
#X obj 161 361 outlet;
#X text 344 307 Check the help file of env~ and slop~ for more details., f 31;
#X obj 239 89 expr 1000 / $f1;
#X floatatom 239 117 5 0 0 0 - - - 0;
#X obj 161 146 slop~ 0 0 0 0 1e+09;
#X floatatom 239 57 5 0 0 0 - - - 0;
#X text 359 89 convert to hz;
#X text 282 118 hz;
#X text 284 57 peak decay time in ms;
#X obj 59 171 t f b;
#X text 345 132 The env~ object is dedicated to RMS analysis. Its output is in dB (0-100 range \, pd style) but needs to be converted to dBFS (and we do that by simply subtracting 100)., f 31;
#X text 345 225 The slop~ object is used here for peak detection. We need to convert the output to dB with rmstodb and also subtract by 100 to convert it to dBFS., f 31;
#X msg 239 31 500;
#X obj 238 8 loadbang;
#X connect 0 0 17 0;
#X connect 1 0 12 0;
#X connect 2 0 3 0;
#X connect 3 0 5 0;
#X connect 4 0 0 0;
#X connect 4 0 1 0;
#X connect 5 0 8 0;
#X connect 6 0 7 0;
#X connect 10 0 11 0;
#X connect 11 0 12 3;
#X connect 12 0 2 0;
#X connect 13 0 10 0;
#X connect 17 0 6 0;
#X connect 17 1 2 0;
#X connect 20 0 13 0;
#X connect 21 0 20 0;
#X restore 199 887 pd vu;
#X f 10;
#X obj 199 920 pack 0 0;
#X obj 199 954 s \$0-out-vu-l;
#N canvas 329 161 625 417 vu 0;
#X obj 59 129 env~ 1024;
#X obj 161 111 abs~;
#X obj 161 213 snapshot~;
#X obj 161 256 rmstodb;
#X obj 161 21 inlet~;
#X obj 161 288 - 100;
#X obj 59 287 - 100;
#X obj 59 361 outlet;
#X obj 161 361 outlet;
#X text 344 307 Check the help file of env~ and slop~ for more details., f 31;
#X obj 239 89 expr 1000 / $f1;
#X floatatom 239 117 5 0 0 0 - - - 0;
#X obj 161 146 slop~ 0 0 0 0 1e+09;
#X floatatom 239 57 5 0 0 0 - - - 0;
#X text 359 89 convert to hz;
#X text 282 118 hz;
#X text 284 57 peak decay time in ms;
#X obj 59 171 t f b;
#X text 345 132 The env~ object is dedicated to RMS analysis. Its output is in dB (0-100 range \, pd style) but needs to be converted to dBFS (and we do that by simply subtracting 100)., f 31;
#X text 345 225 The slop~ object is used here for peak detection. We need to convert the output to dB with rmstodb and also subtract by 100 to convert it to dBFS., f 31;
#X msg 239 31 500;
#X obj 238 8 loadbang;
#X connect 0 0 17 0;
#X connect 1 0 12 0;
#X connect 2 0 3 0;
#X connect 3 0 5 0;
#X connect 4 0 0 0;
#X connect 4 0 1 0;
#X connect 5 0 8 0;
#X connect 6 0 7 0;
#X connect 10 0 11 0;
#X connect 11 0 12 3;
#X connect 12 0 2 0;
#X connect 13 0 10 0;
#X connect 17 0 6 0;
#X connect 17 1 2 0;
#X connect 20 0 13 0;
#X connect 21 0 20 0;
#X restore 350 888 pd vu;
#X f 10;
#X obj 350 921 pack 0 0;
#X obj 350 955 s \$0-out-vu-r;
#X obj 174 785 expr~ atan($v1);
#X obj 174 817 *~ 0.63662;
#X obj 350 855 *~ 6;
#X obj 199 855 *~ 6;
#X obj 52 732 *~ 6;
#X msg 604 200 scan;
#X msg 655 200 store \$1;
#X msg 721 200 recall \$1;
#X obj 721 106 vradio 20 1 0 4 empty empty empty 0 -8 0 10 #e4e4e4 #4d4d4d #373737 0;
#X obj 655 106 vradio 20 1 0 4 empty empty empty 0 -8 0 10 #e4e4e4 #4d4d4d #373737 0;
#X obj 604 331 guishot \$0;
#A saved 80 2451.18 4881.89 100 30 81.8898 -12 99 90 29.9213 20 50 0 0.942308 1 0.598425 12.9921 0 0 0 0 0 0 0 0 0 0 0 0 0 0 0 0 0 0 0 0 0 0 0 0 0 0 0 0 0 0 0 0 0;
#A saved 80 2451.18 4881.89 100 30 81.8898 -12 99 90 29.9213 20 50 0 0.942308 1 0.598425 12.9921 0 0 0 0 0 0 0 0 0 0 0 0 0 0 0 0 0 0 0 0 0 0 0 0 0 0 0 0 0 0 0 0 0;
#A saved 80 2451.18 4881.89 100 30 81.8898 12 99 90 29.9213 50.3937 9 0 0.279843 0.783782 1.60103 21.5709 0 0 0 0 0 0 0 0 0 0 0 0 0 0 0 0 0 0 0 0 0 0 0 0 0 0 0 0 0 0 0 0 0;
#A saved 80 2451.18 4881.89 100 30 81.8898 12 99 90 29.9213 50.3937 9 0 1.66757 0.783782 1.60103 7.53494 0 0 0 0 0 0 0 0 0 0 0 0 0 0 0 0 0 0 0 0 0 0 0 0 0 0 0 0 0 0 0 0 0;
#X text 237 409 todo: substitute \$0 por \$1 por si acaso!!;
#X connect 21 0 39 0;
#X connect 23 0 49 2;
#X connect 24 0 49 3;
#X connect 26 0 24 0;
#X connect 27 0 23 0;
#X connect 28 0 30 1;
#X connect 28 0 30 0;
#X connect 29 0 28 0;
#X connect 30 0 51 1;
#X connect 30 0 52 1;
#X connect 32 0 33 0;
#X connect 33 0 59 0;
#X connect 34 0 35 1;
#X connect 34 0 35 0;
#X connect 35 0 33 1;
#X connect 37 0 45 0;
#X connect 37 1 45 1;
#X connect 40 0 38 0;
#X connect 42 0 34 0;
#X connect 43 0 42 0;
#X connect 45 0 44 0;
#X connect 49 0 51 0;
#X connect 49 1 52 0;
#X connect 51 0 161 0;
#X connect 52 0 153 0;
#X connect 54 0 49 4;
#X connect 55 0 54 0;
#X connect 56 0 55 0;
#X connect 57 0 29 0;
#X connect 59 0 60 0;
#X connect 60 0 31 0;
#X connect 60 0 49 0;
#X connect 60 0 49 1;
#X connect 60 0 165 0;
#X connect 62 0 63 0;
#X connect 63 0 65 0;
#X connect 65 0 64 0;
#X connect 66 0 68 0;
#X connect 67 0 66 0;
#X connect 68 0 69 0;
#X connect 85 0 89 0;
#X connect 86 0 90 0;
#X connect 87 0 85 0;
#X connect 88 0 86 0;
#X connect 89 0 97 0;
#X connect 90 0 98 0;
#X connect 91 0 95 0;
#X connect 92 0 96 0;
#X connect 93 0 91 0;
#X connect 94 0 92 0;
#X connect 95 0 100 0;
#X connect 96 0 99 0;
#X connect 101 0 136 0;
#X connect 102 0 103 0;
#X connect 103 0 127 0;
#X connect 104 0 138 0;
#X connect 105 0 106 0;
#X connect 106 0 131 0;
#X connect 107 0 139 0;
#X connect 108 0 109 0;
#X connect 109 0 133 0;
#X connect 110 0 137 0;
#X connect 111 0 112 0;
#X connect 112 0 129 0;
#X connect 113 0 140 0;
#X connect 114 0 115 0;
#X connect 115 0 135 0;
#X connect 116 0 104 0;
#X connect 117 0 105 0;
#X connect 118 0 101 0;
#X connect 119 0 102 0;
#X connect 120 0 110 0;
#X connect 121 0 111 0;
#X connect 122 0 113 0;
#X connect 123 0 114 0;
#X connect 124 0 108 0;
#X connect 125 0 107 0;
#X connect 136 0 126 0;
#X connect 137 0 128 0;
#X connect 138 0 130 0;
#X connect 139 0 132 0;
#X connect 140 0 134 0;
#X connect 141 0 65 4;
#X connect 142 0 89 4;
#X connect 143 0 136 3;
#X connect 144 0 136 4;
#X connect 145 0 137 3;
#X connect 146 0 137 4;
#X connect 147 0 140 4;
#X connect 148 0 140 3;
#X connect 149 0 139 3;
#X connect 150 0 139 4;
#X connect 151 0 138 3;
#X connect 152 0 138 4;
#X connect 153 0 154 0;
#X connect 154 0 25 1;
#X connect 154 0 163 0;
#X connect 155 0 156 0;
#X connect 155 1 156 1;
#X connect 156 0 157 0;
#X connect 158 0 159 0;
#X connect 158 1 159 1;
#X connect 159 0 160 0;
#X connect 161 0 162 0;
#X connect 162 0 25 0;
#X connect 162 0 164 0;
#X connect 163 0 158 0;
#X connect 164 0 155 0;
#X connect 165 0 37 0;
#X connect 166 0 171 0;
#X connect 167 0 171 0;
#X connect 168 0 171 0;
#X connect 169 0 168 0;
#X connect 170 0 167 0;
#X coords 0 -1 1 1 351 308 0;
