#N canvas 20 478 700 300 10;
#X declare -path abs;
#X obj 0 0 cnv 15 700 300 empty empty empty 20 12 0 14 #e1e1e1 #373737 0;
#X obj 216 95 cnv 15 176 86 empty empty FEEDBACK 2 12 0 24 #b7b7b7 #373737 0;
#X obj 404 95 cnv 15 176 86 empty empty HARMONICS\ (n) 2 12 0 24 #b7b7b7 #373737 0;
#X obj 20 195 cnv 15 176 86 empty empty Q 2 12 0 24 #b7b7b7 #373737 0;
#X obj 215 195 cnv 15 176 86 empty empty SILENCE\ (ms) 2 12 0 24 #b7b7b7 #373737 0;
#X obj 20 95 cnv 15 176 86 empty empty FREQUENCY 2 12 0 24 #b7b7b7 #373737 0;
#X obj 595 95 tgl 88 0 \$0-start \$0-initStart START 9 46 0 24 #fcfcfc #787878 #000000 0 1;
#N canvas 593 23 508 502 presets 1;
#X obj 190 469 list;
#X obj 64 203 textfile;
#X obj 15 37 bng 15 250 50 0 empty empty load 20 7 0 10 #fcfcfc #000000 #000000;
#X obj 15 533 textfile;
#X obj 15 16 bng 15 250 50 0 empty empty save 20 7 0 10 #fcfcfc #000000 #000000;
#X msg 15 491 write \$1;
#X obj 15 383 t s b b;
#X msg 94 172 read \$1;
#X msg 64 143 rewind \, bang;
#X symbolatom 64 36 97 0 0 0 - - - 0;
#X obj 201 431 pack 0 0 0 0 0 0 0 0 0 0 0 0;
#X obj 201 106 r \$0-m.Freq;
#X obj 218 130 r \$0-M.Freq;
#X obj 235 155 r \$0-m.Fdb;
#X obj 253 182 r \$0-M.Fdb;
#X obj 270 206 r \$0-m.Harm;
#X obj 287 233 r \$0-M.Harm;
#X obj 339 315 r \$0-m.Rest;
#X obj 357 343 r \$0-M.Rest;
#X obj 374 374 r \$0-dPan;
#X obj 392 401 r \$0-voices;
#X obj 64 227 s \$0-preset;
#X obj 305 256 r \$0-m.Q2;
#X obj 322 283 r \$0-M.Q2;
#X obj 190 498 list prepend set;
#X obj 38 80 openpanel;
#X obj 15 353 savepanel;
#X obj 39 287 s \$0-initStart;
#X msg 39 263 0;
#X obj 38 106 t b b s, f 13;
#N canvas 648 23 311 459 patch 0;
#X obj 26 568 dac~, f 19;
#X obj 10 43 loadbang;
#X obj 10 104 delay 100;
#X obj 10 127 \$0;
#X obj 33 75 bng 15 250 50 0 empty empty empty 17 7 0 10 #fcfcfc #000000 #000000;
#X obj 26 332 catch~ \$0-L;
#X obj 148 332 catch~ \$0-R;
#X obj 167 436 *~;
#X obj 175 409 line~;
#X obj 26 476 *~;
#X obj 148 476 *~;
#X msg 175 386 \$1 20;
#X obj 175 364 r \$0-volout;
#X obj 10 245 tabwrite \$0-pulse;
#X msg 10 152 1 \; \$1-preset 400 402 80 99 5 20 0 1 0 10 100 4 \; pd dsp 1 \; \$1-volin 0.8 \; \$1-initStart 0;
#X obj 13 272 table \$0-pulse 64;
#X obj 26 502 expr~ atan($v1);
#X obj 26 526 *~ 0.63662;
#X obj 149 502 expr~ atan($v1);
#X obj 149 526 *~ 0.63662;
#X obj 14 15 declare -path abs;
#N canvas 481 23 166 699 instances 0;
#X obj 25 20 pulse-grain 1 \$0;
#X obj 25 220 pulse-grain 9 \$0;
#X obj 25 245 pulse-grain 10 \$0;
#X obj 25 270 pulse-grain 11 \$0;
#X obj 25 295 pulse-grain 12 \$0;
#X obj 25 320 pulse-grain 13 \$0;
#X obj 25 345 pulse-grain 14 \$0;
#X obj 25 370 pulse-grain 15 \$0;
#X obj 25 395 pulse-grain 16 \$0;
#X obj 25 420 pulse-grain 17 \$0;
#X obj 25 445 pulse-grain 18 \$0;
#X obj 25 470 pulse-grain 19 \$0;
#X obj 25 495 pulse-grain 20 \$0;
#X obj 25 520 pulse-grain 21 \$0;
#X obj 25 545 pulse-grain 22 \$0;
#X obj 25 570 pulse-grain 23 \$0;
#X obj 25 595 pulse-grain 24 \$0;
#X obj 25 620 pulse-grain 25 \$0;
#X obj 25 645 pulse-grain 26 \$0;
#X obj 25 670 pulse-grain 27 \$0;
#X obj 25 695 pulse-grain 28 \$0;
#X obj 25 1995 pulse-grain 80 \$0;
#X obj 25 1970 pulse-grain 79 \$0;
#X obj 25 1945 pulse-grain 78 \$0;
#X obj 25 1920 pulse-grain 77 \$0;
#X obj 25 1895 pulse-grain 76 \$0;
#X obj 25 1870 pulse-grain 75 \$0;
#X obj 25 1845 pulse-grain 74 \$0;
#X obj 25 1820 pulse-grain 73 \$0;
#X obj 25 1795 pulse-grain 72 \$0;
#X obj 25 1770 pulse-grain 71 \$0;
#X obj 25 1745 pulse-grain 70 \$0;
#X obj 25 1720 pulse-grain 69 \$0;
#X obj 25 1695 pulse-grain 68 \$0;
#X obj 25 1670 pulse-grain 67 \$0;
#X obj 25 1645 pulse-grain 66 \$0;
#X obj 25 1620 pulse-grain 65 \$0;
#X obj 25 1595 pulse-grain 64 \$0;
#X obj 25 1570 pulse-grain 63 \$0;
#X obj 25 1545 pulse-grain 62 \$0;
#X obj 25 1520 pulse-grain 61 \$0;
#X obj 25 1495 pulse-grain 60 \$0;
#X obj 25 1470 pulse-grain 59 \$0;
#X obj 25 1445 pulse-grain 58 \$0;
#X obj 25 1420 pulse-grain 57 \$0;
#X obj 25 1395 pulse-grain 56 \$0;
#X obj 25 1370 pulse-grain 55 \$0;
#X obj 25 1345 pulse-grain 54 \$0;
#X obj 25 1320 pulse-grain 53 \$0;
#X obj 25 1295 pulse-grain 52 \$0;
#X obj 25 1270 pulse-grain 51 \$0;
#X obj 25 1245 pulse-grain 50 \$0;
#X obj 25 1220 pulse-grain 49 \$0;
#X obj 25 1195 pulse-grain 48 \$0;
#X obj 25 1170 pulse-grain 47 \$0;
#X obj 25 1145 pulse-grain 46 \$0;
#X obj 25 1120 pulse-grain 45 \$0;
#X obj 25 1095 pulse-grain 44 \$0;
#X obj 25 1070 pulse-grain 43 \$0;
#X obj 25 1020 pulse-grain 41 \$0;
#X obj 25 1045 pulse-grain 42 \$0;
#X obj 25 995 pulse-grain 40 \$0;
#X obj 25 970 pulse-grain 39 \$0;
#X obj 25 945 pulse-grain 38 \$0;
#X obj 25 920 pulse-grain 37 \$0;
#X obj 25 895 pulse-grain 36 \$0;
#X obj 25 870 pulse-grain 35 \$0;
#X obj 25 845 pulse-grain 34 \$0;
#X obj 25 820 pulse-grain 33 \$0;
#X obj 25 795 pulse-grain 32 \$0;
#X obj 25 770 pulse-grain 31 \$0;
#X obj 25 745 pulse-grain 30 \$0;
#X obj 25 720 pulse-grain 29 \$0;
#X obj 25 195 pulse-grain 8 \$0;
#X obj 25 170 pulse-grain 7 \$0;
#X obj 25 145 pulse-grain 6 \$0;
#X obj 25 120 pulse-grain 5 \$0;
#X obj 25 95 pulse-grain 4 \$0;
#X obj 25 70 pulse-grain 3 \$0;
#X obj 25 45 pulse-grain 2 \$0;
#X restore 136 52 pd instances;
#N canvas 25 23 831 657 presets 0;
#X obj 19 31 unpack 0 0 0 0 0 0 0 0 0 0 0 0, f 179;
#X obj 25 173 pack 0 0;
#X obj 25 199 line 0 50;
#X obj 295 173 pack 0 0;
#X obj 295 199 line 0 50;
#X obj 158 173 pack 0 0;
#X obj 158 199 line 0 50;
#X obj 652 173 pack 0 0;
#X obj 652 199 line 0 50;
#X obj 538 173 pack 0 0;
#X obj 538 199 line 0 50;
#X obj 25 332 pack 0 0;
#X obj 25 363 line 0 50;
#X obj 295 332 pack 0 0;
#X obj 295 363 line 0 50;
#X obj 158 332 pack 0 0;
#X obj 158 363 line 0 50;
#X obj 415 332 pack 0 0;
#X obj 415 363 line 0 50;
#X obj 652 332 pack 0 0;
#X obj 652 363 line 0 50;
#X obj 538 332 pack 0 0;
#X obj 538 363 line 0 50;
#X obj 415 173 pack 0 0;
#X obj 415 199 line 0 50;
#X obj 19 9 r \$0-preset;
#X obj 19 54 s \$0-togui1;
#X obj 1069 61 s \$0-togui12;
#X obj 973 61 s \$0-togui11;
#X obj 878 61 s \$0-togui10;
#X obj 782 61 s \$0-togui9;
#X obj 687 61 s \$0-togui8;
#X obj 591 61 s \$0-togui7;
#X obj 496 61 s \$0-togui6;
#X obj 400 61 s \$0-togui5;
#X obj 305 61 s \$0-togui4;
#X obj 209 61 s \$0-togui3;
#X obj 114 61 s \$0-togui2;
#X obj 25 118 r \$0-fromgui1;
#X obj 652 278 r \$0-fromgui12;
#X obj 538 278 r \$0-fromgui11;
#X obj 415 278 r \$0-fromgui10;
#X obj 295 278 r \$0-fromgui9;
#X obj 158 278 r \$0-fromgui8;
#X obj 25 278 r \$0-fromgui7;
#X obj 652 118 r \$0-fromgui6;
#X obj 538 118 r \$0-fromgui5;
#X obj 415 118 r \$0-fromgui4;
#X obj 295 118 r \$0-fromgui3;
#X obj 158 118 r \$0-fromgui2;
#X obj 25 225 s \$0-m.Freq;
#X obj 158 225 s \$0-M.Freq;
#X obj 295 225 s \$0-m.Fdb;
#X obj 415 225 s \$0-M.Fdb;
#X obj 538 225 s \$0-m.Harm;
#X obj 652 225 s \$0-M.Harm;
#X obj 25 439 s \$0-m.Q;
#X obj 158 439 s \$0-M.Q;
#X obj 295 406 s \$0-m.Rest;
#X obj 415 405 s \$0-M.Rest;
#X obj 538 404 s \$0-dPan;
#X obj 652 405 s \$0-voices;
#X obj 693 145 r \$0-int;
#X obj 579 145 r \$0-int;
#X obj 456 145 r \$0-int;
#X obj 336 145 r \$0-int;
#X obj 199 145 r \$0-int;
#X obj 66 145 r \$0-int;
#X obj 66 306 r \$0-int;
#X obj 199 306 r \$0-int;
#X obj 336 306 r \$0-int;
#X obj 456 306 r \$0-int;
#X obj 579 306 r \$0-int;
#X obj 693 306 r \$0-int;
#X obj 158 404 * 100;
#X obj 25 403 * 100;
#X obj 210 405 s \$0-M.Q2;
#X obj 73 405 s \$0-m.Q2;
#X connect 0 0 26 0;
#X connect 0 1 37 0;
#X connect 0 2 36 0;
#X connect 0 3 35 0;
#X connect 0 4 34 0;
#X connect 0 5 33 0;
#X connect 0 6 32 0;
#X connect 0 7 31 0;
#X connect 0 8 30 0;
#X connect 0 9 29 0;
#X connect 0 10 28 0;
#X connect 0 11 27 0;
#X connect 1 0 2 0;
#X connect 2 0 50 0;
#X connect 3 0 4 0;
#X connect 4 0 52 0;
#X connect 5 0 6 0;
#X connect 6 0 51 0;
#X connect 7 0 8 0;
#X connect 8 0 55 0;
#X connect 9 0 10 0;
#X connect 10 0 54 0;
#X connect 11 0 12 0;
#X connect 12 0 75 0;
#X connect 12 0 77 0;
#X connect 13 0 14 0;
#X connect 14 0 58 0;
#X connect 15 0 16 0;
#X connect 16 0 74 0;
#X connect 16 0 76 0;
#X connect 17 0 18 0;
#X connect 18 0 59 0;
#X connect 19 0 20 0;
#X connect 20 0 61 0;
#X connect 21 0 22 0;
#X connect 22 0 60 0;
#X connect 23 0 24 0;
#X connect 24 0 53 0;
#X connect 25 0 0 0;
#X connect 38 0 1 0;
#X connect 39 0 19 0;
#X connect 40 0 21 0;
#X connect 41 0 17 0;
#X connect 42 0 13 0;
#X connect 43 0 15 0;
#X connect 44 0 11 0;
#X connect 45 0 7 0;
#X connect 46 0 9 0;
#X connect 47 0 23 0;
#X connect 48 0 3 0;
#X connect 49 0 5 0;
#X connect 62 0 7 1;
#X connect 63 0 9 1;
#X connect 64 0 23 1;
#X connect 65 0 3 1;
#X connect 66 0 5 1;
#X connect 67 0 1 1;
#X connect 68 0 11 1;
#X connect 69 0 15 1;
#X connect 70 0 13 1;
#X connect 71 0 17 1;
#X connect 72 0 21 1;
#X connect 73 0 19 1;
#X connect 74 0 57 0;
#X connect 75 0 56 0;
#X restore 136 82 pd presets;
#X connect 1 0 2 0;
#X connect 2 0 3 0;
#X connect 3 0 14 0;
#X connect 4 0 2 0;
#X connect 5 0 9 0;
#X connect 6 0 10 0;
#X connect 7 0 10 1;
#X connect 7 0 9 1;
#X connect 8 0 7 1;
#X connect 8 0 7 0;
#X connect 9 0 16 0;
#X connect 10 0 18 0;
#X connect 11 0 8 0;
#X connect 12 0 11 0;
#X connect 14 0 13 0;
#X connect 16 0 17 0;
#X connect 17 0 0 0;
#X connect 18 0 19 0;
#X connect 19 0 0 1;
#X restore 600 106 pd patch;
#X connect 0 0 24 0;
#X connect 1 0 21 0;
#X connect 2 0 25 0;
#X connect 4 0 26 0;
#X connect 4 0 2 0;
#X connect 5 0 3 0;
#X connect 6 0 5 0;
#X connect 6 1 0 0;
#X connect 6 2 10 0;
#X connect 7 0 1 0;
#X connect 8 0 1 0;
#X connect 10 0 0 1;
#X connect 11 0 10 0;
#X connect 12 0 10 1;
#X connect 13 0 10 2;
#X connect 14 0 10 3;
#X connect 15 0 10 4;
#X connect 16 0 10 5;
#X connect 17 0 10 8;
#X connect 18 0 10 9;
#X connect 19 0 10 10;
#X connect 20 0 10 11;
#X connect 22 0 10 6;
#X connect 23 0 10 7;
#X connect 24 0 3 0;
#X connect 25 0 9 0;
#X connect 25 0 29 0;
#X connect 26 0 6 0;
#X connect 28 0 27 0;
#X connect 29 0 28 0;
#X connect 29 1 8 0;
#X connect 29 2 7 0;
#X coords 0 -1 1 1 657 67 2 10 5;
#X restore 20 18 pd presets;
#X obj 596 195 bng 88 250 50 0 \$0-reset empty RESET 20 44 0 16 #fcfcfc #000000 #000000;
#X floatatom 28 145 12 10 10000 2 min \$0-togui1 \$0-fromgui1 24;
#X floatatom 109 145 12 10 10000 2 max \$0-togui2 \$0-fromgui2 24;
#X floatatom 223 145 12 1 99 2 min \$0-togui3 \$0-fromgui3 24;
#X floatatom 304 145 12 1 99 2 max \$0-togui4 \$0-fromgui4 24;
#X floatatom 412 145 12 1 1000 2 min \$0-togui5 \$0-fromgui5 24;
#X floatatom 499 145 12 1 1000 2 max \$0-togui6 \$0-fromgui6 24;
#X floatatom 28 242 12 0 10000 2 min \$0-togui7 \$0-fromgui7 24;
#X floatatom 109 242 12 0 10000 2 max \$0-togui8 \$0-fromgui8 24;
#X floatatom 223 242 12 0 1000 2 min \$0-togui9 \$0-fromgui9 24;
#X floatatom 304 242 12 0 1000 2 max \$0-togui10 \$0-fromgui10 24;
#X floatatom 404 206 13 0 100 2 PAN \$0-togui11 \$0-fromgui11 16;
#X floatatom 500 206 13 0 80 2 VOICES \$0-togui12 \$0-fromgui12 16;
#X obj 407 261 hsl 171 20 0 2 0 0 \$0-volout \$0-volin VOLUME -9 -13 0 16 #fcfcfc #000000 #000000 0 1;
