#N canvas 21 479 517 284 10;
#X declare -path abs;
#X obj 470 114 tgl 16 0 \$0-start \$0-initStart empty 17 7 0 10 -262144
-1 -1 0 1;
#N canvas 481 23 166 699 instances 0;
#X obj 25 20 pulse-grain 1 \$0;
#X obj 25 220 pulse-grain 9 \$0;
#X obj 25 245 pulse-grain 10 \$0;
#X obj 25 270 pulse-grain 11 \$0;
#X obj 25 295 pulse-grain 12 \$0;
#X obj 25 320 pulse-grain 13 \$0;
#X obj 25 345 pulse-grain 14 \$0;
#X obj 25 370 pulse-grain 15 \$0;
#X obj 25 395 pulse-grain 16 \$0;
#X obj 25 420 pulse-grain 17 \$0;
#X obj 25 445 pulse-grain 18 \$0;
#X obj 25 470 pulse-grain 19 \$0;
#X obj 25 495 pulse-grain 20 \$0;
#X obj 25 520 pulse-grain 21 \$0;
#X obj 25 545 pulse-grain 22 \$0;
#X obj 25 570 pulse-grain 23 \$0;
#X obj 25 595 pulse-grain 24 \$0;
#X obj 25 620 pulse-grain 25 \$0;
#X obj 25 645 pulse-grain 26 \$0;
#X obj 25 670 pulse-grain 27 \$0;
#X obj 25 695 pulse-grain 28 \$0;
#X obj 25 1995 pulse-grain 80 \$0;
#X obj 25 1970 pulse-grain 79 \$0;
#X obj 25 1945 pulse-grain 78 \$0;
#X obj 25 1920 pulse-grain 77 \$0;
#X obj 25 1895 pulse-grain 76 \$0;
#X obj 25 1870 pulse-grain 75 \$0;
#X obj 25 1845 pulse-grain 74 \$0;
#X obj 25 1820 pulse-grain 73 \$0;
#X obj 25 1795 pulse-grain 72 \$0;
#X obj 25 1770 pulse-grain 71 \$0;
#X obj 25 1745 pulse-grain 70 \$0;
#X obj 25 1720 pulse-grain 69 \$0;
#X obj 25 1695 pulse-grain 68 \$0;
#X obj 25 1670 pulse-grain 67 \$0;
#X obj 25 1645 pulse-grain 66 \$0;
#X obj 25 1620 pulse-grain 65 \$0;
#X obj 25 1595 pulse-grain 64 \$0;
#X obj 25 1570 pulse-grain 63 \$0;
#X obj 25 1545 pulse-grain 62 \$0;
#X obj 25 1520 pulse-grain 61 \$0;
#X obj 25 1495 pulse-grain 60 \$0;
#X obj 25 1470 pulse-grain 59 \$0;
#X obj 25 1445 pulse-grain 58 \$0;
#X obj 25 1420 pulse-grain 57 \$0;
#X obj 25 1395 pulse-grain 56 \$0;
#X obj 25 1370 pulse-grain 55 \$0;
#X obj 25 1345 pulse-grain 54 \$0;
#X obj 25 1320 pulse-grain 53 \$0;
#X obj 25 1295 pulse-grain 52 \$0;
#X obj 25 1270 pulse-grain 51 \$0;
#X obj 25 1245 pulse-grain 50 \$0;
#X obj 25 1220 pulse-grain 49 \$0;
#X obj 25 1195 pulse-grain 48 \$0;
#X obj 25 1170 pulse-grain 47 \$0;
#X obj 25 1145 pulse-grain 46 \$0;
#X obj 25 1120 pulse-grain 45 \$0;
#X obj 25 1095 pulse-grain 44 \$0;
#X obj 25 1070 pulse-grain 43 \$0;
#X obj 25 1020 pulse-grain 41 \$0;
#X obj 25 1045 pulse-grain 42 \$0;
#X obj 25 995 pulse-grain 40 \$0;
#X obj 25 970 pulse-grain 39 \$0;
#X obj 25 945 pulse-grain 38 \$0;
#X obj 25 920 pulse-grain 37 \$0;
#X obj 25 895 pulse-grain 36 \$0;
#X obj 25 870 pulse-grain 35 \$0;
#X obj 25 845 pulse-grain 34 \$0;
#X obj 25 820 pulse-grain 33 \$0;
#X obj 25 795 pulse-grain 32 \$0;
#X obj 25 770 pulse-grain 31 \$0;
#X obj 25 745 pulse-grain 30 \$0;
#X obj 25 720 pulse-grain 29 \$0;
#X obj 25 195 pulse-grain 8 \$0;
#X obj 25 170 pulse-grain 7 \$0;
#X obj 25 145 pulse-grain 6 \$0;
#X obj 25 120 pulse-grain 5 \$0;
#X obj 25 95 pulse-grain 4 \$0;
#X obj 25 70 pulse-grain 3 \$0;
#X obj 25 45 pulse-grain 2 \$0;
#X restore 39 212 pd instances;
#N canvas 593 23 508 502 presets 0;
#X obj 111 410 list;
#X obj 37 178 textfile;
#X obj 15 37 bng 15 250 50 0 empty empty load 20 7 0 10 -262144 -1
-1;
#X obj 91 455 textfile;
#X obj 15 16 bng 15 250 50 0 empty empty save 20 7 0 10 -262144 -1
-1;
#X msg 15 376 write \$1;
#X obj 15 297 t s b b;
#X msg 64 155 read \$1;
#X msg 37 131 rewind \, bang;
#X symbolatom 64 36 70 0 0 0 - - -, f 70;
#X obj 132 387 pack 0 0 0 0 0 0 0 0 0 0 0 0;
#X obj 132 139 r \$0-m.Freq;
#X obj 147 159 r \$0-M.Freq;
#X obj 162 179 r \$0-m.Fdb;
#X obj 177 199 r \$0-M.Fdb;
#X obj 192 219 r \$0-m.Harm;
#X obj 207 239 r \$0-M.Harm;
#X obj 252 299 r \$0-m.Rest;
#X obj 267 319 r \$0-M.Rest;
#X obj 282 339 r \$0-dPan;
#X obj 297 359 r \$0-voices;
#X obj 37 200 s \$0-preset;
#X obj 222 259 r \$0-m.Q2;
#X obj 237 279 r \$0-M.Q2;
#X obj 101 433 list prepend set;
#X obj 25 79 openpanel;
#X obj 15 274 savepanel;
#X obj 25 249 s \$0-initStart;
#X msg 25 225 0;
#X obj 25 105 t b b s;
#X connect 0 0 24 0;
#X connect 1 0 21 0;
#X connect 2 0 25 0;
#X connect 4 0 26 0;
#X connect 5 0 3 0;
#X connect 6 0 5 0;
#X connect 6 1 0 0;
#X connect 6 2 10 0;
#X connect 7 0 1 0;
#X connect 8 0 1 0;
#X connect 10 0 0 1;
#X connect 11 0 10 0;
#X connect 12 0 10 1;
#X connect 13 0 10 2;
#X connect 14 0 10 3;
#X connect 15 0 10 4;
#X connect 16 0 10 5;
#X connect 17 0 10 8;
#X connect 18 0 10 9;
#X connect 19 0 10 10;
#X connect 20 0 10 11;
#X connect 22 0 10 6;
#X connect 23 0 10 7;
#X connect 24 0 3 0;
#X connect 25 0 9 0;
#X connect 25 0 29 0;
#X connect 26 0 6 0;
#X connect 28 0 27 0;
#X connect 29 0 28 0;
#X connect 29 1 8 0;
#X connect 29 2 7 0;
#X coords 0 -1 1 1 480 60 2 10 5;
#X restore 11 12 pd presets;
#X obj 470 164 bng 16 250 50 0 \$0-reset empty empty 17 7 0 10 -262144
-1 -1;
#N canvas 25 23 831 657 presets 0;
#X obj 19 31 unpack 0 0 0 0 0 0 0 0 0 0 0 0;
#X obj 19 101 unpack 0 0 0 0 0 0 0 0 0 0 0 0;
#X obj 19 171 unpack 0 0 0 0 0 0 0 0 0 0 0 0;
#X obj 19 241 unpack 0 0 0 0 0 0 0 0 0 0 0 0;
#X obj 289 31 unpack 0 0 0 0 0 0 0 0 0 0 0 0;
#X obj 289 101 unpack 0 0 0 0 0 0 0 0 0 0 0 0;
#X obj 289 171 unpack 0 0 0 0 0 0 0 0 0 0 0 0;
#X obj 289 241 unpack 0 0 0 0 0 0 0 0 0 0 0 0;
#X obj 549 31 unpack 0 0 0 0 0 0 0 0 0 0 0 0;
#X obj 549 101 unpack 0 0 0 0 0 0 0 0 0 0 0 0;
#X obj 549 171 unpack 0 0 0 0 0 0 0 0 0 0 0 0;
#X obj 549 241 unpack 0 0 0 0 0 0 0 0 0 0 0 0;
#X obj 19 356 pack 0 0;
#X obj 19 378 line 0 50;
#X obj 219 356 pack 0 0;
#X obj 219 378 line 0 50;
#X obj 119 356 pack 0 0;
#X obj 119 378 line 0 50;
#X obj 519 356 pack 0 0;
#X obj 519 378 line 0 50;
#X obj 419 356 pack 0 0;
#X obj 419 378 line 0 50;
#X obj 19 516 pack 0 0;
#X obj 19 538 line 0 50;
#X obj 219 516 pack 0 0;
#X obj 219 538 line 0 50;
#X obj 119 516 pack 0 0;
#X obj 119 538 line 0 50;
#X obj 319 516 pack 0 0;
#X obj 319 538 line 0 50;
#X obj 519 516 pack 0 0;
#X obj 519 538 line 0 50;
#X obj 419 516 pack 0 0;
#X obj 419 538 line 0 50;
#X obj 319 356 pack 0 0;
#X obj 319 378 line 0 50;
#X obj 19 9 r \$0-preset;
#X obj 289 8 r \$0-preset;
#X obj 549 9 r \$0-preset;
#X obj 289 79 r \$0-preset;
#X obj 19 79 r \$0-preset;
#X obj 549 79 r \$0-preset;
#X obj 19 149 r \$0-preset;
#X obj 289 149 r \$0-preset;
#X obj 549 149 r \$0-preset;
#X obj 19 219 r \$0-preset;
#X obj 289 219 r \$0-preset;
#X obj 549 219 r \$0-preset;
#X obj 19 54 s \$0-togui1;
#X obj 726 264 s \$0-togui12;
#X obj 709 194 s \$0-togui11;
#X obj 693 124 s \$0-togui10;
#X obj 677 54 s \$0-togui9;
#X obj 401 264 s \$0-togui8;
#X obj 385 192 s \$0-togui7;
#X obj 369 124 s \$0-togui6;
#X obj 353 54 s \$0-togui5;
#X obj 67 264 s \$0-togui4;
#X obj 51 194 s \$0-togui3;
#X obj 35 124 s \$0-togui2;
#X obj 19 310 r \$0-fromgui1;
#X obj 519 470 r \$0-fromgui12;
#X obj 419 470 r \$0-fromgui11;
#X obj 319 470 r \$0-fromgui10;
#X obj 219 470 r \$0-fromgui9;
#X obj 119 470 r \$0-fromgui8;
#X obj 19 470 r \$0-fromgui7;
#X obj 519 310 r \$0-fromgui6;
#X obj 419 310 r \$0-fromgui5;
#X obj 319 310 r \$0-fromgui4;
#X obj 219 310 r \$0-fromgui3;
#X obj 119 310 r \$0-fromgui2;
#X obj 19 400 s \$0-m.Freq;
#X obj 119 400 s \$0-M.Freq;
#X obj 219 400 s \$0-m.Fdb;
#X obj 319 400 s \$0-M.Fdb;
#X obj 419 400 s \$0-m.Harm;
#X obj 519 400 s \$0-M.Harm;
#X obj 19 600 s \$0-m.Q;
#X obj 119 600 s \$0-M.Q;
#X obj 219 581 s \$0-m.Rest;
#X obj 319 580 s \$0-M.Rest;
#X obj 419 579 s \$0-dPan;
#X obj 519 580 s \$0-voices;
#X obj 564 334 r \$0-int;
#X obj 464 334 r \$0-int;
#X obj 364 334 r \$0-int;
#X obj 264 334 r \$0-int;
#X obj 164 334 r \$0-int;
#X obj 64 334 r \$0-int;
#X obj 64 494 r \$0-int;
#X obj 164 494 r \$0-int;
#X obj 264 494 r \$0-int;
#X obj 364 494 r \$0-int;
#X obj 464 494 r \$0-int;
#X obj 564 494 r \$0-int;
#X obj 119 579 * 100;
#X obj 19 578 * 100;
#X obj 159 580 s \$0-M.Q2;
#X obj 59 580 s \$0-m.Q2;
#X connect 0 0 48 0;
#X connect 1 1 59 0;
#X connect 2 2 58 0;
#X connect 3 3 57 0;
#X connect 4 4 56 0;
#X connect 5 5 55 0;
#X connect 6 6 54 0;
#X connect 7 7 53 0;
#X connect 8 8 52 0;
#X connect 9 9 51 0;
#X connect 10 10 50 0;
#X connect 11 11 49 0;
#X connect 12 0 13 0;
#X connect 13 0 72 0;
#X connect 14 0 15 0;
#X connect 15 0 74 0;
#X connect 16 0 17 0;
#X connect 17 0 73 0;
#X connect 18 0 19 0;
#X connect 19 0 77 0;
#X connect 20 0 21 0;
#X connect 21 0 76 0;
#X connect 22 0 23 0;
#X connect 23 0 97 0;
#X connect 23 0 99 0;
#X connect 24 0 25 0;
#X connect 25 0 80 0;
#X connect 26 0 27 0;
#X connect 27 0 96 0;
#X connect 27 0 98 0;
#X connect 28 0 29 0;
#X connect 29 0 81 0;
#X connect 30 0 31 0;
#X connect 31 0 83 0;
#X connect 32 0 33 0;
#X connect 33 0 82 0;
#X connect 34 0 35 0;
#X connect 35 0 75 0;
#X connect 36 0 0 0;
#X connect 37 0 4 0;
#X connect 38 0 8 0;
#X connect 39 0 5 0;
#X connect 40 0 1 0;
#X connect 41 0 9 0;
#X connect 42 0 2 0;
#X connect 43 0 6 0;
#X connect 44 0 10 0;
#X connect 45 0 3 0;
#X connect 46 0 7 0;
#X connect 47 0 11 0;
#X connect 60 0 12 0;
#X connect 61 0 30 0;
#X connect 62 0 32 0;
#X connect 63 0 28 0;
#X connect 64 0 24 0;
#X connect 65 0 26 0;
#X connect 66 0 22 0;
#X connect 67 0 18 0;
#X connect 68 0 20 0;
#X connect 69 0 34 0;
#X connect 70 0 14 0;
#X connect 71 0 16 0;
#X connect 84 0 18 1;
#X connect 85 0 20 1;
#X connect 86 0 34 1;
#X connect 87 0 14 1;
#X connect 88 0 16 1;
#X connect 89 0 12 1;
#X connect 90 0 22 1;
#X connect 91 0 26 1;
#X connect 92 0 24 1;
#X connect 93 0 28 1;
#X connect 94 0 32 1;
#X connect 95 0 30 1;
#X connect 96 0 79 0;
#X connect 97 0 78 0;
#X restore 194 212 pd presets;
#X floatatom 39 114 5 10 10000 0 min: #0-togui1 #0-fromgui1, f 5;
#X floatatom 109 114 5 10 10000 0 MAX: #0-togui2 #0-fromgui2, f 5
;
#X floatatom 189 114 5 1 99 0 min: #0-togui3 #0-fromgui3, f 5;
#X floatatom 259 114 5 1 99 0 MAX: #0-togui4 #0-fromgui4, f 5;
#X floatatom 339 114 5 1 1000 0 min: #0-togui5 #0-fromgui5, f 5;
#X floatatom 409 114 5 1 1000 0 MAX: #0-togui6 #0-fromgui6, f 5;
#X floatatom 39 164 5 0 10000 0 min: #0-togui7 #0-fromgui7, f 5;
#X floatatom 109 164 5 0 10000 0 MAX: #0-togui8 #0-fromgui8, f 5;
#X floatatom 189 164 5 0 1000 0 min: #0-togui9 #0-fromgui9, f 5;
#X floatatom 259 164 5 0 1000 0 MAX: #0-togui10 #0-fromgui10, f 5
;
#X floatatom 339 164 5 0 100 2 PAN #0-togui11 #0-fromgui11, f 5;
#X floatatom 409 164 5 0 80 2 VOICES #0-togui12 #0-fromgui12, f 5
;
#N canvas 648 23 864 623 loadbang 0;
#X obj 10 9 loadbang;
#X obj 10 49 delay 100;
#X obj 10 72 \$0;
#X obj 17 30 bng 15 250 50 0 empty empty empty 17 7 0 10 -262144 -1
-1;
#X obj 438 286 *~;
#X obj 446 259 line~;
#X obj 277 314 *~;
#X obj 387 314 *~;
#X msg 446 236 \$1 20;
#X obj 446 214 r \$0-volout;
#X obj 10 172 tabwrite \$0-pulse;
#X msg 10 97 1 \; \$1-preset 400 402 80 99 5 20 0 1 0 10 100 4 \; pd
dsp 1 \; \$1-volin 0.8 \; \$1-initStart 0;
#X obj 122 171 table \$0-pulse 64;
#X obj 277 340 expr~ atan($v1);
#X obj 277 364 *~ 0.63662;
#X obj 388 340 expr~ atan($v1);
#X obj 388 364 *~ 0.63662;
#X obj 84 9 declare -path abs;
#X obj 167 314 *~;
#X obj 167 340 expr~ atan($v1);
#X obj 167 364 *~ 0.63662;
#X obj 57 314 *~;
#X obj 57 340 expr~ atan($v1);
#X obj 57 364 *~ 0.63662;
#X obj 57 403 dac~ 1 2 3 4, f 55;
#X obj 57 196 catch~ \$0-FL;
#X obj 167 196 catch~ \$0-FR;
#X obj 277 196 catch~ \$0-RL;
#X obj 388 193 catch~ \$0-RR;
#X connect 0 0 1 0;
#X connect 1 0 2 0;
#X connect 2 0 11 0;
#X connect 3 0 1 0;
#X connect 4 0 7 1;
#X connect 4 0 6 1;
#X connect 4 0 18 1;
#X connect 4 0 21 1;
#X connect 5 0 4 1;
#X connect 5 0 4 0;
#X connect 6 0 13 0;
#X connect 7 0 15 0;
#X connect 8 0 5 0;
#X connect 9 0 8 0;
#X connect 11 0 10 0;
#X connect 13 0 14 0;
#X connect 14 0 24 2;
#X connect 15 0 16 0;
#X connect 16 0 24 3;
#X connect 18 0 19 0;
#X connect 19 0 20 0;
#X connect 20 0 24 1;
#X connect 21 0 22 0;
#X connect 22 0 23 0;
#X connect 23 0 24 0;
#X connect 25 0 21 0;
#X connect 26 0 18 0;
#X connect 27 0 6 0;
#X connect 28 0 7 0;
#X restore 119 212 pd loadbang;
#X text 39 94 FRECUENCY (HZ);
#X text 189 94 FEEDBACK (%);
#X text 339 94 HARMONICS (n);
#X text 189 144 REST (ms);
#X text 39 144 Q;
#X text 469 94 START;
#X text 469 144 RESET;
#X obj 282 212 hsl 210 18 0 2 0 0 \$0-volout \$0-volin empty -2 -8
0 10 -262144 -1 -1 8360 1;
#X text 279 191 VOLUME;
