#N canvas 0 22 170 293 10;
#X obj 31 199 expr~ atan($v1);
#X obj 5 250 tabwrite~ \$0-atan;
#X obj 32 58 samplerate~;
#X obj 5 15 bng 15 250 50 0 empty empty empty 17 7 0 10 -262144 -1
-1;
#X obj 31 222 *~ 0.63662;
#X msg 31 105 1000 \$1;
#X obj 31 128 /;
#X obj 31 176 vline~;
#X msg 31 151 -4 \, 4 \$1;
#X obj 31 80 / 2048;
#X obj 5 36 t b b;
#X connect 0 0 4 0;
#X connect 2 0 9 0;
#X connect 3 0 10 0;
#X connect 4 0 1 0;
#X connect 5 0 6 0;
#X connect 6 0 8 0;
#X connect 7 0 0 0;
#X connect 8 0 7 0;
#X connect 9 0 5 0;
#X connect 10 0 1 0;
#X connect 10 1 2 0;
