#N canvas 178 22 130 297 10;
#X obj -21 -16 / 100;
#X obj -36 -134 triang;
#X obj -36 8 * 0;
#X obj -35 52 outlet;
#X obj -36 -156 inlet;
#X obj -36 -114 * 2;
#X obj -36 -93 - 1;
#X obj -36 30 + 0.5;
#X obj -21 -37 * 0.5;
#X obj -21 -62 r \$1-d\$2;
#X connect 0 0 2 1;
#X connect 1 0 5 0;
#X connect 2 0 7 0;
#X connect 4 0 1 0;
#X connect 5 0 6 0;
#X connect 6 0 2 0;
#X connect 7 0 3 0;
#X connect 8 0 0 0;
#X connect 9 0 8 0;
