#N canvas 134 22 703 752 10;
#X obj 107 -25 r interruptor;
#X obj 107 -4 sel 0 1;
#X msg 34 136 stop;
#X obj 190 16 a.rango iot;
#X obj 157 58 random;
#X obj 157 106 +;
#X obj 190 37 / 5;
#X obj 157 80 * 5;
#X obj 188 106 mod 5;
#X obj 165 131 -;
#X obj 34 180 delay;
#X obj 180 195 random;
#X obj 180 222 +;
#X obj 165 264 / 100;
#X obj 165 243 *;
#X obj 109 223 s dur.\$1;
#X obj 180 151 r dur.\$1;
#X obj 79 263 s iot.\$1;
#X obj 34 328 s speaker.\$1;
#X obj 282 831 throw~ grain_L;
#X obj 352 810 throw~ grain_R;
#X obj 367 679 random 2;
#X obj 367 766 vline~;
#X obj 352 789 *~;
#X obj 297 788 vline~;
#X obj 282 809 *~;
#X obj 367 701 - 1;
#X obj 367 723 abs;
#X obj 367 657 r speaker.\$1;
#X obj 35 425 random;
#X obj 35 471 +;
#X obj 35 491 mtof;
#X obj 35 447 / 8;
#X obj 68 403 * 8;
#X obj 35 512 sig~;
#X obj 35 359 r freq.\$1;
#X obj 49 306 s freq.\$1;
#X obj 160 560 *~;
#X obj 157 -4 r iot.\$1;
#X obj 165 477 vline~;
#X obj 150 512 *~;
#X obj 175 535 *~;
#X obj 94 243 s env.\$1;
#X obj 225 267 random;
#X obj 225 294 +;
#X obj 225 223 r env.\$1;
#X obj 210 317 *;
#X obj 210 342 / 100;
#X obj 165 391 -;
#X obj 165 368 swap;
#X obj 165 412 abs;
#X obj 165 433 pack 0 0;
#X msg 165 455 0 \, 1 \$2 \, 0 \$1 \$2;
#X msg 367 744 \$1 1;
#X msg 297 766 \$1 1;
#X obj 210 519 random;
#X obj 210 546 +;
#X obj 210 477 r dyn.\$1;
#X obj 210 568 dbtorms;
#X obj 195 610 *~;
#X obj 34 202 t b b b b b b;
#X obj 64 284 s dyn.\$1;
#X obj 210 588 sig~;
#X obj 270 555 route \$1;
#X obj 260 653 switch~;
#X obj 282 725 *~;
#X msg 297 683 \$1 100;
#X obj 297 703 line~;
#X obj 307 602 pipe 100;
#X obj 270 534 r voice.int;
#X obj 270 576 sel 1;
#X msg 260 601 1;
#X obj 275 628 pipe 100;
#X obj 213 174 a.rango dur;
#X obj 68 381 a.rango freq;
#X obj 258 244 a.rango env;
#X obj 243 498 a.rango dyn;
#X obj 35 533 osc~;
#X connect 0 0 1 0;
#X connect 1 0 2 0;
#X connect 1 1 4 0;
#X connect 2 0 10 0;
#X connect 3 0 6 0;
#X connect 3 1 8 0;
#X connect 3 1 5 1;
#X connect 4 0 7 0;
#X connect 5 0 9 0;
#X connect 6 0 4 1;
#X connect 7 0 5 0;
#X connect 8 0 9 1;
#X connect 9 0 10 0;
#X connect 9 0 14 0;
#X connect 10 0 60 0;
#X connect 11 0 12 0;
#X connect 12 0 14 1;
#X connect 13 0 46 0;
#X connect 13 0 49 0;
#X connect 14 0 13 0;
#X connect 16 0 11 0;
#X connect 21 0 26 0;
#X connect 21 0 54 0;
#X connect 22 0 23 1;
#X connect 23 0 20 0;
#X connect 24 0 25 1;
#X connect 25 0 19 0;
#X connect 26 0 27 0;
#X connect 27 0 53 0;
#X connect 28 0 21 0;
#X connect 29 0 32 0;
#X connect 30 0 31 0;
#X connect 31 0 34 0;
#X connect 32 0 30 0;
#X connect 33 0 29 1;
#X connect 34 0 77 0;
#X connect 35 0 29 0;
#X connect 37 0 59 0;
#X connect 38 0 4 0;
#X connect 39 0 40 1;
#X connect 39 0 40 0;
#X connect 39 0 41 1;
#X connect 40 0 41 0;
#X connect 41 0 37 1;
#X connect 43 0 44 0;
#X connect 44 0 46 1;
#X connect 45 0 43 0;
#X connect 46 0 47 0;
#X connect 47 0 49 1;
#X connect 47 0 51 1;
#X connect 48 0 50 0;
#X connect 49 0 48 0;
#X connect 49 1 48 1;
#X connect 50 0 51 0;
#X connect 51 0 52 0;
#X connect 52 0 39 0;
#X connect 53 0 22 0;
#X connect 54 0 24 0;
#X connect 55 0 56 0;
#X connect 56 0 58 0;
#X connect 57 0 55 0;
#X connect 58 0 62 0;
#X connect 59 0 65 0;
#X connect 60 0 18 0;
#X connect 60 1 36 0;
#X connect 60 2 61 0;
#X connect 60 3 17 0;
#X connect 60 4 42 0;
#X connect 60 5 15 0;
#X connect 62 0 59 1;
#X connect 63 0 70 0;
#X connect 65 0 23 0;
#X connect 65 0 25 0;
#X connect 66 0 67 0;
#X connect 67 0 65 1;
#X connect 68 0 64 0;
#X connect 69 0 63 0;
#X connect 70 0 71 0;
#X connect 70 1 68 0;
#X connect 70 1 66 0;
#X connect 71 0 64 0;
#X connect 71 0 72 0;
#X connect 72 0 66 0;
#X connect 73 0 11 1;
#X connect 73 1 12 1;
#X connect 74 0 33 0;
#X connect 74 1 30 1;
#X connect 75 0 43 1;
#X connect 75 1 44 1;
#X connect 76 0 55 1;
#X connect 76 1 56 1;
#X connect 77 0 37 0;
