#N canvas 704 23 338 312 10;
#X obj 9 69 *~ 0.5;
#X obj 9 91 +~ 0.5;
#X obj 69 100 unpack;
#X obj 69 78 r \$2-\$1;
#X obj 48 159 +~ 0;
#X obj 81 130 *~ 1, f 5;
#X obj 48 181 outlet~;
#X obj 9 16 r \$2-changeRate;
#X obj 9 43 zexy/noisi~ 1;
#X connect 0 0 1 0;
#X connect 1 0 5 0;
#X connect 2 0 4 1;
#X connect 2 1 5 1;
#X connect 3 0 2 0;
#X connect 4 0 6 0;
#X connect 5 0 4 0;
#X connect 7 0 8 0;
#X connect 8 0 0 0;
