#N canvas 1061 23 292 183 10;
#X obj 6 154 outlet;
#X obj 21 34 unpack;
#X obj 21 12 r \$2-\$1;
#X obj 73 54 * 2;
#X obj 73 75 - 1;
#X obj 39 104 *;
#X obj 6 133 +;
#X obj 73 11 inlet;
#X obj 73 32 maxlib/triang;
#X connect 1 0 6 1;
#X connect 1 1 5 1;
#X connect 2 0 1 0;
#X connect 3 0 4 0;
#X connect 4 0 5 0;
#X connect 5 0 6 0;
#X connect 6 0 0 0;
#X connect 7 0 8 0;
#X connect 8 0 3 0;
