#N canvas 698 35 645 322 10;
#N canvas 0 22 450 278 (subpatch) 0;
#X array 0:00 11025 float 2;
#X coords 0 1 11025 -1 50 100 1 0 0;
#X restore 100 120 graph;
#N canvas 0 22 450 278 (subpatch) 0;
#X array 0:01 11025 float 2;
#X coords 0 1 11025 -1 50 100 1 0 0;
#X restore 150 120 graph;
#N canvas 0 22 450 278 (subpatch) 0;
#X array 0:02 11025 float 2;
#X coords 0 1 11025 -1 50 100 2 0 0;
#X restore 200 120 graph;
#N canvas 0 22 450 278 (subpatch) 0;
#X array 0:03 11025 float 2;
#X coords 0 1 11025 -1 50 100 1 0 0;
#X restore 250 120 graph;
#N canvas 0 22 450 278 (subpatch) 0;
#X array 0:04 11025 float 2;
#X coords 0 1 11025 -1 50 100 1 0 0;
#X restore 300 120 graph;
#N canvas 0 22 450 278 (subpatch) 0;
#X array 0:05 11025 float 2;
#X coords 0 1 11025 -1 50 100 1 0 0;
#X restore 350 120 graph;
#N canvas 0 22 450 278 (subpatch) 0;
#X array 0:06 11025 float 2;
#X coords 0 1 11025 -1 50 100 1 0 0;
#X restore 400 120 graph;
#N canvas 0 22 450 278 (subpatch) 0;
#X array 0:07 11025 float 2;
#X coords 0 1 11025 -1 50 100 1 0 0;
#X restore 450 120 graph;
#N canvas 0 22 450 278 (subpatch) 0;
#X array 0:08 11025 float 2;
#X coords 0 1 11025 -1 50 100 1 0 0;
#X restore 500 120 graph;
#N canvas 0 22 450 278 (subpatch) 0;
#X array 0:09 11025 float 2;
#X coords 0 1 11025 -1 50 100 1 0 0;
#X restore 550 120 graph;
#X obj 100 233 inlet~;
#N canvas 704 649 156 207 draw 1;
#X obj 9 34 inlet~;
#X obj 17 84 f;
#X obj 45 83 + 1;
#X msg 17 148 set \$1;
#X obj 17 60 inlet;
#X obj 17 106 mod 10;
#X obj 17 127 makefilename 0:0%d;
#X obj 5 12 block~ 11025 1 0.25;
#X obj 9 170 tabsend~ 0:00;
#X connect 0 0 8 0;
#X connect 1 0 2 0;
#X connect 1 0 5 0;
#X connect 2 0 1 1;
#X connect 3 0 8 0;
#X connect 4 0 1 0;
#X connect 5 0 6 0;
#X connect 6 0 3 0;
#X restore 100 278 pd draw;
#X obj 139 256 bang~;
#X obj 151 278 block~ 88200 2;
#X connect 10 0 11 0;
#X connect 12 0 11 1;
#X coords 0 -1 1 1 500 120 2 100 100;
