#N canvas 170 22 696 733 10;
#X msg -959 444 0 \, 1 \$1;
#X obj -959 465 vline~;
#X obj -914 595 *~;
#X obj -616 586 - 1;
#X obj -616 606 abs;
#X obj -694 658 sqrt;
#X obj -941 93 sel 0 1;
#X msg -959 115 stop;
#X obj -858 385 mtof;
#X obj -858 405 / 8.1758;
#X obj -873 489 *;
#X obj -616 627 sqrt;
#X obj -858 468 -;
#X msg -858 447 1;
#X obj -858 426 t b f;
#X obj -959 246 t b b b b b b;
#X obj -1038 528 trapezoid~ 0.5 0;
#X obj -1038 552 *~;
#X obj -1038 572 *~;
#X obj -888 2 r \$1-voices;
#X obj -899 573 vd~ \$1-deline;
#X obj -888 24 >= \$2;
#X obj -588 374 dbtorms;
#X obj -545 137 r \$1-randCurve;
#X obj -959 158 delay;
#X obj -947 136 r \$0-newEvent;
#X obj -922 225 s \$0-newEvent;
#X text -700 41 make sure that dur is always shorter than iot;
#X obj -661 648 *~ 0.707;
#X obj -739 679 *~ 0.707;
#X obj -661 669 throw~ \$1-LeftOut;
#X obj -739 699 throw~ \$1-RightOut;
#X obj -1072 396 sig~;
#X obj -1072 374 * 0.01;
#X obj -929 528 *~;
#X obj -713 353 a.scaler \$1 delread;
#X obj -888 47 change;
#X obj -899 552 +~ 0;
#X obj -882 112 pipe 1000;
#X obj -822 145 switch~;
#X obj -861 87 moses 1;
#X obj -888 67 t f f;
#X obj -959 331 crandtex 2 0.01;
#X obj -473 328 randt 0.01;
#X obj -739 622 *~ 0;
#X obj -922 182 crandtex 2 0.01;
#X obj -1072 330 crandtex 2 0.01;
#X obj -828 331 crandtex 2 0.01;
#X obj -713 331 crandtex 2 0.01;
#X obj -588 330 crandtex 2 0.01;
#X obj -828 353 a.scaler \$1 pitch;
#X obj -588 352 a.scaler \$1 amp;
#X obj -922 204 a.scaler \$1 iot;
#X obj -959 353 a.scaler \$1 grainDur;
#X obj -1072 352 a.scaler \$1 env;
#X connect 0 0 1 0;
#X connect 1 0 16 0;
#X connect 1 0 34 0;
#X connect 2 0 44 0;
#X connect 3 0 4 0;
#X connect 4 0 11 0;
#X connect 5 0 29 1;
#X connect 6 0 7 0;
#X connect 6 1 45 0;
#X connect 7 0 24 0;
#X connect 8 0 9 0;
#X connect 9 0 14 0;
#X connect 10 0 34 1;
#X connect 11 0 28 1;
#X connect 12 0 10 1;
#X connect 13 0 12 0;
#X connect 14 0 13 0;
#X connect 14 1 12 1;
#X connect 15 0 42 0;
#X connect 15 1 46 0;
#X connect 15 2 47 0;
#X connect 15 3 48 0;
#X connect 15 4 49 0;
#X connect 15 5 43 0;
#X connect 16 0 17 1;
#X connect 16 0 17 0;
#X connect 17 0 18 1;
#X connect 17 0 18 0;
#X connect 18 0 2 0;
#X connect 19 0 21 0;
#X connect 20 0 2 1;
#X connect 21 0 36 0;
#X connect 22 0 44 1;
#X connect 23 0 42 1;
#X connect 23 0 45 1;
#X connect 23 0 46 1;
#X connect 23 0 47 1;
#X connect 23 0 48 1;
#X connect 23 0 49 1;
#X connect 24 0 15 0;
#X connect 24 0 45 0;
#X connect 25 0 24 0;
#X connect 28 0 30 0;
#X connect 29 0 31 0;
#X connect 32 0 16 1;
#X connect 33 0 32 0;
#X connect 34 0 37 0;
#X connect 35 0 37 1;
#X connect 36 0 41 0;
#X connect 37 0 20 0;
#X connect 38 0 39 0;
#X connect 40 0 38 0;
#X connect 40 1 39 0;
#X connect 41 0 6 0;
#X connect 41 1 40 0;
#X connect 42 0 53 0;
#X connect 43 0 3 0;
#X connect 43 0 5 0;
#X connect 44 0 28 0;
#X connect 44 0 29 0;
#X connect 45 0 52 0;
#X connect 46 0 54 0;
#X connect 47 0 50 0;
#X connect 48 0 35 0;
#X connect 49 0 51 0;
#X connect 50 0 8 0;
#X connect 51 0 22 0;
#X connect 52 0 26 0;
#X connect 53 0 0 0;
#X connect 53 0 10 0;
#X connect 54 0 33 0;
