#N canvas 244 22 595 726 10;
#X text -12 0 TRIANGULAR DISTRIBUTION;
#X obj 54 370 +;
#X obj 69 348 random 1000;
#X obj 172 151 loadbang;
#X obj 162 196 sel 0;
#X obj 132 314 + 1;
#X obj 194 701 outlet;
#X msg 156 242 1 \$1;
#X obj 156 263 /;
#X obj 155 583 * 0.001;
#X obj 162 129 inlet;
#X obj 189 217 moses 1;
#X obj 228 261 print ERROR;
#X obj -11 338 random 1000;
#X obj 42 129 inlet;
#X obj 42 279 t b b;
#X text -12 66 Taken from Dodge and Jerse: "Computer Music \, Synthesis
\, Composition and Performance.";
#X text -12 101 angelfaraldo@gmail.com \, 2014;
#X text -12 20 Random number generator in range -1 to 1;
#X obj 49 257 r \$0-l;
#X obj 132 292 * 2;
#X obj 150 538 * 0.5;
#X obj 93 412 t f f;
#X obj 120 434 mod 2;
#X obj 120 455 - 1;
#X obj 120 476 abs;
#X obj 105 496 *;
#X obj 105 538 s \$0-l;
#X obj 105 517 select 0;
#X obj 54 391 moses 1;
#X obj 155 606 moses 0;
#X obj 155 629 abs;
#X obj 155 674 * -1;
#X obj 93 130 inlet;
#X obj 93 196 s \$0-pow;
#X obj 221 606 r \$0-pow;
#X obj 155 651 pow 2;
#X obj 194 651 pow 2;
#X text -12 50 <arg2/3nd inlet>: random step-size. Default = 0.001
;
#X text -12 35 <arg1/2nd inlet>: power. Default = 2;
#X obj 93 174 \$1;
#X obj 162 175 \$2;
#X obj 153 561 - 1000;
#X msg 228 239 a.crandtex step-size must be in range (0 < value <=
0.5);
#X connect 1 0 29 0;
#X connect 2 0 1 1;
#X connect 3 0 41 0;
#X connect 4 1 11 0;
#X connect 5 0 13 1;
#X connect 5 0 2 1;
#X connect 7 0 8 0;
#X connect 8 0 20 0;
#X connect 8 0 42 1;
#X connect 9 0 30 0;
#X connect 10 0 41 0;
#X connect 11 0 7 0;
#X connect 11 0 9 1;
#X connect 11 1 43 0;
#X connect 13 0 1 0;
#X connect 14 0 15 0;
#X connect 15 0 13 0;
#X connect 15 1 2 0;
#X connect 19 0 15 0;
#X connect 20 0 5 0;
#X connect 21 0 42 0;
#X connect 22 0 26 0;
#X connect 22 1 23 0;
#X connect 23 0 24 0;
#X connect 24 0 25 0;
#X connect 25 0 26 1;
#X connect 26 0 28 0;
#X connect 28 0 27 0;
#X connect 28 1 21 0;
#X connect 29 0 21 0;
#X connect 29 1 22 0;
#X connect 30 0 31 0;
#X connect 30 1 37 0;
#X connect 31 0 36 0;
#X connect 32 0 6 0;
#X connect 33 0 40 0;
#X connect 35 0 36 1;
#X connect 35 0 37 1;
#X connect 36 0 32 0;
#X connect 37 0 6 0;
#X connect 40 0 34 0;
#X connect 41 0 4 0;
#X connect 42 0 9 0;
#X connect 43 0 12 0;
