#N canvas 198 23 1178 847 10;
#X msg 385 390 \$1 \, \$2 \$3;
#X obj 440 203 t f f;
#X obj 413 325 +;
#X obj 386 282 t f f;
#X obj 347 232 *;
#X obj 401 240 *;
#X obj 385 325 f;
#X obj 385 470 *~;
#X obj 11 640 delay;
#X obj 401 261 t b f;
#X obj 37 572 delay;
#X obj 258 443 line~;
#X obj 258 401 * 0.1;
#X obj 370 497 *~;
#X obj 31 229 >= \$1;
#X obj 11 319 sel 0 1;
#X msg 11 362 stop;
#X obj 11 297 &&;
#X obj 31 275 t b f;
#X obj 323 432 switch~;
#X obj 257 329 moses 1;
#X obj 296 352 t f f;
#X obj 257 351 t f f;
#X obj 296 373 pipe 5;
#X msg 258 422 \$1 10;
#X obj 297 401 pipe 15;
#X obj 370 586 *~ 0;
#X obj 399 561 dbtorms;
#X obj 428 304 *;
#X obj 11 53 r \$2-start;
#X obj 19 73 r \$2-active;
#X obj 63 320 r \$2-loop-\$1;
#X obj 38 617 r \$2-grainSize-\$1;
#X obj 11 662 s \$2-loop-\$1;
#X obj 479 205 r \$2-bang1-\$1;
#X obj 440 118 r \$2-bang2-\$1;
#X obj 448 182 s \$2-grainSize-\$1;
#X obj 388 161 r \$2-SR;
#X obj 347 54 r \$2-bang3-\$1;
#X obj 385 347 pack 0 0 0;
#X obj 385 434 tabread4~ \$2-soundfile;
#X obj 162 384 s \$2-bang1-\$1;
#X obj 148 404 s \$2-bang2-\$1;
#X obj 134 426 s \$2-bang3-\$1;
#X obj 120 446 s \$2-bang4-\$1;
#X obj 106 466 s \$2-bang5-\$1;
#X obj 92 487 s \$2-bang6-\$1;
#X obj 19 118 pipe 500;
#X obj 31 163 ==;
#X obj 47 141 t b f;
#X obj 31 185 sel 1;
#X obj 31 208 f;
#X obj 19 94 t f f f;
#X obj 31 250 change;
#X obj 347 76 triangel readOffset \$2;
#X obj 347 159 * 1;
#X obj 362 138 r \$2-sizeMs;
#X obj 347 117 * 0.01;
#X obj 347 97 clip 0 100;
#X obj 388 182 * 0.001;
#X obj 440 138 triangel grainSize \$2;
#X obj 399 518 triangel volume \$2;
#X obj 64 529 triangel silence \$2;
#X obj 440 160 clip 1 1000;
#X obj 399 539 clip 0 112;
#X obj 385 412 line~;
#X obj 64 551 clip 0 1000;
#X obj 479 291 clip 0.25 4;
#X obj 44 595 s \$2-del-\$1;
#X obj 310 282 r \$2-del-\$1;
#X obj 51 363 t b b b b b b b b b;
#X obj 78 507 s \$2-bang7-\$1;
#X obj 1027 484 r \$2-bang7-\$1;
#X obj 399 497 r \$2-bang6-\$1;
#X obj 385 367 t l l;
#X obj 528 413 vline~;
#X obj 632 252 s \$0-peak;
#X obj 615 275 s \$0-calculate;
#X obj 649 206 s \$0-attack;
#X obj 666 161 s \$0-release;
#N canvas 88 137 388 457 envelope 0;
#X obj 36 81 until;
#X obj 36 178 moses;
#X obj 36 107 f 0;
#X obj 67 107 + 1;
#X obj 147 155 + 1;
#X msg 81 79 0;
#X obj 36 58 t f bang;
#X obj 51 265 /;
#X msg 51 245 1 \$1;
#X obj 36 285 *;
#X obj 119 238 -;
#X msg 119 217 1 \$1;
#X msg 182 217 1 \$1;
#X obj 182 237 -;
#X obj 119 259 /;
#X obj 36 132 trigger float float;
#X obj 36 154 * 0.01;
#X msg 36 36 100;
#X obj 36 15 r \$0-calculate;
#X obj 182 165 r \$0-peak;
#X obj 177 303 r \$0-attack;
#X obj 260 261 r \$0-release;
#X obj 36 349 tabwrite \$0-envelope;
#X obj 37 371 table \$0-envelope 103;
#X obj 119 282 mapping/circular_sigmoid;
#X obj 36 325 mapping/circular_sigmoid;
#X connect 0 0 2 0;
#X connect 1 0 9 0;
#X connect 1 1 11 0;
#X connect 2 0 3 0;
#X connect 2 0 15 0;
#X connect 3 0 2 1;
#X connect 4 0 22 1;
#X connect 5 0 2 1;
#X connect 6 0 0 0;
#X connect 6 1 5 0;
#X connect 7 0 9 1;
#X connect 8 0 7 0;
#X connect 9 0 25 0;
#X connect 10 0 14 0;
#X connect 11 0 10 0;
#X connect 12 0 13 0;
#X connect 13 0 14 1;
#X connect 14 0 24 0;
#X connect 15 0 16 0;
#X connect 15 1 4 0;
#X connect 16 0 1 0;
#X connect 17 0 6 0;
#X connect 18 0 17 0;
#X connect 19 0 12 0;
#X connect 19 0 1 1;
#X connect 19 0 8 0;
#X connect 20 0 25 1;
#X connect 21 0 24 1;
#X connect 24 0 22 0;
#X connect 25 0 22 0;
#X restore 615 296 pd envelope;
#X obj 528 435 tabread4~ \$0-envelope;
#X obj 632 229 triangel peak \$2;
#X obj 649 183 triangel attack \$2;
#X obj 666 139 triangel release \$2;
#X obj 615 119 t b b b b;
#X msg 528 392 1 \, 101 \$3;
#X obj 615 53 r \$2-bang6-\$1;
#X obj 479 227 triangel tuning \$2;
#X obj 479 270 pow;
#X msg 479 248 1.00058 \$1;
#X obj 674 483 clip~ 30 20000;
#X obj 768 546 clip~ 0 100;
#X obj 768 568 *~ 0.04;
#X obj 768 588 -~ 1;
#X obj 747 608 pow~;
#X obj 747 505 sig~ 10;
#X obj 636 76 r \$2-clock;
#X obj 615 98 uanz;
#X obj 674 462 triangel~ filterFreq \$2;
#X obj 768 526 triangel~ filterQ \$2;
#X obj 600 628 iemlib/vcf_rbp2~ 100 0.01;
#X obj 1026 530 random 4;
#X obj 735 742 *~;
#X obj 765 742 *~;
#X obj 795 742 *~;
#X obj 825 741 *~;
#X obj 1006 562 == 0;
#X obj 1037 562 == 1;
#X obj 1066 562 == 2;
#X obj 1096 562 == 3;
#X obj 984 620 line~;
#X msg 984 598 \$1 5;
#X obj 1024 620 line~;
#X msg 1024 598 \$1 5;
#X obj 1064 620 line~;
#X msg 1064 598 \$1 5;
#X obj 1104 620 line~;
#X msg 1104 598 \$1 5;
#X obj 713 796 throw~ \$2-out1;
#X obj 765 772 throw~ \$2-out2;
#X obj 860 773 throw~ \$2-out4;
#X obj 809 796 throw~ \$2-out3;
#X connect 0 0 65 0;
#X connect 1 0 5 0;
#X connect 1 1 39 2;
#X connect 2 0 39 1;
#X connect 3 0 6 1;
#X connect 3 1 2 0;
#X connect 4 0 3 0;
#X connect 5 0 9 0;
#X connect 6 0 39 0;
#X connect 7 0 13 1;
#X connect 8 0 33 0;
#X connect 9 0 3 0;
#X connect 9 1 28 0;
#X connect 10 0 8 0;
#X connect 10 0 68 0;
#X connect 11 0 13 0;
#X connect 12 0 24 0;
#X connect 13 0 26 0;
#X connect 14 0 53 0;
#X connect 15 0 16 0;
#X connect 15 1 70 0;
#X connect 16 0 8 0;
#X connect 16 0 10 0;
#X connect 17 0 15 0;
#X connect 18 0 17 0;
#X connect 18 1 17 1;
#X connect 18 1 20 0;
#X connect 20 0 22 0;
#X connect 20 1 21 0;
#X connect 21 0 23 0;
#X connect 21 1 19 0;
#X connect 22 0 25 0;
#X connect 22 1 12 0;
#X connect 23 0 12 0;
#X connect 24 0 11 0;
#X connect 25 0 19 0;
#X connect 26 0 101 0;
#X connect 27 0 26 1;
#X connect 28 0 2 1;
#X connect 29 0 17 0;
#X connect 30 0 52 0;
#X connect 31 0 70 0;
#X connect 32 0 8 1;
#X connect 34 0 88 0;
#X connect 35 0 60 0;
#X connect 37 0 59 0;
#X connect 38 0 54 0;
#X connect 39 0 74 0;
#X connect 40 0 7 0;
#X connect 47 0 48 0;
#X connect 48 0 50 0;
#X connect 49 0 48 0;
#X connect 49 1 48 1;
#X connect 50 0 51 0;
#X connect 51 0 14 0;
#X connect 52 0 47 0;
#X connect 52 1 49 0;
#X connect 52 2 51 1;
#X connect 53 0 18 0;
#X connect 54 0 58 0;
#X connect 55 0 4 0;
#X connect 56 0 55 1;
#X connect 57 0 55 0;
#X connect 58 0 57 0;
#X connect 59 0 4 1;
#X connect 59 0 5 1;
#X connect 60 0 63 0;
#X connect 61 0 64 0;
#X connect 62 0 66 0;
#X connect 63 0 36 0;
#X connect 63 0 1 0;
#X connect 64 0 27 0;
#X connect 65 0 40 0;
#X connect 66 0 10 1;
#X connect 67 0 28 1;
#X connect 69 0 6 0;
#X connect 70 0 10 0;
#X connect 70 1 62 0;
#X connect 70 2 71 0;
#X connect 70 3 46 0;
#X connect 70 4 45 0;
#X connect 70 5 44 0;
#X connect 70 6 43 0;
#X connect 70 7 42 0;
#X connect 70 8 41 0;
#X connect 72 0 102 0;
#X connect 73 0 61 0;
#X connect 74 0 0 0;
#X connect 74 1 86 0;
#X connect 75 0 81 0;
#X connect 81 0 7 1;
#X connect 82 0 76 0;
#X connect 83 0 78 0;
#X connect 84 0 79 0;
#X connect 85 0 77 0;
#X connect 85 1 82 0;
#X connect 85 2 83 0;
#X connect 85 3 84 0;
#X connect 86 0 75 0;
#X connect 87 0 98 0;
#X connect 88 0 90 0;
#X connect 89 0 67 0;
#X connect 90 0 89 0;
#X connect 91 0 101 1;
#X connect 92 0 93 0;
#X connect 93 0 94 0;
#X connect 94 0 95 1;
#X connect 95 0 101 2;
#X connect 96 0 95 0;
#X connect 97 0 98 1;
#X connect 98 0 85 0;
#X connect 99 0 91 0;
#X connect 100 0 92 0;
#X connect 101 0 103 0;
#X connect 101 0 104 0;
#X connect 101 0 105 0;
#X connect 101 0 106 0;
#X connect 102 0 107 0;
#X connect 102 0 108 0;
#X connect 102 0 109 0;
#X connect 102 0 110 0;
#X connect 103 0 119 0;
#X connect 104 0 120 0;
#X connect 105 0 122 0;
#X connect 106 0 121 0;
#X connect 107 0 112 0;
#X connect 108 0 114 0;
#X connect 109 0 116 0;
#X connect 110 0 118 0;
#X connect 111 0 103 1;
#X connect 112 0 111 0;
#X connect 113 0 104 1;
#X connect 114 0 113 0;
#X connect 115 0 105 1;
#X connect 116 0 115 0;
#X connect 117 0 106 1;
#X connect 118 0 117 0;
