#N canvas 1004 23 552 312 10;
#X obj 44 22 ctlin;
#X obj 83 61 f;
#X floatatom 83 105 5 0 0 0 - - -, f 5;
#X obj 83 175 outlet;
#X obj 91 152 loadbang;
#X obj 120 22 inlet;
#X obj 57 130 ==;
#X obj 24 153 spigot;
#X obj 27 274 outlet;
#X text 168 23 midilearn;
#X text 167 37 learns midi incoming control number when receives a
bang;
#X obj 83 22 inlet;
#X obj 27 252 spigot;
#X obj 81 207 r \$1-midiChannel;
#X obj 60 230 == 1;
#X obj 83 129 cyclone/prepend set;
#X connect 0 0 7 0;
#X connect 0 1 1 1;
#X connect 0 1 6 0;
#X connect 0 2 14 0;
#X connect 1 0 2 0;
#X connect 2 0 6 1;
#X connect 2 0 15 0;
#X connect 4 0 3 0;
#X connect 5 0 2 0;
#X connect 6 0 7 1;
#X connect 7 0 12 0;
#X connect 11 0 1 0;
#X connect 12 0 8 0;
#X connect 13 0 14 1;
#X connect 14 0 12 1;
#X connect 15 0 3 0;
