#N canvas 827 239 527 327 12;
#X obj 45 145 - 1;
#X obj 45 106 unpack;
#X obj 45 67 t l l, f 24;
#X obj 45 184 >= 0;
#X obj 67 257 list;
#X obj 110 257 list;
#X msg 166 212 \$1 \$2;
#X msg 110 212 \$2 \$1;
#X obj 45 35 inlet;
#X obj 67 296 unpack;
#X obj 122 330 outlet;
#X obj 67 330 outlet;
#X obj 45 212 sel 1 0;
#X connect 0 0 3 0;
#X connect 1 0 0 0;
#X connect 1 1 0 1;
#X connect 2 0 1 0;
#X connect 2 1 6 0;
#X connect 2 1 7 0;
#X connect 3 0 12 0;
#X connect 4 0 9 0;
#X connect 5 0 9 0;
#X connect 6 0 5 1;
#X connect 7 0 4 1;
#X connect 8 0 2 0;
#X connect 9 0 11 0;
#X connect 9 1 10 0;
#X connect 12 0 4 0;
#X connect 12 1 5 0;
