#N canvas 112 22 503 468 10;
#N canvas 599 22 160 752 instances 1;
#X obj 25 25 sine-grain 0;
#X obj 25 50 sine-grain 1;
#X obj 25 75 sine-grain 2;
#X obj 25 100 sine-grain 3;
#X obj 25 125 sine-grain 4;
#X obj 25 150 sine-grain 5;
#X obj 25 175 sine-grain 6;
#X obj 25 200 sine-grain 7;
#X obj 25 225 sine-grain 8;
#X obj 25 250 sine-grain 9;
#X obj 25 275 sine-grain 10;
#X obj 25 300 sine-grain 11;
#X obj 25 325 sine-grain 12;
#X obj 25 350 sine-grain 13;
#X obj 25 375 sine-grain 14;
#X obj 25 400 sine-grain 15;
#X obj 25 425 sine-grain 16;
#X obj 25 450 sine-grain 17;
#X obj 25 475 sine-grain 18;
#X obj 25 500 sine-grain 19;
#X obj 25 525 sine-grain 20;
#X obj 25 550 sine-grain 21;
#X obj 25 575 sine-grain 22;
#X obj 25 600 sine-grain 23;
#X obj 25 625 sine-grain 24;
#X obj 25 650 sine-grain 25;
#X obj 25 675 sine-grain 26;
#X obj 25 700 sine-grain 27;
#X obj 25 725 sine-grain 28;
#X obj 25 750 sine-grain 29;
#X obj 25 775 sine-grain 30;
#X obj 25 800 sine-grain 31;
#X obj 25 825 sine-grain 32;
#X obj 25 850 sine-grain 33;
#X obj 25 875 sine-grain 34;
#X obj 25 900 sine-grain 35;
#X obj 25 925 sine-grain 36;
#X obj 25 950 sine-grain 37;
#X obj 25 975 sine-grain 38;
#X obj 25 1000 sine-grain 39;
#X obj 25 1025 sine-grain 40;
#X obj 25 1050 sine-grain 41;
#X obj 25 1075 sine-grain 42;
#X obj 25 1100 sine-grain 43;
#X obj 25 1125 sine-grain 44;
#X obj 25 1150 sine-grain 45;
#X obj 25 1175 sine-grain 46;
#X obj 25 1200 sine-grain 47;
#X obj 25 1225 sine-grain 48;
#X obj 25 1250 sine-grain 49;
#X obj 25 1275 sine-grain 50;
#X obj 25 1300 sine-grain 51;
#X obj 25 1325 sine-grain 52;
#X obj 25 1350 sine-grain 53;
#X obj 25 1375 sine-grain 54;
#X obj 25 1400 sine-grain 55;
#X obj 25 1425 sine-grain 56;
#X obj 25 1450 sine-grain 57;
#X obj 25 1475 sine-grain 58;
#X obj 25 1500 sine-grain 59;
#X obj 25 1525 sine-grain 60;
#X obj 25 1550 sine-grain 61;
#X obj 25 1575 sine-grain 62;
#X obj 25 1600 sine-grain 63;
#X obj 25 1625 sine-grain 64;
#X obj 25 1650 sine-grain 65;
#X obj 25 1675 sine-grain 66;
#X obj 25 1700 sine-grain 67;
#X obj 25 1725 sine-grain 68;
#X obj 25 1750 sine-grain 69;
#X obj 25 1775 sine-grain 70;
#X obj 25 1800 sine-grain 71;
#X obj 25 1825 sine-grain 72;
#X obj 25 1850 sine-grain 73;
#X obj 25 1875 sine-grain 74;
#X obj 25 1900 sine-grain 75;
#X obj 25 1925 sine-grain 76;
#X obj 25 1950 sine-grain 77;
#X obj 25 1975 sine-grain 78;
#X obj 25 2000 sine-grain 79;
#X obj 25 2025 sine-grain 80;
#X obj 25 2050 sine-grain 81;
#X obj 25 2075 sine-grain 82;
#X obj 25 2100 sine-grain 83;
#X obj 25 2125 sine-grain 84;
#X obj 25 2150 sine-grain 85;
#X obj 25 2175 sine-grain 86;
#X obj 25 2200 sine-grain 87;
#X obj 25 2225 sine-grain 88;
#X obj 25 2250 sine-grain 89;
#X obj 25 2275 sine-grain 90;
#X obj 25 2300 sine-grain 91;
#X obj 25 2325 sine-grain 92;
#X obj 25 2350 sine-grain 93;
#X obj 25 2375 sine-grain 94;
#X obj 25 2400 sine-grain 95;
#X obj 25 2425 sine-grain 96;
#X obj 25 2450 sine-grain 97;
#X obj 25 2475 sine-grain 98;
#X obj 25 2500 sine-grain 99;
#X restore 144 452 pd instances;
#X obj 144 422 s pd-instances;
#X obj 18 129 until;
#X obj 18 170 f 0;
#X obj 76 170 + 1;
#X msg 60 129 0;
#X msg 144 128 clear;
#X obj 18 202 t f f, f 8;
#X obj 37 89 t f b b;
#X obj 46 235 * 25;
#X obj 46 259 + 25;
#X obj 37 27 inlet;
#X text 214 13 ARGUMENTS:;
#X text 214 58 2) number of instances;
#X text 214 38 1) name of the object;
#X text 244 451 (new objects are placed inside the subpatch);
#X text 244 480 angel faraldo 2011;
#X obj 79 329 symbol \$1;
#X obj 79 295 loadbang;
#X obj 18 357 pack f f s, f 14;
#X msg 18 383 obj 25 \$2 \$3 \$1;
#X obj 37 61 f 100;
#X connect 2 0 3 0;
#X connect 3 0 4 0;
#X connect 3 0 7 0;
#X connect 4 0 3 1;
#X connect 5 0 3 1 32.................K....L9++++B....i++++WA....;
#X connect 6 0 1 0;
#X connect 7 0 19 0;
#X connect 7 1 9 0;
#X connect 8 0 2 0;
#X connect 8 1 5 0;
#X connect 8 2 6 0 32.................J....3D...fB....NA...LA....;
#X connect 9 0 10 0;
#X connect 10 0 19 1;
#X connect 11 0 21 0;
#X connect 17 0 19 2;
#X connect 18 0 17 0;
#X connect 19 0 20 0;
#X connect 20 0 1 0;
#X connect 21 0 8 0;
