#N canvas 112 22 503 468 10;
#N canvas 599 22 160 752 instances 1;
#X obj 25 25 sine-grain 0;
#X obj 25 50 sine-grain 1;
#X obj 25 75 sine-grain 2;
#X obj 25 100 sine-grain 3;
#X obj 25 125 sine-grain 4;
#X obj 25 150 sine-grain 5;
#X obj 25 175 sine-grain 6;
#X obj 25 200 sine-grain 7;
#X obj 25 225 sine-grain 8;
#X obj 25 250 sine-grain 9;
#X obj 25 275 sine-grain 10;
#X obj 25 300 sine-grain 11;
#X obj 25 325 sine-grain 12;
#X obj 25 350 sine-grain 13;
#X obj 25 375 sine-grain 14;
#X obj 25 400 sine-grain 15;
#X obj 25 425 sine-grain 16;
#X obj 25 450 sine-grain 17;
#X obj 25 475 sine-grain 18;
#X obj 25 500 sine-grain 19;
#X obj 25 525 sine-grain 20;
#X obj 25 550 sine-grain 21;
#X obj 25 575 sine-grain 22;
#X obj 25 600 sine-grain 23;
#X obj 25 625 sine-grain 24;
#X obj 25 650 sine-grain 25;
#X obj 25 675 sine-grain 26;
#X obj 25 700 sine-grain 27;
#X obj 25 725 sine-grain 28;
#X obj 25 750 sine-grain 29;
#X obj 25 775 sine-grain 30;
#X obj 25 800 sine-grain 31;
#X restore 144 452 pd instances;
#X obj 144 422 s pd-instances;
#X obj 18 129 until;
#X obj 18 170 f 0;
#X obj 76 170 + 1;
#X msg 60 129 0;
#X msg 144 128 clear;
#X obj 18 202 t f f, f 8;
#X obj 37 89 t f b b;
#X obj 46 235 * 25;
#X obj 46 259 + 25;
#X obj 37 27 inlet;
#X obj 37 61 f \$2;
#X obj 76 27 loadbang;
#X text 214 13 ARGUMENTS:;
#X text 214 58 2) number of instances;
#X text 214 38 1) name of the object;
#X text 244 451 (new objects are placed inside the subpatch);
#X text 244 480 angel faraldo 2011;
#X obj 79 329 symbol \$1;
#X obj 79 295 loadbang;
#X obj 18 357 pack f f s, f 14;
#X msg 18 383 obj 25 \$2 \$3 \$1;
#X connect 2 0 3 0;
#X connect 3 0 4 0;
#X connect 3 0 7 0;
#X connect 4 0 3 1;
#X connect 5 0 3 1 32.................K....L9++++B....i++++WA....;
#X connect 6 0 1 0;
#X connect 7 0 21 0;
#X connect 7 1 9 0;
#X connect 8 0 2 0;
#X connect 8 1 5 0;
#X connect 8 2 6 0 32.................J....3D...fB....NA...LA....;
#X connect 9 0 10 0;
#X connect 10 0 21 1;
#X connect 11 0 12 0;
#X connect 12 0 8 0;
#X connect 13 0 12 0;
#X connect 19 0 21 2;
#X connect 20 0 19 0;
#X connect 21 0 22 0;
#X connect 22 0 1 0;
