#N canvas 0 22 212 279 10;
#X obj 16 162 -;
#X obj 16 130 minmax;
#X obj 16 109 pack 0 0;
#X obj 34 88 t b f;
#X obj 16 183 abs;
#X obj 16 44 r \$1.max;
#X obj 34 66 r \$1.min;
#X obj 16 204 outlet;
#X obj 58 204 outlet;
#X connect 0 0 4 0;
#X connect 1 0 0 0;
#X connect 1 0 8 0;
#X connect 1 1 0 1;
#X connect 2 0 1 0;
#X connect 3 0 2 0;
#X connect 3 1 2 1;
#X connect 4 0 7 0;
#X connect 5 0 2 0;
#X connect 6 0 3 0;
