#N canvas 1174 23 212 279 10;
#X obj 75 224 -;
#X obj 21 124 pack 0 0;
#X obj 51 90 t b f;
#X obj 75 252 abs;
#X obj 21 19 r \$1.max;
#X obj 51 48 r \$1.min;
#X obj 75 281 outlet;
#X obj 21 281 outlet;
#X obj 21 152 zexy/minmax;
#X obj 21 185 t f f;
#X connect 0 0 3 0;
#X connect 1 0 8 0;
#X connect 2 0 1 0;
#X connect 2 1 1 1;
#X connect 3 0 6 0;
#X connect 4 0 1 0;
#X connect 5 0 2 0;
#X connect 8 0 9 0;
#X connect 8 1 0 1;
#X connect 9 0 7 0;
#X connect 9 1 0 0;
