#N canvas 1174 23 212 279 10;
#X obj 21 225 -, f 9;
#X obj 21 124 pack 0 0;
#X obj 51 79 t b f;
#X obj 21 253 abs;
#X obj 21 19 r \$1.max;
#X obj 51 48 r \$1.min;
#X obj 21 311 outlet;
#X obj 76 311 outlet;
#X obj 21 185 t f f;
#X obj 21 152 minmaxsort;
#X text 21 340 range;
#X text 76 340 offset;
#X obj 21 285 max 1;
#X connect 0 0 3 0;
#X connect 1 0 9 0;
#X connect 2 0 1 0;
#X connect 2 1 1 1;
#X connect 3 0 12 0;
#X connect 4 0 1 0;
#X connect 5 0 2 0;
#X connect 8 0 0 0;
#X connect 8 1 7 0;
#X connect 9 0 8 0;
#X connect 9 1 0 1;
#X connect 12 0 6 0;
