#N canvas 1298 70 476 918 10;
#X obj 14 11 r interruptor;
#X obj 14 38 sel 0 1;
#X msg 14 181 stop;
#X obj 219 37 rango iot;
#X obj 153 100 random;
#X obj 153 151 +, f 15;
#X obj 219 64 / 5;
#X obj 153 126 * 5;
#X obj 260 151 mod 5;
#X obj 162 187 -;
#X obj 14 224 delay;
#X obj 186 287 random;
#X obj 186 314 +, f 22;
#X obj 160 372 / 100;
#X obj 160 343 *, f 8;
#X obj 97 279 s dur.\$1;
#X obj 186 258 r dur.\$1;
#X obj 63 330 s iot.\$1;
#X obj 14 406 s speaker.\$1;
#X obj 249 991 throw~ grain_L;
#X obj 379 991 throw~ grain_R;
#X obj 414 819 random 2;
#X obj 414 930 vline~;
#X obj 379 964 *~;
#X obj 312 930 vline~;
#X obj 249 958 *~;
#X obj 414 851 - 1;
#X obj 414 877 abs;
#X obj 414 793 r speaker.\$1;
#X obj 31 538 random;
#X obj 31 598 +, f 17;
#X obj 31 625 mtof;
#X obj 32 567 / 8;
#X obj 64 509 * 8;
#X obj 31 454 r freq.\$1;
#X obj 30 381 s freq.\$1;
#X obj 138 733 *~;
#X obj 153 37 r iot.\$1;
#X obj 161 596 vline~;
#X obj 125 666 *~;
#X obj 148 700 *~;
#X obj 80 304 s env.\$1;
#X obj 338 287 random;
#X obj 338 314 +, f 13;
#X obj 338 251 r env.\$1;
#X obj 207 412 *;
#X obj 206 441 / 100;
#X obj 161 493 -;
#X obj 161 470 swap;
#X obj 161 514 abs;
#X obj 162 541 pack 0 0;
#X msg 161 568 0 \, 1 \$2 \, 0 \$1 \$2;
#X msg 414 904 \$1 1;
#X msg 312 904 \$1 1;
#X obj 222 657 random;
#X obj 222 689 +, f 17;
#X obj 222 601 r dyn.\$1;
#X obj 222 718 dbtorms;
#X obj 212 815 *~;
#X obj 14 251 t b b b b b b;
#X obj 47 356 s dyn.\$1;
#X obj 222 745 sig~;
#X obj 379 580 route \$1;
#X obj 413 700 switch~;
#X obj 249 866 *~;
#X msg 328 774 \$1 100;
#X obj 328 803 line~;
#X obj 413 658 pipe 100;
#X obj 379 549 r voice.int;
#X obj 379 614 sel 1;
#X msg 381 660 1;
#X obj 379 733 pipe 100;
#X obj 251 258 rango dur;
#X obj 64 483 rango freq;
#X obj 256 629 rango dyn;
#X obj 31 651 osc~;
#X obj 414 251 rango env;
#X floatatom 222 356 5 0 0 0 - - - 12;
#X floatatom 365 345 5 0 0 0 - - - 12;
#X connect 0 0 1 0;
#X connect 1 0 2 0;
#X connect 1 1 4 0 32.................h....zG...fH....8A...nB....;
#X connect 2 0 10 0;
#X connect 3 0 6 0;
#X connect 3 1 8 0;
#X connect 3 1 5 1;
#X connect 4 0 7 0;
#X connect 5 0 9 0;
#X connect 6 0 4 1 32.................H....D9+++OB....g++++CA....;
#X connect 7 0 5 0;
#X connect 8 0 9 1 32.................H....n5+++OB....p9+++CA....;
#X connect 9 0 14 0;
#X connect 9 0 10 0 32.................I....z1+++eB....s8+++GA....;
#X connect 10 0 59 0;
#X connect 11 0 12 0;
#X connect 12 0 14 1;
#X connect 12 0 77 0;
#X connect 13 0 48 0;
#X connect 13 0 45 0 32.................J....7B...fB....u....PA....;
#X connect 14 0 13 0;
#X connect 16 0 11 0;
#X connect 21 0 26 0;
#X connect 21 0 53 0 32.................G....r4++++A....a9+++GD....;
#X connect 22 0 23 1;
#X connect 23 0 20 0;
#X connect 24 0 25 1;
#X connect 25 0 19 0;
#X connect 26 0 27 0;
#X connect 27 0 52 0;
#X connect 28 0 21 0;
#X connect 29 0 32 0;
#X connect 30 0 31 0;
#X connect 31 0 75 0;
#X connect 32 0 30 0;
#X connect 33 0 29 1;
#X connect 34 0 29 0;
#X connect 36 0 58 0;
#X connect 37 0 4 0;
#X connect 38 0 39 1;
#X connect 38 0 39 0;
#X connect 38 0 40 1;
#X connect 39 0 40 0;
#X connect 40 0 36 1;
#X connect 42 0 43 0;
#X connect 43 0 45 1 32..................A...j3+++OP....I9+++6D....;
#X connect 43 0 78 0;
#X connect 44 0 42 0;
#X connect 45 0 46 0;
#X connect 46 0 48 1;
#X connect 46 0 50 1;
#X connect 47 0 49 0;
#X connect 48 0 47 0;
#X connect 48 1 47 1;
#X connect 49 0 50 0;
#X connect 50 0 51 0;
#X connect 51 0 38 0;
#X connect 52 0 22 0;
#X connect 53 0 24 0;
#X connect 54 0 55 0;
#X connect 55 0 57 0;
#X connect 56 0 54 0;
#X connect 57 0 61 0;
#X connect 58 0 64 0;
#X connect 59 0 18 0;
#X connect 59 1 35 0;
#X connect 59 2 60 0;
#X connect 59 3 17 0;
#X connect 59 4 41 0;
#X connect 59 5 15 0;
#X connect 61 0 58 1;
#X connect 62 0 69 0;
#X connect 64 0 25 0;
#X connect 64 0 23 0 32.................E....HH...PA....BB...3D....;
#X connect 65 0 66 0;
#X connect 66 0 64 1;
#X connect 67 0 63 0;
#X connect 68 0 62 0;
#X connect 69 0 70 0;
#X connect 69 1 67 0;
#X connect 69 1 65 0 32.................M....76+++eC....+9+++yH....;
#X connect 70 0 63 0 32.................J....HB...fB....h....PA....;
#X connect 70 0 71 0;
#X connect 71 0 65 0;
#X connect 72 0 11 1;
#X connect 72 1 12 1;
#X connect 73 0 33 0;
#X connect 73 1 30 1;
#X connect 74 0 54 1;
#X connect 74 1 55 1;
#X connect 75 0 36 0;
#X connect 76 0 42 1;
#X connect 76 1 43 1;
