#N canvas 273 23 730 786 10;
#X obj 9 367 +~;
#X obj 59 336 *~ 0.98, f 18;
#X msg 59 205 1000 \$1;
#X obj 59 227 /;
#X obj 159 592 *~ 1;
#X obj 284 537 dbtorms;
#X obj 266 390 t f f, f 6;
#X obj 189 323 *;
#X obj 59 174 t f f, f 14;
#X obj 59 250 delread~ d\$0 10;
#X obj 39 642 env~;
#X obj 39 670 change;
#X obj 39 697 sel 0;
#X obj 40 866 s \$0-more;
#X obj 9 15 r \$0-more;
#X obj 106 101 sel 0;
#X obj 316 127 moses 1;
#X obj 250 360 sel 0;
#X obj 607 471 sel 1 0;
#X msg 489 684 bang;
#X msg 621 740 stop;
#X obj 40 800 del 100;
#X obj 40 836 spigot 1;
#X obj 9 39 t b b b b b b, f 85;
#X obj 187 667 sqrt;
#X obj 159 697 *~ 1;
#X obj 255 718 *~ 1;
#X obj 276 684 sqrt;
#X obj 276 658 abs;
#X obj 275 630 - 1;
#X obj 531 136 >= \$1;
#X obj 203 255 f;
#X obj 237 190 t b b, f 16;
#X msg 314 221 0;
#X obj 237 219 delay 250;
#X obj 237 162 r \$2-reset;
#X obj 159 740 throw~ \$2-L;
#X obj 255 741 throw~ \$2-R;
#X obj 629 440 r \$2-start;
#X obj 276 589 rand \$2 Pan;
#X obj 531 108 r \$2-voices;
#X obj 203 101 / 100;
#X obj 203 127 clip 0.001 0.999;
#X msg 667 770 0;
#X obj 531 718 f;
#X obj 531 163 change;
#X obj 250 337 / 100;
#X obj 203 69 rmm \$2 Fdb;
#X obj 397 69 rmm \$2 Q;
#X obj 106 69 rmm \$2 Freq;
#X obj 300 69 rmm \$2 Harm;
#X obj 39 758 rmm \$2 Rest;
#X obj 652 390 switch~ 0;
#X obj 531 191 t f f;
#X obj 634 231 sel 0;
#X msg 636 276 1;
#X obj 674 313 spigot 0;
#X msg 675 346 0;
#X obj 9 397 delwrite~ d\$0 100;
#X obj 59 733 s \$0-zero;
#X obj 674 275 r \$0-zero;
#X obj 189 346 sig~;
#X obj 159 509 vcf~ 100 1;
#X obj 284 509 + 100;
#X obj 284 482 * 10;
#X obj 283 428 log;
#X obj 284 454 / 2.30259;
#X obj 9 69 unitpulse \$2;
#X connect 0 0 58 0;
#X connect 1 0 0 1;
#X connect 1 0 62 0;
#X connect 2 0 3 0;
#X connect 3 0 9 0;
#X connect 4 0 10 0;
#X connect 4 0 25 0;
#X connect 4 0 26 0;
#X connect 5 0 4 1;
#X connect 6 0 62 2;
#X connect 6 1 65 0;
#X connect 7 0 61 0;
#X connect 8 0 2 0;
#X connect 8 1 7 0;
#X connect 9 0 1 0;
#X connect 10 0 11 0;
#X connect 11 0 12 0;
#X connect 12 0 51 0;
#X connect 12 0 59 0;
#X connect 14 0 23 0;
#X connect 15 1 8 0 32.................k.....7+++eI.....++++WC....;
#X connect 16 1 7 1 32.................iB...f1++++n....n8+++CK....;
#X connect 17 1 6 0;
#X connect 18 0 19 0;
#X connect 18 1 20 0;
#X connect 18 1 43 0;
#X connect 19 0 44 0;
#X connect 19 0 21 0 48.................VA...rn+++uU....K5+++aE....P9+++VA....j+++OX....;
#X connect 20 0 21 0 32.................d....va+++uG....71+++iB....;
#X connect 21 0 22 0;
#X connect 22 0 13 0;
#X connect 23 0 67 0;
#X connect 23 1 49 0;
#X connect 23 2 47 0;
#X connect 23 3 50 0;
#X connect 23 4 48 0;
#X connect 23 5 39 0 32.................JH...Xx+++uBB...l7+++Kg....;
#X connect 24 0 25 1;
#X connect 25 0 36 0;
#X connect 26 0 37 0;
#X connect 27 0 26 1;
#X connect 28 0 27 0;
#X connect 29 0 28 0;
#X connect 30 0 45 0;
#X connect 31 0 1 1;
#X connect 32 0 34 0;
#X connect 32 1 33 0;
#X connect 33 0 1 1;
#X connect 34 0 31 0;
#X connect 35 0 32 0;
#X connect 38 0 18 0;
#X connect 39 0 29 0;
#X connect 39 0 24 0 32.................K....f5++++B....n9+++qC....;
#X connect 40 0 30 0;
#X connect 41 0 42 0;
#X connect 42 0 31 0;
#X connect 43 0 22 1 32.................l....jN+++uI....oy+++6B....;
#X connect 44 0 22 1 32.................ZA....W+++uV....v0+++KF....;
#X connect 45 0 53 0;
#X connect 46 0 17 0;
#X connect 47 0 41 0;
#X connect 48 0 46 0 32.................uC...31++++6....t8+++iO....;
#X connect 49 0 15 0;
#X connect 50 0 16 0;
#X connect 51 0 21 0;
#X connect 53 0 18 0;
#X connect 53 0 44 0;
#X connect 53 1 54 0;
#X connect 54 0 55 0;
#X connect 54 1 52 0;
#X connect 55 0 56 1;
#X connect 56 0 57 0;
#X connect 57 0 56 1;
#X connect 57 0 52 0;
#X connect 60 0 56 0;
#X connect 61 0 62 1;
#X connect 62 0 4 0;
#X connect 63 0 5 0;
#X connect 64 0 63 0;
#X connect 65 0 66 0;
#X connect 66 0 64 0;
#X connect 67 0 0 0;
