#N canvas 900 240 343 335 10;
#X obj 27 310 random 1;
#X obj 27 340 +, f 15;
#X obj 114 222 -;
#X obj 114 188 swap;
#X obj 114 253 + 1;
#X obj 27 371 outlet;
#X obj 27 42 inlet;
#X obj 157 65 t b f;
#X obj 77 124 pack 0 1, f 19;
#X obj 77 42 r \$1-M.\$2;
#X obj 157 42 r \$1-m.\$2;
#X obj 77 148 minmaxsort;
#X connect 0 0 1 0;
#X connect 1 0 5 0;
#X connect 2 0 4 0;
#X connect 3 0 2 0;
#X connect 3 1 2 1;
#X connect 4 0 0 1;
#X connect 6 0 0 0;
#X connect 7 0 8 0;
#X connect 7 1 8 1;
#X connect 8 0 11 0;
#X connect 9 0 8 0;
#X connect 10 0 7 0;
#X connect 11 0 3 0;
#X connect 11 0 1 1;
#X connect 11 1 3 1;
