#N canvas 613 372 255 221 10;
#X obj 46 13 inlet;
#X obj 46 120 switch~ 0;
#X obj 46 173 outlet~;
#X obj 46 148 tabreceive~ \$1-pulse;
#X msg 81 88 0;
#X obj 80 57 del 2;
#X msg 48 80 1;
#X connect 0 0 6 0;
#X connect 0 0 5 0;
#X connect 3 0 2 0;
#X connect 4 0 1 0;
#X connect 5 0 4 0;
#X connect 6 0 1 0;
