#N canvas 273 23 997 821 10;
#X obj 69 339 +~;
#X obj 149 315 *~ 0.98;
#X msg 79 193 1000 \$1;
#X obj 79 215 /;
#X obj 179 502 *~ 1;
#X obj 200 480 dbtorms;
#X obj 236 357 t f f;
#X obj 209 311 *;
#X obj 134 162 t f f;
#X obj 79 238 delread~ d\$0 10;
#X obj 341 549 env~;
#X obj 341 572 change;
#X obj 341 594 sel 0;
#X obj 341 737 s \$0-more;
#X obj 69 15 r \$0-more;
#X obj 107 138 sel 0;
#X obj 306 234 moses 1;
#X obj 359 234 sel 0;
#X obj 525 421 sel 1 0;
#X msg 433 647 bang;
#X msg 475 647 stop;
#X obj 341 689 del 100;
#X obj 341 713 spigot 1;
#X obj 69 39 t b b b b b b;
#X obj 525 175 >= \$1;
#X obj 168 285 f;
#X obj 226 190 t b b;
#X msg 253 234 0;
#X obj 226 213 delay 250;
#X obj 226 169 r \$2-reset;
#X obj 533 397 r \$2-start;
#X obj 525 154 r \$2-voices;
#X obj 203 116 / 100;
#X obj 203 142 clip 0.001 0.999;
#X msg 554 636 0;
#X obj 513 683 f;
#X obj 525 196 change;
#X obj 359 211 / 100;
#X obj 203 95 rmm \$2 Fdb;
#X obj 396 93 rmm \$2 Q;
#X obj 107 95 rmm \$2 Freq;
#X obj 306 94 rmm \$2 Harm;
#X obj 341 638 rmm \$2 Rest;
#X obj 579 370 switch~ 0;
#X obj 525 217 t f f;
#X obj 552 241 sel 0;
#X msg 657 285 1;
#X obj 592 316 spigot 0;
#X msg 659 346 0;
#X obj 69 380 delwrite~ d\$0 100;
#X obj 352 618 s \$0-zero;
#X obj 592 285 r \$0-zero;
#X obj 209 334 sig~;
#X obj 179 380 vcf~ 100 1;
#X obj 200 457 + 100;
#X obj 200 434 * 10;
#X obj 263 379 log;
#X obj 200 412 / 2.30259;
#X obj 29 163 unitpulse \$2;
#X obj 477 79 random 4;
#X obj 79 730 throw~ \$2-FL;
#X obj 114 710 throw~ \$2-RR;
#X obj 202 706 throw~ \$2-RL;
#X obj 162 733 throw~ \$2-FR;
#X obj 86 615 *~;
#X obj 116 615 *~;
#X obj 146 615 *~;
#X obj 176 614 *~;
#X obj 345 411 == 0;
#X obj 376 411 == 1;
#X obj 405 411 == 2;
#X obj 435 411 == 3;
#X obj 323 469 line~;
#X msg 323 447 \$1 5;
#X obj 363 469 line~;
#X msg 363 447 \$1 5;
#X obj 403 469 line~;
#X msg 403 447 \$1 5;
#X obj 443 469 line~;
#X msg 443 447 \$1 5;
#X connect 0 0 49 0;
#X connect 1 0 0 1;
#X connect 1 0 53 0;
#X connect 2 0 3 0;
#X connect 3 0 9 0;
#X connect 4 0 10 0;
#X connect 4 0 64 0;
#X connect 4 0 65 0;
#X connect 4 0 66 0;
#X connect 4 0 67 0;
#X connect 5 0 4 1;
#X connect 6 0 53 2;
#X connect 6 1 56 0;
#X connect 7 0 52 0;
#X connect 8 0 2 0;
#X connect 8 1 7 0;
#X connect 9 0 1 0;
#X connect 10 0 11 0;
#X connect 11 0 12 0;
#X connect 12 0 42 0;
#X connect 12 0 50 0;
#X connect 14 0 23 0;
#X connect 15 1 8 0;
#X connect 16 1 7 1;
#X connect 17 1 6 0;
#X connect 18 0 19 0;
#X connect 18 1 20 0;
#X connect 18 1 34 0;
#X connect 19 0 21 0;
#X connect 19 0 35 0;
#X connect 20 0 21 0;
#X connect 21 0 22 0;
#X connect 22 0 13 0;
#X connect 23 0 58 0;
#X connect 23 1 40 0;
#X connect 23 2 38 0;
#X connect 23 3 41 0;
#X connect 23 4 39 0;
#X connect 23 5 59 0;
#X connect 24 0 36 0;
#X connect 25 0 1 1;
#X connect 26 0 28 0;
#X connect 26 1 27 0;
#X connect 27 0 1 1;
#X connect 28 0 25 0;
#X connect 29 0 26 0;
#X connect 30 0 18 0;
#X connect 31 0 24 0;
#X connect 32 0 33 0;
#X connect 33 0 25 0;
#X connect 34 0 22 1;
#X connect 35 0 22 1;
#X connect 36 0 44 0;
#X connect 37 0 17 0;
#X connect 38 0 32 0;
#X connect 39 0 37 0;
#X connect 40 0 15 0;
#X connect 41 0 16 0;
#X connect 42 0 21 0;
#X connect 44 0 18 0;
#X connect 44 0 35 0;
#X connect 44 1 45 0;
#X connect 45 0 46 0;
#X connect 45 1 43 0;
#X connect 46 0 47 1;
#X connect 47 0 48 0;
#X connect 48 0 47 1;
#X connect 48 0 43 0;
#X connect 51 0 47 0;
#X connect 52 0 53 1;
#X connect 53 0 4 0;
#X connect 54 0 5 0;
#X connect 55 0 54 0;
#X connect 56 0 57 0;
#X connect 57 0 55 0;
#X connect 58 0 0 0;
#X connect 59 0 68 0;
#X connect 59 0 69 0;
#X connect 59 0 70 0;
#X connect 59 0 71 0;
#X connect 64 0 60 0;
#X connect 65 0 61 0;
#X connect 66 0 63 0;
#X connect 67 0 62 0;
#X connect 68 0 73 0;
#X connect 69 0 75 0;
#X connect 70 0 77 0;
#X connect 71 0 79 0;
#X connect 72 0 64 1;
#X connect 73 0 72 0;
#X connect 74 0 65 1;
#X connect 75 0 74 0;
#X connect 76 0 66 1;
#X connect 77 0 76 0;
#X connect 78 0 67 1;
#X connect 79 0 78 0;
