#N canvas 900 240 343 335 10;
#X obj 31 225 random 1;
#X obj 31 255 +;
#X obj 76 181 -;
#X obj 73 158 swap;
#X obj 76 204 + 1;
#X obj 31 280 outlet;
#X obj 27 58 inlet;
#X obj 132 81 t b f;
#X obj 67 109 pack 0 1;
#X obj 67 58 r \$1-M.\$2;
#X obj 132 58 r \$1-m.\$2;
#X obj 67 133 zexy/minmax;
#X connect 0 0 1 0;
#X connect 1 0 5 0;
#X connect 2 0 4 0;
#X connect 3 0 2 0;
#X connect 3 1 2 1;
#X connect 4 0 0 1;
#X connect 6 0 0 0;
#X connect 7 0 8 0;
#X connect 7 1 8 1;
#X connect 8 0 11 0;
#X connect 9 0 8 0;
#X connect 10 0 7 0;
#X connect 11 0 3 0;
#X connect 11 0 1 1;
#X connect 11 1 3 1;
