#N canvas 1299 447 300 400 10;
#X declare -path abs;
#X obj 0 0 cnv 15 300 400 empty empty empty 20 12 0 14 #929292 #404040 0;
#X obj 130 265 cnv 15 100 110 empty empty Grains 5 12 0 20 #b7b7b7 #373737 0;
#X obj 20 142 cnv 15 100 110 empty empty I.O.T. 5 12 0 20 #b7b7b7 #373737 0;
#X obj 130 142 cnv 15 100 110 empty empty Envelope 5 12 0 20 #b7b7b7 #373737 0;
#X obj 20 20 cnv 15 100 110 empty empty Pitch 5 12 0 20 #b7b7b7 #373737 0;
#X obj 31 65 nbx 6 20 0 127 0 0 freq.max auto.freq.max max. 0 -8 0 12 #fcfcfc #000000 #000000 0 256;
#X obj 31 98 nbx 6 20 1 127 0 0 freq.min auto.freq.min min. 0 -8 0 12 #fcfcfc #000000 #000000 0 256;
#X obj 31 181 nbx 6 20 5 1000 1 0 iot.max auto.iot.max max. 0 -8 0 12 #fcfcfc #000000 #000000 0 256;
#X obj 31 214 nbx 6 20 5 1000 1 0 iot.min auto.iot.min min. 0 -8 0 12 #fcfcfc #000000 #000000 0 256;
#X obj 141 181 nbx 6 20 2 98 0 0 env.max auto.env.max max. 0 -8 0 12 #fcfcfc #000000 #000000 0 256;
#X obj 141 214 nbx 6 20 2 98 0 0 env.min auto.env.min min. 0 -8 0 12 #fcfcfc #000000 #000000 0 256;
#X obj 244 40 tgl 30 0 interruptor auto.interruptor ON -1 -10 0 20 #000000 #ffffff #000000 0 1;
#X obj 141 301 nbx 6 20 1 100 0 0 voices auto.voices empty 0 -8 0 12 #fcfcfc #000000 #000000 0 256;
#N canvas 244 22 569 398 system 0;
#X obj 31 417 dac~;
#X obj 31 134 catch~ grain_L;
#X obj 178 134 catch~ grain_R;
#X obj 87 200 r master.vol;
#X obj 87 333 line~;
#X obj 178 379 *~;
#X obj 31 380 *~;
#X obj 382 177 until;
#X obj 364 48 sel 0;
#X obj 382 220 f 1;
#X obj 438 220 + 1;
#X obj 382 319 pack;
#X obj 382 258 t f f;
#X obj 382 81 t b f, f 19;
#X obj 401 292 <=, f 16;
#X obj 364 20 r voices;
#X obj 382 346 s voice.int;
#X msg 382 115 100;
#X floatatom 19 52 5 0 0 0 - - - 0;
#X text 62 51 change number of max grains, f 33;
#X obj 54 163 s~ granulator.rec.l;
#X obj 202 166 s~ granulator.rec.r;
#N canvas 677 174 265 512 randomize 0;
#X obj 127 116 random 100000;
#X obj 127 143 + 1000;
#X obj 127 14 loadbang;
#X obj 246 116 random 100000;
#X obj 246 143 + 1000;
#X obj 127 174 pack 0 0, f 24;
#X obj 127 74 t b b, f 15;
#X obj 151 43 r randomize;
#X obj 216 277 s auto.freq.max;
#X obj 216 307 mod 1000;
#X obj 22 307 mod 1000;
#X obj 22 237 mod 127;
#X obj 216 248 mod 127;
#X obj 216 333 s auto.iot.max;
#X obj 22 265 s auto.freq.min;
#X obj 22 335 s auto.iot.min;
#X obj 22 372 mod 100;
#X obj 216 363 mod 100;
#X obj 216 431 mod 100;
#X obj 22 398 s auto.dur.min;
#X obj 216 393 s auto.dur.max;
#X obj 216 461 s auto.env.max;
#X obj 22 456 s auto.env.min;
#X obj 22 428 mod 100;
#X obj 22 515 + 40;
#X obj 216 516 + 40;
#X obj 22 491 mod 60;
#X obj 216 491 mod 60;
#X obj 22 574 mod 100;
#X obj 22 600 s auto.voices;
#X obj 22 539 s auto.dyn.min;
#X obj 216 544 s auto.dyn.max;
#X obj 127 202 minmaxsort, f 15;
#X connect 0 0 1 0;
#X connect 1 0 5 0;
#X connect 2 0 6 0;
#X connect 3 0 4 0;
#X connect 4 0 5 1;
#X connect 5 0 32 0;
#X connect 6 0 0 0;
#X connect 6 1 3 0;
#X connect 7 0 6 0;
#X connect 9 0 13 0;
#X connect 10 0 15 0;
#X connect 11 0 14 0;
#X connect 12 0 8 0;
#X connect 16 0 19 0;
#X connect 17 0 20 0;
#X connect 18 0 21 0;
#X connect 23 0 22 0;
#X connect 24 0 30 0;
#X connect 25 0 31 0;
#X connect 26 0 24 0;
#X connect 27 0 25 0;
#X connect 28 0 29 0;
#X connect 32 0 11 0 32.................H....P8+++OB....T+++++.....;
#X connect 32 0 10 0 32.................JA...P8+++uR....T++++WE....;
#X connect 32 0 23 0 32.................IC...P8+++ex....T++++6L....;
#X connect 32 0 16 0 32.................MB...P8+++ei....T++++aI....;
#X connect 32 0 26 0 32.................BD...P8+++u.A...T++++2P....;
#X connect 32 0 28 0 32.................aE...f4++++VA...X9+++CV....;
#X connect 32 1 27 0 32.................ID....O...PBA...vC...zP....;
#X connect 32 1 18 0 32.................KC....O...vx....vC...DM....;
#X connect 32 1 17 0 32.................HB....O....h....vC...zH....;
#X connect 32 1 9 0 32.................QA....O...PT....vC...TE....;
#X connect 32 1 12 0 32.................P....3C....D....9....nA....;
#X restore 221 20 pd randomize;
#X obj 22 85 multiplinstancer sine-grain 100;
#X msg 87 303 \$1 10;
#X obj 382 147 t f b, f 12;
#X msg 433 177 1;
#X obj 87 270 *;
#X obj 87 230 t f f;
#X obj 19 20 declare -path abs;
#X connect 1 0 6 0;
#X connect 1 0 20 0;
#X connect 2 0 5 0;
#X connect 2 0 21 0;
#X connect 3 0 28 0;
#X connect 4 0 5 1;
#X connect 4 0 6 1;
#X connect 5 0 0 1;
#X connect 6 0 0 0;
#X connect 7 0 9 0;
#X connect 8 1 13 0;
#X connect 9 0 10 0;
#X connect 9 0 12 0;
#X connect 10 0 9 1;
#X connect 11 0 16 0;
#X connect 12 0 11 0;
#X connect 12 1 14 0;
#X connect 13 0 17 0;
#X connect 13 1 14 1;
#X connect 14 0 11 1;
#X connect 15 0 8 0;
#X connect 17 0 25 0;
#X connect 18 0 23 0;
#X connect 24 0 4 0;
#X connect 25 0 7 0;
#X connect 25 1 26 0;
#X connect 26 0 9 1;
#X connect 27 0 24 0;
#X connect 28 0 27 0;
#X connect 28 1 27 1;
#X restore 141 334 pd system;
#X f 12;
#X obj 244 98 bng 30 250 50 0 randomize empty DICE -5 -8 0 16 #000000 #ffffff #000000;
#X obj 130 20 cnv 15 100 110 empty empty Duration 5 12 0 20 #b7b7b7 #373737 0;
#X obj 141 65 nbx 6 20 1 100 0 0 dur.max auto.dur.max max. 0 -8 0 12 #fcfcfc #000000 #000000 0 256;
#X obj 141 98 nbx 6 20 1 100 0 0 dur.min auto.dur.min min. 0 -8 0 12 #fcfcfc #000000 #000000 0 256;
#X obj 20 265 cnv 15 100 110 empty empty Volume 5 12 0 20 #b7b7b7 #373737 0;
#X obj 31 301 nbx 6 20 40 100 0 0 dyn.max auto.dyn.max max. 0 -8 0 12 #fcfcfc #000000 #000000 0 256;
#X obj 31 334 nbx 6 20 40 100 0 0 dyn.min auto.dyn.min min. 0 -8 0 12 #fcfcfc #000000 #000000 0 256;
#X obj 247 162 vsl 30 213 0 1 0 0 master.vol empty VOL -3 -10 0 20 #e4e4e4 #4d4d4d #373737 0 1;
