#N canvas 19 187 281 372 10;
#X declare -path abs -stdpath zexy;
#X obj 9 5 cnv 15 260 360 empty empty empty 20 12 0 14 -261234 -66577
0;
#X obj 22 100 nbx 5 15 0 127 0 0 freq.max auto.freq.max max. 0 -8 0
12 -262144 -1 -1 55 256;
#X obj 22 134 nbx 5 15 1 127 0 0 freq.min auto.freq.min min. 0 -8 0
12 -262144 -1 -1 52 256;
#X obj 22 184 nbx 5 15 5 1000 1 0 iot.max auto.iot.max max. 0 -8 0
12 -262144 -1 -1 908 256;
#X obj 22 217 nbx 5 15 5 1000 1 0 iot.min auto.iot.min min. 0 -8 0
12 -262144 -1 -1 363 256;
#X text 20 70 FREQUENCY;
#X text 20 156 IOT;
#X obj 102 184 nbx 5 15 1 100 0 0 dur.max auto.dur.max max. 0 -8 0
12 -262144 -1 -1 8 256;
#X obj 102 217 nbx 5 15 1 100 0 0 dur.min auto.dur.min min. 0 -8 0
12 -262144 -1 -1 63 256;
#X text 101 156 DURATION;
#X obj 182 184 nbx 5 15 2 98 0 0 env.max auto.env.max max. 0 -8 0 12
-262144 -1 -1 8 256;
#X obj 182 217 nbx 5 15 2 98 0 0 env.min auto.env.min min. 0 -8 0 12
-262144 -1 -1 63 256;
#X text 181 156 ENVELOPE;
#X obj 22 267 nbx 5 15 40 100 0 0 dyn.max auto.dyn.max max. 0 -8 0
12 -262144 -1 -1 48 256;
#X obj 22 300 nbx 5 15 40 100 0 0 dyn.min auto.dyn.min min. 0 -8 0
12 -262144 -1 -1 43 256;
#X text 21 239 DYNAMICS;
#X obj 188 264 tgl 50 0 interruptor auto.interruptor on/off 5 -7 0
12 -258113 -1 -1 0 1;
#X obj 25 30 hsl 225 15 0 100 0 0 master.vol empty MasterVol -2 -10
0 12 -262144 -1 -1 0 1;
#X obj 102 100 nbx 5 15 1 100 0 0 voices auto.voices voices 0 -8 0
12 -262144 -1 -1 63 256;
#N canvas 244 22 569 398 system 0;
#X obj 41 276 dac~;
#X obj 35 77 catch~ grain_L;
#X obj 66 119 catch~ grain_R;
#X obj 74 163 r master.vol;
#X obj 74 226 line~;
#X msg 74 204 \$1 10;
#X obj 66 249 *~;
#X obj 35 249 *~;
#X obj 74 183 dbtorms;
#X obj 323 134 until;
#X obj 311 63 sel 0;
#X obj 323 155 f 1;
#X obj 376 154 + 1;
#X obj 329 263 pack;
#X obj 323 215 t f f;
#X msg 376 208 1;
#X obj 338 85 t b f;
#X obj 350 238 <=;
#X obj 311 41 r voices;
#X obj 329 287 s voice.int;
#X msg 323 111 100;
#X obj 376 186 sel 100;
#X floatatom 34 36 5 0 0 0 - - -, f 5;
#X text 74 36 change number of max grains;
#X obj 41 98 s~ granulator.rec.l;
#X obj 73 141 s~ granulator.rec.r;
#N canvas 677 174 265 512 randomize 0;
#X obj 24 79 random 100000;
#X obj 24 101 + 1000;
#X obj 87 14 loadbang;
#X obj 114 79 random 100000;
#X obj 114 101 + 1000;
#X obj 69 148 minmax;
#X obj 69 126 pack 0 0;
#X obj 87 55 t b b;
#X obj 94 35 r randomize;
#X obj 124 203 s auto.freq.max;
#X obj 124 233 mod 1000;
#X obj 24 233 mod 1000;
#X obj 24 183 mod 127;
#X obj 124 183 mod 127;
#X obj 124 253 s auto.iot.max;
#X obj 24 203 s auto.freq.min;
#X obj 24 253 s auto.iot.min;
#X obj 24 283 mod 100;
#X obj 124 283 mod 100;
#X obj 124 333 mod 100;
#X obj 24 303 s auto.dur.min;
#X obj 124 303 s auto.dur.max;
#X obj 124 353 s auto.env.max;
#X obj 24 353 s auto.env.min;
#X obj 24 333 mod 100;
#X obj 24 405 + 40;
#X obj 124 405 + 40;
#X obj 24 383 mod 60;
#X obj 124 383 mod 60;
#X obj 24 453 mod 100;
#X obj 24 473 s auto.voices;
#X obj 24 426 s auto.dyn.min;
#X obj 124 426 s auto.dyn.max;
#X connect 0 0 1 0;
#X connect 1 0 6 0;
#X connect 2 0 7 0;
#X connect 3 0 4 0;
#X connect 4 0 6 1;
#X connect 5 0 12 0;
#X connect 5 0 11 0;
#X connect 5 0 17 0;
#X connect 5 0 24 0;
#X connect 5 0 27 0;
#X connect 5 0 29 0;
#X connect 5 1 13 0;
#X connect 5 1 10 0;
#X connect 5 1 18 0;
#X connect 5 1 19 0;
#X connect 5 1 28 0;
#X connect 6 0 5 0;
#X connect 7 0 0 0;
#X connect 7 1 3 0;
#X connect 8 0 7 0;
#X connect 10 0 14 0;
#X connect 11 0 16 0;
#X connect 12 0 15 0;
#X connect 13 0 9 0;
#X connect 17 0 20 0;
#X connect 18 0 21 0;
#X connect 19 0 22 0;
#X connect 24 0 23 0;
#X connect 25 0 31 0;
#X connect 26 0 32 0;
#X connect 27 0 25 0;
#X connect 28 0 26 0;
#X connect 29 0 30 0;
#X restore 74 276 pd randomize;
#X obj 34 56 multiplinstancer sine-grain 100;
#X obj 39 335 declare -path abs -stdpath zexy;
#X connect 1 0 7 0;
#X connect 1 0 24 0;
#X connect 2 0 6 0;
#X connect 2 0 25 0;
#X connect 3 0 8 0;
#X connect 4 0 6 1;
#X connect 4 0 7 1;
#X connect 5 0 4 0;
#X connect 6 0 0 1;
#X connect 7 0 0 0;
#X connect 8 0 5 0;
#X connect 9 0 11 0;
#X connect 10 1 16 0;
#X connect 11 0 12 0;
#X connect 11 0 14 0;
#X connect 11 0 21 0;
#X connect 12 0 11 1;
#X connect 13 0 19 0;
#X connect 14 0 13 0;
#X connect 14 1 17 0;
#X connect 15 0 11 1;
#X connect 16 0 20 0;
#X connect 16 1 17 1;
#X connect 17 0 13 1;
#X connect 18 0 10 0;
#X connect 20 0 9 0;
#X connect 21 0 15 0;
#X connect 22 0 27 0;
#X restore 22 328 pd system;
#X obj 107 265 bng 50 250 50 0 randomize empty randomize -6 -8 0 12
-4160 -1 -1;
#X obj 22 50 nbx 5 15 1 100 0 0 empty empty dB 66 8 0 12 -262144 -1
-1 1 256;
#X connect 17 0 21 0;
