#N canvas 646 22 1113 511 10;
#N canvas 0 22 450 278 (subpatch) 0;
#X array :00 11025 float 2;
#X coords 0 1 11025 -1 25 100 1 0 0;
#X restore 100 120 graph;
#N canvas 0 22 450 278 (subpatch) 0;
#X array :01 11025 float 2;
#X coords 0 1 11025 -1 25 100 1 0 0;
#X restore 125 120 graph;
#X obj 100 231 inlet~;
#N canvas 704 649 304 324 draw 0;
#X obj 9 34 inlet~;
#X obj 17 84 f;
#X obj 45 83 + 1;
#X msg 17 188 set \$1;
#X obj 17 60 inlet;
#X obj 5 12 block~ 11025 1 0.25;
#X obj 17 127 moses 10;
#X obj 17 106 mod 30;
#X obj 62 147 makefilename :%d;
#X obj 17 167 makefilename :0%d;
#X obj 9 210 tabsend~ :00;
#X connect 0 0 10 0;
#X connect 1 0 2 0;
#X connect 1 0 7 0;
#X connect 2 0 1 1;
#X connect 3 0 10 0;
#X connect 4 0 1 0;
#X connect 6 0 9 0;
#X connect 6 1 8 0;
#X connect 7 0 6 0;
#X connect 8 0 3 0;
#X connect 9 0 3 0;
#X restore 100 278 pd draw;
#X obj 139 252 bang~;
#X obj 151 278 block~ 88200 2;
#N canvas 0 22 450 278 (subpatch) 0;
#X array :02 11025 float 2;
#X coords 0 1 11025 -1 25 100 1 0 0;
#X restore 150 120 graph;
#N canvas 0 22 450 278 (subpatch) 0;
#X array :04 11025 float 2;
#X coords 0 1 11025 -1 25 100 1 0 0;
#X restore 175 120 graph;
#N canvas 0 22 450 278 (subpatch) 0;
#X array :05 11025 float 2;
#X coords 0 1 11025 -1 25 100 1 0 0;
#X restore 200 120 graph;
#N canvas 0 22 450 278 (subpatch) 0;
#X array :06 11025 float 2;
#X coords 0 1 11025 -1 25 100 1 0 0;
#X restore 225 120 graph;
#N canvas 0 22 450 278 (subpatch) 0;
#X array :07 11025 float 2;
#X coords 0 1 11025 -1 25 100 1 0 0;
#X restore 250 120 graph;
#N canvas 0 22 450 278 (subpatch) 0;
#X array :08 11025 float 2;
#X coords 0 1 11025 -1 25 100 1 0 0;
#X restore 275 120 graph;
#N canvas 0 22 450 278 (subpatch) 0;
#X array :09 11025 float 2;
#X coords 0 1 11025 -1 25 100 1 0 0;
#X restore 300 120 graph;
#N canvas 0 22 450 278 (subpatch) 0;
#X array :10 11025 float 2;
#X coords 0 1 11025 -1 25 100 1 0 0;
#X restore 325 120 graph;
#N canvas 0 22 450 278 (subpatch) 0;
#X array :11 11025 float 2;
#X coords 0 1 11025 -1 25 100 1 0 0;
#X restore 350 120 graph;
#N canvas 0 22 450 278 (subpatch) 0;
#X array :12 11025 float 2;
#X coords 0 1 11025 -1 25 100 1 0 0;
#X restore 375 120 graph;
#N canvas 0 22 450 278 (subpatch) 0;
#X array :13 11025 float 2;
#X coords 0 1 11025 -1 25 100 1 0 0;
#X restore 400 120 graph;
#N canvas 0 22 450 278 (subpatch) 0;
#X array :14 11025 float 2;
#X coords 0 1 11025 -1 25 100 1 0 0;
#X restore 425 120 graph;
#N canvas 0 22 450 278 (subpatch) 0;
#X array :15 11025 float 2;
#X coords 0 1 11025 -1 25 100 1 0 0;
#X restore 450 120 graph;
#N canvas 0 22 450 278 (subpatch) 0;
#X array :16 11025 float 2;
#X coords 0 1 11025 -1 25 100 1 0 0;
#X restore 475 120 graph;
#N canvas 0 22 450 278 (subpatch) 0;
#X array :17 11025 float 2;
#X coords 0 1 11025 -1 25 100 1 0 0;
#X restore 500 120 graph;
#N canvas 0 22 450 278 (subpatch) 0;
#X array :18 11025 float 2;
#X coords 0 1 11025 -1 25 100 1 0 0;
#X restore 525 120 graph;
#N canvas 0 22 450 278 (subpatch) 0;
#X array :19 11025 float 2;
#X coords 0 1 11025 -1 25 100 1 0 0;
#X restore 550 120 graph;
#N canvas 0 22 450 278 (subpatch) 0;
#X array :20 11025 float 2;
#X coords 0 1 11025 -1 25 100 1 0 0;
#X restore 575 120 graph;
#N canvas 0 22 450 278 (subpatch) 0;
#X array :21 11025 float 2;
#X coords 0 1 11025 -1 25 100 1 0 0;
#X restore 600 120 graph;
#N canvas 0 22 450 278 (subpatch) 0;
#X array :22 11025 float 2;
#X coords 0 1 11025 -1 25 100 1 0 0;
#X restore 625 120 graph;
#N canvas 0 22 450 278 (subpatch) 0;
#X array :23 11025 float 2;
#X coords 0 1 11025 -1 25 100 1 0 0;
#X restore 650 120 graph;
#N canvas 0 22 450 278 (subpatch) 0;
#X array :24 11025 float 2;
#X coords 0 1 11025 -1 25 100 1 0 0;
#X restore 675 120 graph;
#N canvas 0 22 450 278 (subpatch) 0;
#X array :25 11025 float 2;
#X coords 0 1 11025 -1 25 100 1 0 0;
#X restore 700 120 graph;
#N canvas 0 22 450 278 (subpatch) 0;
#X array :26 11025 float 2;
#X coords 0 1 11025 -1 25 100 1 0 0;
#X restore 725 120 graph;
#N canvas 0 22 450 278 (subpatch) 0;
#X array :27 11025 float 2;
#X coords 0 1 11025 -1 25 100 1 0 0;
#X restore 750 120 graph;
#N canvas 0 22 450 278 (subpatch) 0;
#X array :28 11025 float 2;
#X coords 0 1 11025 -1 25 100 1 0 0;
#X restore 775 120 graph;
#N canvas 0 22 450 278 (subpatch) 0;
#X array :29 11025 float 2;
#X coords 0 1 11025 -1 25 100 1 0 0;
#X restore 800 120 graph;
#X connect 2 0 3 0;
#X connect 4 0 3 1;
#X coords 0 -1 1 1 725 120 2 100 100;
