#N struct timeline float x float y;
#N struct error float x float y float width;
#N canvas 10 23 609 551 10;
#X declare -path abs -stdpath maxlib -stdpath hcs -stdpath iemlib -stdpath
mapping -stdpath zexy -stdpath ggee -stdpath purepd -stdpath motex
-stdpath cyclone;
#X obj 545 508 nbx 5 14 -1e+37 1e+37 0 0 NOSY \$0-sizeSecs DURATION:
-60 8 0 10 -262144 -258113 -258113 12.0628 256;
#N canvas 39 1058 822 523 wave 0;
#X scalar timeline 0.5 -1 \;;
#X scalar error 0.95 -1 0.05 \;;
#N canvas 0 22 450 278 (subpatch) 0;
#X array \$0-soundfile 531968 float 0;
#X coords 0 1 531967 -1 600 150 2 0 0;
#X restore 100 200 graph;
#X coords 0 -1 1 1 600 150 2 100 200;
#X restore 3 375 pd wave;
#X obj 3 2 cnv 15 600 80 empty empty empty 20 12 0 14 -233017 -66577
0;
#X floatatom 7 23 3 0 500 0 - #0-pre_maxGrains_p #0-pre_maxGrains,
f 3;
#X floatatom 7 43 3 0 0 0 - #0-speedLimit_p #0-speedLimit, f 3;
#X obj 3 221 cnv 15 600 135 empty empty empty 20 12 0 14 -233017 -66577
0;
#X floatatom 24 321 5 1 1000 0 - #0-grainSizeMean_p #0-grainSizeMean
, f 5;
#X floatatom 75 321 0 0 500 0 - #0-grainSizeDev_p #0-grainSizeDev;
#X text 24 335 mean;
#X text 74 336 dev;
#X floatatom 304 321 5 0 1000 0 - #0-silenceMean_p #0-silenceMean,
f 5;
#X floatatom 354 321 5 0 500 0 - #0-silenceDev_p #0-silenceDev, f
5;
#X text 304 335 mean;
#X text 344 336 dev;
#X floatatom 504 321 4 0 1200 0 - #0-detune_p #0-detune, f 4;
#X floatatom 24 261 5 0 112 0 - #0-volumeMean_p #0-volumeMean, f 5
;
#X floatatom 74 261 5 0 56 0 - #0-volumeDev_p #0-volumeDev, f 5;
#X text 24 275 mean;
#X text 74 276 dev;
#X floatatom 164 261 5 -45 45 0 - #0-panMean_p #0-panMean, f 5;
#X floatatom 214 261 5 0 45 0 - #0-panDev_p #0-panDev, f 5;
#X text 164 275 mean;
#X text 214 276 dev;
#X floatatom 164 320 5 0 100 0 - #0-readOffsetMean_p #0-readOffsetMean
, f 5;
#X floatatom 215 321 5 0 50 0 - #0-readOffsetDev_p #0-readOffsetDev
, f 5;
#X text 164 335 mean;
#X text 214 335 dev;
#X text 22 300 grain size (ms);
#X text 162 300 reading point (%);
#X text 302 300 silence (ms);
#X text 22 240 volume (dB);
#X text 162 240 pan (-45/45);
#X obj 13 321 bng 8 250 50 0 \$0-grainSizeMean_l nothing empty 17 7
0 10 -228856 -1 -1;
#X obj 63 321 bng 8 250 50 0 \$0-grainSizeDev_l nothing empty 17 7
0 10 -228856 -1 -1;
#X obj 153 321 bng 8 250 50 0 \$0-readOffsetMean_l nothing empty 17
7 0 10 -228856 -1 -1;
#X obj 203 321 bng 8 250 50 0 \$0-readOffsetDev_l nothing empty 17
7 0 10 -228856 -1 -1;
#X obj 293 321 bng 8 250 50 0 \$0-silenceMean_l nothing empty 17 7
0 10 -228856 -1 -1;
#X obj 343 321 bng 8 250 50 0 \$0-silenceDev_l ccccccccc empty 17 7
0 10 -228856 -1 -1;
#X obj 423 321 bng 8 250 50 0 \$0-octave_l asdfd empty 17 7 0 10 -228856
-1 -1;
#X obj 493 321 bng 8 250 50 0 \$0-detune_l asdfdfdf empty 17 7 0 10
-228856 -1 -1;
#X obj 13 261 bng 8 250 50 0 \$0-volumeMean_l empty empty 17 7 0 10
-228856 -1 -1;
#X obj 63 261 bng 8 250 50 0 \$0-volumeDev_l nothing empty 17 7 0 10
-228856 -1 -1;
#X obj 153 261 bng 8 250 50 0 \$0-panMean_l nothing empty 17 7 0 10
-228856 -1 -1;
#X obj 203 261 bng 8 250 50 0 \$0-panDev_l nothing empty 17 7 0 10
-228856 -1 -1;
#X obj 543 262 bng 8 250 50 0 \$0-active_l frfrfrf empty 17 7 0 10
-228856 -1 -1;
#X text 20 222 GRAINDER;
#X obj 3 89 cnv 15 215 125 empty empty empty 20 12 0 14 -233017 -66577
0;
#X obj 10 129 tgl 15 0 \$0-start \$0-initStart empty 17 7 0 10 -228856
-1 -1 1 1;
#X obj 10 170 bng 15 250 50 0 \$0-playFile asdfasd empty 17 7 0 10
-228856 -1 -1;
#X floatatom 10 149 0 0.1 10 0 - #0-speedRatio_p #0-speedRatio;
#X obj 10 190 tgl 15 0 \$0-stopEnd nothing empty 17 7 0 10 -228856
-1 -1 1 1;
#X text 28 188 stop at the end of the file?;
#X obj 10 109 bng 15 250 50 0 \$0-loadFile \$0-loadFile_p empty 17
7 0 10 -228856 -1 -1;
#X text 29 108 load file (wav or aiff);
#X text 29 127 start processing the soundfile;
#X text 37 150 speed ratio;
#X text 29 169 play;
#X text 6 91 PLAYBACK;
#X obj 226 89 cnv 15 377 125 empty empty empty 20 12 0 14 -233017 -66577
0;
#X floatatom 244 182 5 30 10000 0 - #0-filterFreqMean_p #0-filterFreqMean
, f 5;
#X floatatom 294 182 5 0 1000 0 - #0-filterFreqDev_p #0-filterFreqDev
, f 5;
#X text 244 196 mean;
#X text 294 197 dev;
#X obj 233 182 bng 8 250 50 0 \$0-filterFreqMean_l nothing empty 17
7 0 10 -228856 -1 -1;
#X obj 283 182 bng 8 250 50 0 \$0-filterFreqDev_l cccccccccccc empty
17 7 0 10 -228856 -1 -1;
#X floatatom 374 181 5 0 100 0 - #0-filterQMean_p #0-filterQMean,
f 5;
#X floatatom 425 182 5 0 50 0 - #0-filterQDev_p #0-filterQDev, f 5
;
#X text 374 196 mean;
#X text 425 196 dev;
#N canvas 402 103 531 521 patch 0;
#X obj 16 26 loadbang;
#N canvas 0 22 229 292 makeGrains 0;
#X obj 42 84 until;
#X obj 68 112 + 1;
#X msg 112 84 clear;
#X obj 42 135 t f f;
#X obj 61 57 t f b b;
#X obj 69 158 * 25;
#X obj 69 178 + 25;
#X obj 42 113 f 1;
#X msg 80 84 1;
#X obj 61 35 pipe 1;
#X obj 24 199 pack f f \$0;
#X obj 61 14 r \$0-maxGrains;
#X obj 112 250 s pd-\$0-grains;
#X msg 24 220 obj 25 \$2 fileGrain \$1 \$3;
#X connect 0 0 7 0;
#X connect 1 0 7 1;
#X connect 2 0 12 0;
#X connect 3 0 10 0;
#X connect 3 1 5 0;
#X connect 4 0 0 0;
#X connect 4 1 8 0;
#X connect 4 2 2 0;
#X connect 5 0 6 0;
#X connect 6 0 10 1;
#X connect 7 0 1 0;
#X connect 7 0 3 0;
#X connect 8 0 7 1;
#X connect 9 0 4 0;
#X connect 10 0 13 0;
#X connect 11 0 9 0;
#X connect 13 0 12 0;
#X restore 17 304 pd makeGrains;
#X obj 26 93 r \$0-pre_maxGrains;
#X obj 16 116 pack 0 \$0;
#N canvas 0 22 191 367 \$0-grains 0;
#X obj 25 50 fileGrain 1 1004;
#X obj 25 75 fileGrain 2 1004;
#X restore 17 326 pd \$0-grains;
#N canvas 4 23 1273 485 mapping 0;
#X obj 128 281 line 0 1;
#X obj 4 412 pack 0 0;
#X obj 14 390 t b f;
#X obj 4 435 s \$0-grainSize;
#X obj 4 349 r \$0-grainSizeMean;
#X obj 14 369 r \$0-grainSizeDev;
#X obj 275 416 pack 0 0;
#X obj 285 394 t b f;
#X obj 275 439 s \$0-silence;
#X obj 285 373 r \$0-silenceDev;
#X obj 275 353 r \$0-silenceMean;
#X obj 395 394 t b f;
#X obj 485 416 pack 0 0;
#X obj 495 394 t b f;
#X obj 485 353 r \$0-volumeMean;
#X obj 495 373 r \$0-volumeDev;
#X obj 485 439 s \$0-volume;
#X obj 585 416 pack 0 0;
#X obj 595 394 t b f;
#X obj 585 353 r \$0-panMean;
#X obj 595 373 r \$0-panDev;
#X obj 585 439 s \$0-pan;
#X obj 128 413 pack 0 0;
#X obj 146 391 t b f;
#X obj 137 348 r \$0-readOffsetMean;
#X obj 146 370 r \$0-readOffsetDev;
#X obj 128 435 s \$0-readOffset;
#X obj 128 -6 r \$0-playFile;
#X obj 286 77 r \$0-stopEnd;
#X obj 241 233 delay;
#X obj 241 280 s \$0-initStart;
#X msg 241 253 0;
#X obj 147 55 s \$0-initStart;
#X msg 147 34 1;
#X msg 135 304 set \$1;
#X obj 135 325 s \$0-readOffsetMean_p;
#X obj 280 216 r \$0-grainSizeMean;
#X obj 280 236 * 0.5;
#X obj 280 257 max 1;
#X obj 151 77 r \$0-sizeMs;
#X obj 143 183 * 1;
#X obj 128 207 f;
#X obj 128 14 t b b b;
#X msg 128 228 0 \, 100 \$1;
#X obj 241 98 spigot 0;
#X obj 143 97 r \$0-speedRatio;
#X obj 143 140 /;
#X msg 143 118 1 \$1;
#X obj 151 161 t b f;
#X obj 253 152 r \$0-readOffsetMean;
#X msg 253 173 stop;
#X obj 675 416 pack 0 0;
#X obj 685 394 t b f;
#X obj 685 373 r \$0-filterFreqDev;
#X obj 675 439 s \$0-filterFreq;
#X obj 805 416 pack 0 0;
#X obj 815 394 t b f;
#X obj 675 353 r \$0-filterFreqMean;
#X obj 805 353 r \$0-filterQMean;
#X obj 815 373 r \$0-filterQDev;
#X obj 805 439 s \$0-filterQ;
#X obj 915 416 pack 0 0;
#X obj 925 394 t b f;
#X obj 915 268 * 0.01;
#X obj 925 372 * 0.01;
#X obj 1015 416 pack 0 0;
#X obj 1025 394 t b f;
#X obj 1015 248 r \$0-attackMean;
#X obj 1015 439 s \$0-attack;
#X obj 1015 269 * 0.01;
#X obj 1025 350 r \$0-attackDev;
#X obj 1025 372 * 0.01;
#X obj 1115 416 pack 0 0;
#X obj 1125 394 t b f;
#X obj 1115 269 * 0.01;
#X obj 1125 372 * 0.01;
#X obj 915 247 r \$0-peakMean;
#X obj 925 350 r \$0-peakDev;
#X obj 915 439 s \$0-peak;
#X obj 1115 439 s \$0-release;
#X obj 1125 351 r \$0-releaseDev;
#X obj 1115 248 r \$0-releaseMean;
#X obj 1015 310 -;
#X obj 1015 330 abs;
#X msg 1015 289 1 \$1;
#X obj 1115 310 -;
#X obj 1115 330 abs;
#X msg 1115 289 1 \$1;
#X obj 395 373 r \$0-detune;
#X obj 385 439 s \$0-tuning;
#X obj 385 329 - 1;
#X obj 385 307 r \$0-octave;
#X obj 385 416 pack 0 0;
#X obj 385 350 * 1200;
#X obj 253 194 uanz;
#X connect 0 0 22 0;
#X connect 0 0 34 0;
#X connect 1 0 3 0;
#X connect 2 0 1 0;
#X connect 2 1 1 1;
#X connect 4 0 1 0;
#X connect 5 0 2 0;
#X connect 6 0 8 0;
#X connect 7 0 6 0;
#X connect 7 1 6 1;
#X connect 9 0 7 0;
#X connect 10 0 6 0;
#X connect 11 0 92 0;
#X connect 11 1 92 1;
#X connect 12 0 16 0;
#X connect 13 0 12 0;
#X connect 13 1 12 1;
#X connect 14 0 12 0;
#X connect 15 0 13 0;
#X connect 17 0 21 0;
#X connect 18 0 17 0;
#X connect 18 1 17 1;
#X connect 19 0 17 0;
#X connect 20 0 18 0;
#X connect 22 0 26 0;
#X connect 23 0 22 0;
#X connect 23 1 22 1;
#X connect 24 0 22 0;
#X connect 25 0 23 0;
#X connect 27 0 42 0;
#X connect 28 0 44 1;
#X connect 29 0 31 0;
#X connect 31 0 30 0;
#X connect 33 0 32 0;
#X connect 34 0 35 0;
#X connect 36 0 37 0;
#X connect 37 0 38 0;
#X connect 38 0 0 2;
#X connect 39 0 48 0;
#X connect 40 0 29 1;
#X connect 40 0 41 1;
#X connect 41 0 43 0;
#X connect 42 0 41 0;
#X connect 42 1 33 0;
#X connect 42 2 44 0;
#X connect 42 2 94 1;
#X connect 43 0 0 0;
#X connect 44 0 29 0;
#X connect 45 0 47 0;
#X connect 46 0 40 0;
#X connect 47 0 46 0;
#X connect 48 0 40 0;
#X connect 48 1 40 1;
#X connect 49 0 50 0;
#X connect 50 0 94 0;
#X connect 51 0 54 0;
#X connect 52 0 51 0;
#X connect 52 1 51 1;
#X connect 53 0 52 0;
#X connect 55 0 60 0;
#X connect 56 0 55 0;
#X connect 56 1 55 1;
#X connect 57 0 51 0;
#X connect 58 0 55 0;
#X connect 59 0 56 0;
#X connect 61 0 78 0;
#X connect 62 0 61 0;
#X connect 62 1 61 1;
#X connect 63 0 61 0;
#X connect 64 0 62 0;
#X connect 65 0 68 0;
#X connect 66 0 65 0;
#X connect 66 1 65 1;
#X connect 67 0 69 0;
#X connect 69 0 84 0;
#X connect 70 0 71 0;
#X connect 71 0 66 0;
#X connect 72 0 79 0;
#X connect 73 0 72 0;
#X connect 73 1 72 1;
#X connect 74 0 87 0;
#X connect 75 0 73 0;
#X connect 76 0 63 0;
#X connect 77 0 64 0;
#X connect 80 0 75 0;
#X connect 81 0 74 0;
#X connect 82 0 83 0;
#X connect 83 0 65 0;
#X connect 84 0 82 0;
#X connect 85 0 86 0;
#X connect 86 0 72 0;
#X connect 87 0 85 0;
#X connect 88 0 11 0;
#X connect 90 0 93 0;
#X connect 91 0 90 0;
#X connect 92 0 89 0;
#X connect 93 0 92 0;
#X connect 94 0 29 0;
#X connect 94 0 0 0;
#X restore 17 347 pd mapping;
#X obj 254 69 openpanel;
#X obj 254 91 symbol;
#X obj 254 206 soundfiler;
#X obj 254 272 /;
#X obj 269 251 samplerate~;
#X obj 254 314 * 1000;
#X obj 254 25 r \$0-loadFile;
#X text 44 47 <-- number of grains per default;
#X obj 269 228 r \$0-loadbang1;
#X obj 16 212 pipe 100;
#X obj 281 359 s \$0-sizeMs;
#X obj 254 337 t b f;
#X obj 254 403 s \$0-soundfile;
#X msg 254 381 normalize;
#X obj 299 144 symbol \$0-soundfile;
#X obj 254 113 t s b;
#X obj 254 165 pack s s;
#X msg 254 185 read -resize \$1 \$2;
#X obj 260 293 s \$0-sizeSecs;
#X obj 281 272 s \$0-SR;
#X obj 17 473 dac~;
#X obj 17 430 catch~ \$0-out1;
#X obj 38 450 catch~ \$0-out2;
#X obj 26 70 s \$0-pre_maxGrains_p;
#X msg 16 234 \$1 \; pd dsp 1 \; \$1-loadbang1 bang;
#N canvas 1 23 1258 699 midi 0;
#X msg 115 132 1;
#X obj 18 63 s pd-fileGrainder.pd;
#X obj 20 268 s \$0-grainSizeMean_p;
#X obj 20 88 r \$0-grainSizeMean_l;
#X obj 28 110 s \$0-savePatch;
#X obj 18 20 r \$0-savePatch;
#X msg 18 41 menusave;
#X msg 245 132 9;
#X obj 158 110 s \$0-savePatch;
#X obj 150 88 r \$0-grainSizeDev_l;
#X obj 150 268 s \$0-grainSizeDev_p;
#X obj 20 154 / 127;
#X obj 20 226 int;
#X obj 20 247 + 1;
#X obj 20 184 *;
#X obj 150 154 / 127;
#X obj 150 226 int;
#X obj 150 184 *;
#X msg 385 132 2;
#X obj 298 110 s \$0-savePatch;
#X msg 525 132 10;
#X obj 438 110 s \$0-savePatch;
#X obj 290 154 / 127;
#X obj 290 226 int;
#X obj 430 154 / 127;
#X obj 430 184 *;
#X obj 290 88 r \$0-readOffsetMean_l;
#X obj 430 88 r \$0-readOffsetDev_l;
#X obj 290 268 s \$0-readOffsetMean_p;
#X obj 430 268 s \$0-readOffsetDev_p;
#X obj 290 206 * 100;
#X obj 430 206 * 100;
#X msg 675 132 3;
#X obj 588 110 s \$0-savePatch;
#X msg 805 132 11;
#X obj 718 110 s \$0-savePatch;
#X obj 580 154 / 127;
#X obj 580 226 int;
#X obj 580 184 *;
#X obj 710 154 / 127;
#X obj 580 88 r \$0-silenceMean_l;
#X obj 710 88 r \$0-silenceDev_l;
#X obj 710 268 s \$0-silenceDev_p;
#X obj 580 268 s \$0-silenceMean_p;
#X obj 150 206 * 500;
#X msg 935 132 7;
#X obj 848 110 s \$0-savePatch;
#X msg 1065 132 8;
#X obj 978 110 s \$0-savePatch;
#X obj 970 154 / 127;
#X obj 710 226 int;
#X obj 710 184 *;
#X obj 710 206 * 500;
#X msg 115 346 4;
#X obj 28 324 s \$0-savePatch;
#X msg 244 347 12;
#X obj 158 324 s \$0-savePatch;
#X obj 20 368 / 127;
#X obj 150 368 / 127;
#X obj 20 302 r \$0-volumeMean_l;
#X obj 150 302 r \$0-volumeDev_l;
#X obj 20 456 s \$0-volumeMean_p;
#X obj 150 456 s \$0-volumeDev_p;
#X obj 20 434 int;
#X obj 150 434 int;
#X msg 374 347 59;
#X obj 287 325 s \$0-savePatch;
#X msg 504 347 8;
#X obj 417 325 s \$0-savePatch;
#X obj 279 369 / 127;
#X obj 409 369 / 127;
#X obj 279 435 int;
#X obj 20 392 sqrt;
#X obj 279 390 * 90;
#X obj 279 413 - 45;
#X obj 409 435 int;
#X obj 409 390 * 45;
#X obj 279 303 r \$0-panMean_l;
#X obj 409 303 r \$0-panDev_l;
#X obj 279 457 s \$0-panMean_p;
#X obj 409 457 s \$0-panDev_p;
#X msg 1202 119 16;
#X obj 1115 97 s \$0-savePatch;
#X obj 1107 141 / 127;
#X obj 1107 249 int;
#X obj 1107 75 r \$0-active_l;
#X obj 1107 203 * 350;
#X obj 1134 161 r \$0-pre_maxGrains;
#X obj 1107 270 s \$0-active_p;
#X obj 20 132 midilearn \$0;
#X obj 20 412 * 112;
#X obj 150 412 * 50;
#X obj 1134 181 - 1;
#X obj 1107 227 + 1;
#X obj 150 132 midilearn \$0;
#X obj 290 132 midilearn \$0;
#X obj 430 132 midilearn \$0;
#X obj 580 132 midilearn \$0;
#X obj 710 132 midilearn \$0;
#X obj 840 132 midilearn \$0;
#X obj 970 132 midilearn \$0;
#X obj 20 346 midilearn \$0;
#X obj 150 346 midilearn \$0;
#X obj 279 347 midilearn \$0;
#X obj 409 347 midilearn \$0;
#X obj 1107 119 midilearn \$0;
#X obj 20 206 * 999;
#X obj 580 206 * 1000;
#X obj 970 88 r \$0-detune_l;
#X obj 970 209 * 1200;
#X obj 970 268 s \$0-detune_p;
#X obj 970 229 int;
#X obj 970 179 *;
#X obj 840 88 r \$0-octave_l;
#X obj 840 154 / 127;
#X obj 840 206 int;
#X obj 840 268 s \$0-octave_p;
#X obj 840 184 * 3;
#X msg 115 536 16;
#X obj 28 514 s \$0-savePatch;
#X msg 254 537 15;
#X obj 168 514 s \$0-savePatch;
#X obj 20 558 / 127;
#X obj 160 558 / 127;
#X obj 20 622 int;
#X obj 160 624 int;
#X msg 394 537 16;
#X obj 307 515 s \$0-savePatch;
#X msg 524 537 14;
#X obj 437 515 s \$0-savePatch;
#X obj 299 559 / 127;
#X obj 429 559 / 127;
#X obj 299 625 int;
#X obj 429 625 int;
#X obj 20 536 midilearn \$0;
#X obj 160 536 midilearn \$0;
#X obj 299 537 midilearn \$0;
#X obj 429 537 midilearn \$0;
#X obj 20 644 s \$0-filterFreqMean_p;
#X obj 20 492 r \$0-filterFreqMean_l;
#X obj 20 580 * 9970;
#X obj 20 601 + 30;
#X obj 160 492 r \$0-filterFreqDev_l;
#X obj 160 646 s \$0-filterFreqDev_p;
#X obj 160 602 * 5000;
#X obj 299 493 r \$0-filterQMean_l;
#X obj 429 493 r \$0-filterQDev_l;
#X obj 299 647 s \$0-filterQMean_p;
#X obj 429 647 s \$0-filterQDev_p;
#X obj 299 580 * 100;
#X obj 429 580 * 50;
#X msg 654 537 14;
#X obj 567 515 s \$0-savePatch;
#X obj 559 559 / 127;
#X obj 559 537 midilearn \$0;
#X obj 559 647 s \$0-changeRate_p;
#X obj 559 493 r \$0-changeRate_l;
#X obj 559 580 * 99.9;
#X obj 559 626 + 0.1;
#X msg 664 347 9;
#X obj 577 325 s \$0-savePatch;
#X msg 794 347 2;
#X obj 707 325 s \$0-savePatch;
#X obj 569 369 / 127;
#X obj 699 369 / 127;
#X obj 569 435 int;
#X obj 699 435 int;
#X obj 569 347 midilearn \$0;
#X obj 699 347 midilearn \$0;
#X obj 699 390 * 50;
#X obj 569 303 r \$0-peakMean_l;
#X obj 569 457 s \$0-peakMean_p;
#X obj 699 303 r \$0-peakDev_l;
#X obj 699 457 s \$0-peakDev_p;
#X msg 924 347 10;
#X obj 837 325 s \$0-savePatch;
#X msg 1054 347 4;
#X obj 967 325 s \$0-savePatch;
#X obj 829 369 / 127;
#X obj 959 369 / 127;
#X obj 829 435 int;
#X obj 959 435 int;
#X obj 829 347 midilearn \$0;
#X obj 959 347 midilearn \$0;
#X obj 959 390 * 50;
#X msg 805 536 11;
#X obj 718 514 s \$0-savePatch;
#X msg 935 536 13;
#X obj 848 514 s \$0-savePatch;
#X obj 710 558 / 127;
#X obj 840 558 / 127;
#X obj 840 624 int;
#X obj 710 536 midilearn \$0;
#X obj 840 536 midilearn \$0;
#X obj 840 579 * 50;
#X obj 829 457 s \$0-attackMean_p;
#X obj 959 457 s \$0-attackDev_p;
#X obj 829 303 r \$0-attackMean_l;
#X obj 959 303 r \$0-attackDev_l;
#X obj 710 492 r \$0-releaseMean_l;
#X obj 710 646 s \$0-releaseMean_p;
#X obj 840 646 s \$0-releaseDev_p;
#X obj 840 492 r \$0-releaseDev_l;
#X obj 710 624 int;
#X obj 569 390 * 99;
#X obj 569 413 + 1;
#X obj 829 390 * 99;
#X obj 829 413 + 1;
#X obj 710 579 * 99;
#X obj 710 602 + 1;
#X connect 0 0 89 1;
#X connect 3 0 4 0;
#X connect 3 0 89 0;
#X connect 5 0 6 0;
#X connect 6 0 1 0;
#X connect 7 0 94 1;
#X connect 9 0 8 0;
#X connect 9 0 94 0;
#X connect 11 0 14 1;
#X connect 11 0 14 0;
#X connect 12 0 13 0;
#X connect 13 0 2 0;
#X connect 14 0 106 0;
#X connect 15 0 17 1;
#X connect 15 0 17 0;
#X connect 16 0 10 0;
#X connect 17 0 44 0;
#X connect 18 0 95 1;
#X connect 20 0 96 1;
#X connect 22 0 30 0;
#X connect 23 0 28 0;
#X connect 24 0 25 1;
#X connect 24 0 25 0;
#X connect 25 0 31 0;
#X connect 26 0 19 0;
#X connect 26 0 95 0;
#X connect 27 0 21 0;
#X connect 27 0 96 0;
#X connect 30 0 23 0;
#X connect 31 0 29 0;
#X connect 32 0 97 1;
#X connect 34 0 98 1;
#X connect 36 0 38 1;
#X connect 36 0 38 0;
#X connect 37 0 43 0;
#X connect 38 0 107 0;
#X connect 39 0 51 1;
#X connect 39 0 51 0;
#X connect 40 0 33 0;
#X connect 40 0 97 0;
#X connect 41 0 35 0;
#X connect 41 0 98 0;
#X connect 44 0 16 0;
#X connect 45 0 99 1;
#X connect 47 0 100 1;
#X connect 49 0 112 1;
#X connect 49 0 112 0;
#X connect 50 0 42 0;
#X connect 51 0 52 0;
#X connect 52 0 50 0;
#X connect 53 0 101 1;
#X connect 55 0 102 1;
#X connect 57 0 72 0;
#X connect 58 0 91 0;
#X connect 59 0 54 0;
#X connect 59 0 101 0;
#X connect 60 0 56 0;
#X connect 60 0 102 0;
#X connect 63 0 61 0;
#X connect 64 0 62 0;
#X connect 65 0 103 1;
#X connect 67 0 104 1;
#X connect 69 0 73 0;
#X connect 70 0 76 0;
#X connect 71 0 79 0;
#X connect 72 0 90 0;
#X connect 73 0 74 0;
#X connect 74 0 71 0;
#X connect 75 0 80 0;
#X connect 76 0 75 0;
#X connect 77 0 66 0;
#X connect 77 0 103 0;
#X connect 78 0 68 0;
#X connect 78 0 104 0;
#X connect 81 0 105 1;
#X connect 83 0 86 0;
#X connect 84 0 88 0;
#X connect 85 0 82 0;
#X connect 85 0 105 0;
#X connect 86 0 93 0;
#X connect 87 0 92 0;
#X connect 89 0 11 0;
#X connect 89 1 0 0;
#X connect 90 0 63 0;
#X connect 91 0 64 0;
#X connect 92 0 86 1;
#X connect 93 0 84 0;
#X connect 94 0 15 0;
#X connect 94 1 7 0;
#X connect 95 0 22 0;
#X connect 95 1 18 0;
#X connect 96 0 24 0;
#X connect 96 1 20 0;
#X connect 97 0 36 0;
#X connect 97 1 32 0;
#X connect 98 0 39 0;
#X connect 98 1 34 0;
#X connect 99 0 114 0;
#X connect 99 1 45 0;
#X connect 100 0 49 0;
#X connect 100 1 47 0;
#X connect 101 0 57 0;
#X connect 101 1 53 0;
#X connect 102 0 58 0;
#X connect 102 1 55 0;
#X connect 103 0 69 0;
#X connect 103 1 65 0;
#X connect 104 0 70 0;
#X connect 104 1 67 0;
#X connect 105 0 83 0;
#X connect 105 1 81 0;
#X connect 106 0 12 0;
#X connect 107 0 37 0;
#X connect 108 0 48 0;
#X connect 108 0 100 0;
#X connect 109 0 111 0;
#X connect 111 0 110 0;
#X connect 112 0 109 0;
#X connect 113 0 46 0;
#X connect 113 0 99 0;
#X connect 114 0 117 0;
#X connect 115 0 116 0;
#X connect 117 0 115 0;
#X connect 118 0 134 1;
#X connect 120 0 135 1;
#X connect 122 0 140 0;
#X connect 123 0 144 0;
#X connect 124 0 138 0;
#X connect 125 0 143 0;
#X connect 126 0 136 1;
#X connect 128 0 137 1;
#X connect 130 0 149 0;
#X connect 131 0 150 0;
#X connect 132 0 147 0;
#X connect 133 0 148 0;
#X connect 134 0 122 0;
#X connect 134 1 118 0;
#X connect 135 0 123 0;
#X connect 135 1 120 0;
#X connect 136 0 130 0;
#X connect 136 1 126 0;
#X connect 137 0 131 0;
#X connect 137 1 128 0;
#X connect 139 0 119 0;
#X connect 139 0 134 0;
#X connect 140 0 141 0;
#X connect 141 0 124 0;
#X connect 142 0 121 0;
#X connect 142 0 135 0;
#X connect 144 0 125 0;
#X connect 145 0 127 0;
#X connect 145 0 136 0;
#X connect 146 0 129 0;
#X connect 146 0 137 0;
#X connect 149 0 132 0;
#X connect 150 0 133 0;
#X connect 151 0 154 1;
#X connect 153 0 157 0;
#X connect 154 0 153 0;
#X connect 154 1 151 0;
#X connect 156 0 152 0;
#X connect 156 0 154 0;
#X connect 157 0 158 0;
#X connect 158 0 155 0;
#X connect 159 0 167 1;
#X connect 161 0 168 1;
#X connect 163 0 204 0;
#X connect 164 0 169 0;
#X connect 165 0 171 0;
#X connect 166 0 173 0;
#X connect 167 0 163 0;
#X connect 167 1 159 0;
#X connect 168 0 164 0;
#X connect 168 1 161 0;
#X connect 169 0 166 0;
#X connect 170 0 160 0;
#X connect 170 0 167 0;
#X connect 172 0 162 0;
#X connect 172 0 168 0;
#X connect 174 0 182 1;
#X connect 176 0 183 1;
#X connect 178 0 206 0;
#X connect 179 0 184 0;
#X connect 180 0 195 0;
#X connect 181 0 196 0;
#X connect 182 0 178 0;
#X connect 182 1 174 0;
#X connect 183 0 179 0;
#X connect 183 1 176 0;
#X connect 184 0 181 0;
#X connect 185 0 192 1;
#X connect 187 0 193 1;
#X connect 189 0 208 0;
#X connect 190 0 194 0;
#X connect 191 0 201 0;
#X connect 192 0 189 0;
#X connect 192 1 185 0;
#X connect 193 0 190 0;
#X connect 193 1 187 0;
#X connect 194 0 191 0;
#X connect 197 0 175 0;
#X connect 197 0 182 0;
#X connect 198 0 177 0;
#X connect 198 0 183 0;
#X connect 199 0 186 0;
#X connect 199 0 192 0;
#X connect 202 0 188 0;
#X connect 202 0 193 0;
#X connect 203 0 200 0;
#X connect 204 0 205 0;
#X connect 205 0 165 0;
#X connect 206 0 207 0;
#X connect 207 0 180 0;
#X connect 208 0 209 0;
#X connect 209 0 203 0;
#X restore 17 368 pd midi;
#N canvas 438 22 421 493 waveform 0;
#X obj 177 355 set timeline x;
#X obj 78 444 set error x;
#X obj 128 377 set error width;
#X msg 215 304 traverse pd-wave \, next \, next;
#X obj 215 326 pointer error timeline;
#N canvas 84 507 258 75 timeline 0;
#X obj -132 7 struct timeline float x float y;
#X obj -133 33 filledpolygon 0 600 1 x 2 x;
#X restore 25 16 pd timeline;
#N canvas 272 411 554 176 error 0;
#X obj -132 7 struct error float x float y float width;
#X obj -132 38 drawpolygon 50 1 0 0 0 2 width 2 width 0 0 0;
#X restore 25 37 pd error;
#X obj 78 178 -;
#X obj 215 283 loadbang;
#N canvas 154 239 450 300 rebuild 0;
#X obj 177 173 pointer;
#X msg 143 71 bang;
#X obj 66 197 append timeline x y;
#X text -1 37 use this in case you need to rebuild the subwindow...
;
#X msg 66 172 0 -1;
#X obj 143 96 t b b b b;
#X obj 16 225 append error x y width;
#X msg 177 152 traverse pd-wave \, bang;
#X msg 194 117 \; pd-wave clear;
#X msg -4 200 0 -1 0;
#X connect 0 0 2 2;
#X connect 0 0 6 3;
#X connect 1 0 5 0;
#X connect 4 0 2 0;
#X connect 5 0 4 0;
#X connect 5 1 9 0;
#X connect 5 2 7 0;
#X connect 5 3 8 0;
#X connect 7 0 0 0;
#X connect 9 0 6 0;
#X restore 25 59 pd rebuild;
#X obj 116 37 unpack;
#X obj 116 13 r \$0-readOffset;
#X obj 25 208 +;
#X obj 25 276 -;
#X msg 25 254 1 \$1;
#X obj 25 232 max 1;
#X obj 128 356 change;
#X obj 78 422 change;
#X obj 116 101 t f f;
#X obj 78 400 clip 0 1;
#X obj 105 221 min 0;
#X obj 166 105 t f f;
#X obj 66 152 t f f;
#X obj 25 152 t f f;
#X obj 78 199 t f f;
#X obj 90 308 +;
#X obj 128 334 +;
#X obj 177 326 * 0.5;
#X obj 143 314 * 2;
#X obj 166 78 * 0.01;
#X obj 116 79 * 0.01;
#X connect 3 0 4 0;
#X connect 4 0 1 1;
#X connect 4 0 2 1;
#X connect 4 1 0 1;
#X connect 7 0 24 0;
#X connect 8 0 3 0;
#X connect 10 0 30 0;
#X connect 10 1 29 0;
#X connect 11 0 10 0;
#X connect 12 0 15 0;
#X connect 13 0 25 0;
#X connect 14 0 13 0;
#X connect 15 0 14 0;
#X connect 16 0 2 0;
#X connect 17 0 1 0;
#X connect 18 0 27 0;
#X connect 18 1 23 0;
#X connect 19 0 17 0;
#X connect 20 0 25 1;
#X connect 21 0 22 0;
#X connect 21 1 28 0;
#X connect 22 0 12 1;
#X connect 22 1 7 1;
#X connect 23 0 12 0;
#X connect 23 1 7 0;
#X connect 24 0 19 0;
#X connect 24 1 20 0;
#X connect 25 0 26 0;
#X connect 26 0 16 0;
#X connect 27 0 0 0;
#X connect 28 0 26 1;
#X connect 29 0 21 0;
#X connect 30 0 18 0;
#X restore 17 389 pd waveform;
#N canvas 661 22 215 556 loadbang 0;
#X obj 11 50 \$0;
#X obj 11 31 bng 15 250 50 0 empty empty empty 17 7 0 10 -262144 -1
-1;
#X obj 11 11 r \$0-loadbang1;
#X obj 11 485 metro;
#X obj 11 441 delay 200;
#X msg 11 462 1;
#X obj 48 462 r \$0-speedLimit;
#X obj 11 506 s \$0-clock;
#X msg 11 70 bang \; \$1-grainSizeMean_p 80 \; \$1-grainSizeDev_p 10
\; \$1-readOffsetMean_p 50 \; \$1-readOffsetDev_p 5 \; \$1-silenceMean_p
5 \; \$1-silenceDev_p 5 \; \$1-octave_p 1 \; \$1-detune 10 \; \$1-volumeMean_p
90 \; \$1-volumeDev_p 10 \; \$1-panMean_p 0 \; \$1-panDev_p 45 \; \$1-peakMean_p
50 \; \$1-peakDev_p 0 \; \$1-attackMean_p 50 \; \$1-attackDev_p 0 \;
\$1-releaseMean_p 50 \; \$1-releaseDev_p 0 \; \$1-changeRate_p 0.1
\; \$1-filterFreqMean_p 1000 \; \$1-filterFreqDev_p 1000 \; \$1-filterQMean_p
1 \; \$1-filterQDev_p 0 \; \$1-active_p 1 \; \$1-speedRatio_p 1 \;
\$1-speedLimit_p 300 \; \$1-midiChannel_p 1;
#X connect 0 0 8 0;
#X connect 1 0 0 0;
#X connect 2 0 1 0;
#X connect 3 0 7 0;
#X connect 4 0 5 0;
#X connect 5 0 3 0;
#X connect 6 0 3 1;
#X connect 8 0 4 0;
#X restore 17 283 pd loadbang;
#X msg 16 48 2;
#X msg 16 138 \$2 \; \$2-initStart 0 \; pd dsp 0 \; \$2-maxGrains \$1
\; \$2-active_p range 1 \$1;
#N canvas 355 217 450 300 todo's 0;
#X text 12 25 -make graphics interactive;
#X text 12 5 -add graphic information for grainsize;
#X restore 17 409 pd todo's;
#N canvas 669 200 259 511 env_graph 0;
#X obj 41 75 until;
#X obj 41 192 moses;
#X obj 41 101 f 0;
#X obj 72 101 + 1;
#X obj 128 149 + 1;
#X msg 86 73 0;
#X obj 41 52 t f bang;
#X obj 56 269 /;
#X msg 56 249 1 \$1;
#X obj 41 289 *;
#X obj 97 240 -;
#X msg 97 219 1 \$1;
#X msg 134 219 1 \$1;
#X obj 134 239 -;
#X obj 97 261 /;
#X obj 41 148 * 0.01;
#X msg 41 30 100;
#X obj 41 9 r \$0-calculate;
#X obj 140 104 t b f;
#X obj 140 126 s \$0-calculate;
#X obj 89 419 t b f;
#X obj 89 441 s \$0-calculate;
#X obj 145 310 t b f;
#X obj 145 332 s \$0-calculate;
#X obj 41 460 circular_sigmoid;
#X obj 97 354 circular_sigmoid;
#X obj 140 55 r \$0-peak;
#X obj 140 78 unpack;
#X obj 89 399 unpack;
#X obj 145 290 unpack;
#X obj 41 484 tabwrite \$0-env;
#X obj 41 126 trigger float f;
#X obj 145 270 r \$0-release;
#X obj 90 378 r \$0-attack;
#X connect 0 0 2 0;
#X connect 1 0 9 0;
#X connect 1 1 11 0;
#X connect 2 0 3 0;
#X connect 2 0 31 0;
#X connect 3 0 2 1;
#X connect 4 0 30 1;
#X connect 5 0 2 1;
#X connect 6 0 0 0;
#X connect 6 1 5 0;
#X connect 7 0 9 1;
#X connect 8 0 7 0;
#X connect 9 0 24 0;
#X connect 10 0 14 0;
#X connect 11 0 10 0;
#X connect 12 0 13 0;
#X connect 13 0 14 1;
#X connect 14 0 25 0;
#X connect 15 0 1 0;
#X connect 16 0 6 0;
#X connect 17 0 16 0;
#X connect 18 0 19 0;
#X connect 18 1 12 0;
#X connect 18 1 8 0;
#X connect 18 1 1 1;
#X connect 20 0 21 0;
#X connect 20 1 24 1;
#X connect 22 0 23 0;
#X connect 22 1 25 1;
#X connect 24 0 30 0;
#X connect 25 0 30 0;
#X connect 26 0 27 0;
#X connect 27 0 18 0;
#X connect 28 0 20 0;
#X connect 29 0 22 0;
#X connect 31 0 15 0;
#X connect 31 1 4 0;
#X connect 32 0 29 0;
#X connect 33 0 28 0;
#X restore 91 283 pd env_graph;
#X obj 254 47 getdir;
#X obj 140 445 declare -path abs -stdpath maxlib -stdpath hcs -stdpath
iemlib -stdpath mapping -stdpath zexy -stdpath ggee -stdpath purepd
-stdpath motex -stdpath cyclone;
#X connect 0 0 34 0;
#X connect 2 0 3 0;
#X connect 3 0 35 0;
#X connect 6 0 7 0;
#X connect 7 0 21 0;
#X connect 8 0 9 0;
#X connect 9 0 11 0;
#X connect 9 0 24 0;
#X connect 10 0 9 1;
#X connect 10 0 25 0;
#X connect 11 0 17 0;
#X connect 12 0 38 0;
#X connect 14 0 10 0;
#X connect 15 0 30 0;
#X connect 17 0 19 0;
#X connect 17 1 16 0;
#X connect 19 0 18 0;
#X connect 20 0 22 1;
#X connect 21 0 22 0;
#X connect 21 1 20 0;
#X connect 22 0 23 0;
#X connect 23 0 8 0;
#X connect 27 0 26 0;
#X connect 28 0 26 1;
#X connect 34 0 3 0;
#X connect 34 0 29 0;
#X connect 35 0 15 0;
#X connect 38 0 6 0;
#X restore 545 7 pd patch;
#X obj 363 182 bng 8 250 50 0 \$0-filterQMean_l nothing empty 17 7
0 10 -228856 -1 -1;
#X obj 413 182 bng 8 250 50 0 \$0-filterQDev_l nothing empty 17 7 0
10 -228856 -1 -1;
#X obj 555 262 nbx 3 14 1 2 0 0 \$0-active \$0-active_p empty 0 -8
0 10 -228856 -1 -1 1 256;
#X text 16 4 GENERAL SETTINGS;
#X text 5 528 angelfaraldo@gmail.com - 2013;
#X text 552 241 voices;
#N canvas 0 22 450 278 (subpatch) 0;
#X array \$0-env 103 float 1;
#A 0 0 0 0.000400156 0.00160256 0.00361305 0.0064415 0.0101021 0.0146136
0.02 0.0262912 0.0335239 0.0417424 0.0510011 0.0613658 0.0729169 0.0857537
0.1 0.115813 0.133394 0.153013 0.175038 0.2 0.228707 0.262513 0.304041
0.36 0.5 0.64 0.695959 0.737487 0.771293 0.8 0.824962 0.846987 0.866606
0.884187 0.9 0.914246 0.927083 0.938634 0.948999 0.958258 0.966476
0.973709 0.98 0.985386 0.989898 0.993559 0.996387 0.998397 0.9996 1
0.9996 0.998397 0.996387 0.993559 0.989898 0.985386 0.98 0.973709 0.966476
0.958258 0.948999 0.938634 0.927083 0.914246 0.9 0.884188 0.866606
0.846987 0.824962 0.8 0.771293 0.737487 0.695959 0.64 0.5 0.36 0.304041
0.262513 0.228707 0.2 0.175038 0.153013 0.133394 0.115813 0.1 0.0857537
0.0729169 0.0613658 0.0510011 0.0417424 0.0335239 0.0262913 0.02 0.0146136
0.0101021 0.0064415 0.00361305 0.00160259 0.000400156 0 0;
#X coords 0 1 102 0 30 30 1 0 0;
#X restore 515 111 graph;
#X floatatom 244 124 3 1 99 0 - #0-peakMean_p #0-peakMean, f 3;
#X floatatom 285 125 3 0 50 0 - #0-peakDev_p #0-peakDev, f 3;
#X obj 273 125 bng 8 250 50 0 \$0-peakDev_l nothing empty 17 7 0 10
-228856 -1 -1;
#X obj 233 129 bng 8 250 50 0 \$0-peakMean_l nothing empty 17 7 0 10
-228856 -1 -1;
#X text 242 161 filter frequency;
#X text 372 161 filter Q;
#X text 230 90 ENVELOPE;
#X floatatom 334 124 3 1 99 0 - #0-attackMean_p #0-attackMean, f 3
;
#X floatatom 375 125 3 0 50 0 - #0-attackDev_p #0-attackDev, f 3;
#X obj 363 125 bng 8 250 50 0 \$0-attackDev_l nothing empty 17 7 0
10 -228856 -1 -1;
#X obj 323 125 bng 8 250 50 0 \$0-attackMean_l nothing empty 17 7 0
10 -228856 -1 -1;
#X floatatom 424 124 3 1 99 0 - #0-releaseMean_p #0-releaseMean, f
3;
#X floatatom 465 125 3 0 50 0 - #0-releaseDev_p #0-releaseDev, f 3
;
#X obj 453 125 bng 8 250 50 0 \$0-releaseDev_l nothing empty 17 7 0
10 -228856 -1 -1;
#X obj 413 125 bng 8 250 50 0 \$0-releaseMean_l nothing empty 17 7
0 10 -228856 -1 -1;
#X text 242 104 peak (%);
#X text 332 104 attack (%);
#X text 422 104 release (%);
#X floatatom 7 63 3 0 16 0 - #0-midiChannel_p #0-midiChannel, f 3
;
#X text 34 63 midi channel (0 for OMNI MODE);
#X obj 434 322 hradio 15 1 0 3 \$0-octave \$0-octave_p empty 0 -8 0
10 -228856 -1 -1 1;
#X text 432 300 octave;
#X text 502 300 detune (cents);
#X text 230 149 FILTER;
#X floatatom 484 181 5 0.1 100 0 - #0-changeRate_p #0-changeRate,
f 5;
#X obj 473 182 bng 8 250 50 0 \$0-changeRate_l nothing empty 17 7 0
10 -228856 -1 -1;
#X text 482 161 change rate (Hz);
#X text 33 23 maximum number of grains;
#X text 34 43 (ms.) speed limit for critical calculations;
