#N canvas 112 22 503 468 10;
#N canvas 599 22 160 752 instances 0;
#X restore 130 406 pd instances;
#X obj 118 386 s pd-instances;
#X obj 48 103 until;
#X obj 48 154 f 0;
#X obj 74 153 + 1;
#X msg 86 103 0;
#X msg 114 103 clear;
#X obj 48 176 t f f;
#X obj 67 70 t f b b;
#X obj 75 199 * 25;
#X obj 75 219 + 25;
#X obj 18 314 pack f s f;
#X obj 28 14 inlet;
#X msg 18 340 obj 25 \$3 \$2 \$1;
#X obj 46 291 symbol \$1;
#X obj 46 267 loadbang;
#X obj 67 48 f \$2;
#X obj 67 14 loadbang;
#X text 170 10 ARGUMENTS:;
#X text 170 55 2) number of instances;
#X text 170 35 1) name of the object;
#X text 214 406 (new objects are placed inside the subpatch);
#X text 367 439 angel faraldo 2011;
#X connect 2 0 3 0;
#X connect 3 0 4 0;
#X connect 3 0 7 0;
#X connect 4 0 3 1;
#X connect 5 0 3 1;
#X connect 6 0 1 0;
#X connect 7 0 11 0;
#X connect 7 1 9 0;
#X connect 8 0 2 0;
#X connect 8 1 5 0;
#X connect 8 2 6 0;
#X connect 9 0 10 0;
#X connect 10 0 11 2;
#X connect 11 0 13 0;
#X connect 12 0 16 0;
#X connect 13 0 1 0;
#X connect 14 0 11 1;
#X connect 15 0 14 0;
#X connect 16 0 8 0;
#X connect 17 0 16 0;
