#N canvas 198 22 932 715 10;
#X msg 352 223 \$1 \, \$2 \$3;
#X obj 407 36 t f f;
#X obj 380 158 +;
#X obj 353 115 t f f;
#X obj 314 65 *;
#X obj 368 73 *;
#X obj 352 158 f;
#X obj 352 303 *~;
#X obj -22 473 delay;
#X obj 368 94 t b f;
#X obj 4 405 delay;
#X obj 225 276 line~;
#X obj 225 234 * 0.1;
#X obj 337 330 *~;
#X obj -2 62 >= \$1;
#X obj -22 152 sel 0 1;
#X msg -22 195 stop;
#X obj -22 130 &&;
#X obj -2 108 t b f;
#X obj 290 265 switch~;
#X obj 224 162 moses 1;
#X obj 263 185 t f f;
#X obj 224 184 t f f;
#X obj 263 206 pipe 5;
#X msg 225 255 \$1 10;
#X obj 264 234 pipe 15;
#X obj 690 510 pan~;
#X obj 337 419 *~ 0;
#X obj 366 394 dbtorms;
#X obj 395 137 *;
#X obj 711 530 throw~ \$2-out2;
#X obj 690 550 throw~ \$2-out1;
#X obj -22 -114 r \$2-start;
#X obj -14 -94 r \$2-active;
#X obj 30 153 r \$2-loop-\$1;
#X obj 5 450 r \$2-grainSize-\$1;
#X obj -22 495 s \$2-loop-\$1;
#X obj 446 38 r \$2-bang1-\$1;
#X obj 407 -49 r \$2-bang2-\$1;
#X obj 415 15 s \$2-grainSize-\$1;
#X obj 355 -6 r \$2-SR;
#X obj 314 -113 r \$2-bang3-\$1;
#X obj 352 180 pack 0 0 0;
#X obj 352 267 tabread4~ \$2-soundfile;
#X obj 129 217 s \$2-bang1-\$1;
#X obj 115 237 s \$2-bang2-\$1;
#X obj 101 259 s \$2-bang3-\$1;
#X obj 87 279 s \$2-bang4-\$1;
#X obj 73 299 s \$2-bang5-\$1;
#X obj 59 320 s \$2-bang6-\$1;
#X obj -14 -49 pipe 500;
#X obj -2 -4 ==;
#X obj 14 -26 t b f;
#X obj -2 18 sel 1;
#X obj -2 41 f;
#X obj -14 -73 t f f f;
#X obj -2 83 change;
#X obj 314 -91 a.triang readOffset \$2;
#X obj 314 -8 * 1;
#X obj 329 -29 r \$2-sizeMs;
#X obj 314 -50 * 0.01;
#X obj 314 -70 clip 0 100;
#X obj 355 15 * 0.001;
#X obj 407 -29 a.triang grainSize \$2;
#X obj 366 351 a.triang volume \$2;
#X obj 711 468 a.triang pan \$2;
#X obj 31 362 a.triang silence \$2;
#X obj 407 -7 clip 1 1000;
#X obj 366 372 clip 0 112;
#X obj 711 489 clip -45 45;
#X obj 352 245 line~;
#X obj 31 384 clip 0 1000;
#X obj 446 124 clip 0.25 4;
#X obj 11 428 s \$2-del-\$1;
#X obj 277 115 r \$2-del-\$1;
#X obj 18 196 t b b b b b b b b b;
#X obj 45 340 s \$2-bang7-\$1;
#X obj 711 448 r \$2-bang7-\$1;
#X obj 366 330 r \$2-bang6-\$1;
#X obj 352 200 t l l;
#X obj 495 246 vline~;
#X obj 599 85 s \$0-peak;
#X obj 582 108 s \$0-calculate;
#X obj 616 39 s \$0-attack;
#X obj 633 -6 s \$0-release;
#N canvas 88 137 282 421 envelope 0;
#X obj -8943 71 until;
#X obj -8943 168 moses;
#X obj -8943 97 f 0;
#X obj -8912 97 + 1;
#X obj -8832 145 + 1;
#X msg -8898 69 0;
#X obj -8943 48 t f bang;
#X obj -8928 255 /;
#X msg -8928 235 1 \$1;
#X obj -8943 275 *;
#X obj -8860 228 -;
#X msg -8860 207 1 \$1;
#X msg -8797 207 1 \$1;
#X obj -8797 227 -;
#X obj -8860 249 /;
#X obj -8943 122 trigger float float;
#X obj -8943 144 * 0.01;
#X msg -8943 26 100;
#X obj -8943 5 r \$0-calculate;
#X obj -8797 155 r \$0-peak;
#X obj -8850 293 r \$0-attack;
#X obj -8767 251 r \$0-release;
#X obj -8943 339 tabwrite \$0-envelope;
#X obj -8942 361 table \$0-envelope 103;
#X obj -8943 315 circular_sigmoid;
#X obj -8860 272 circular_sigmoid;
#X connect 0 0 2 0;
#X connect 1 0 9 0;
#X connect 1 1 11 0;
#X connect 2 0 3 0;
#X connect 2 0 15 0;
#X connect 3 0 2 1;
#X connect 4 0 22 1;
#X connect 5 0 2 1;
#X connect 6 0 0 0;
#X connect 6 1 5 0;
#X connect 7 0 9 1;
#X connect 8 0 7 0;
#X connect 9 0 24 0;
#X connect 10 0 14 0;
#X connect 11 0 10 0;
#X connect 12 0 13 0;
#X connect 13 0 14 1;
#X connect 14 0 25 0;
#X connect 15 0 16 0;
#X connect 15 1 4 0;
#X connect 16 0 1 0;
#X connect 17 0 6 0;
#X connect 18 0 17 0;
#X connect 19 0 12 0;
#X connect 19 0 1 1;
#X connect 19 0 8 0;
#X connect 20 0 24 1;
#X connect 21 0 25 1;
#X connect 24 0 22 0;
#X connect 25 0 22 0;
#X restore 582 129 pd envelope;
#X obj 495 268 tabread4~ \$0-envelope;
#X obj 599 62 a.triang peak \$2;
#X obj 616 16 a.triang attack \$2;
#X obj 633 -28 a.triang release \$2;
#X obj 582 -48 t b b b b;
#X msg 495 225 1 \, 101 \$3;
#X obj 582 -114 r \$2-bang6-\$1;
#X obj 446 60 a.triang tuning \$2;
#X obj 446 103 pow;
#X msg 446 81 1.00058 \$1;
#X obj 633 316 clip~ 30 20000;
#X obj 567 461 vcf_rbp2~ 100 0.01;
#X obj 693 379 clip~ 0 100;
#X obj 693 401 *~ 0.04;
#X obj 693 421 -~ 1;
#X obj 672 441 pow~;
#X obj 672 338 sig~ 10;
#X obj 693 358 a.triang~ filterQ \$2;
#X obj 633 295 a.triang~ filterFreq \$2;
#X text 356 519 add a transfer Function for filter compensation;
#X obj 603 -91 r \$2-clock;
#X obj 582 -69 uanz;
#X connect 0 0 70 0;
#X connect 1 0 5 0;
#X connect 1 1 42 2;
#X connect 2 0 42 1;
#X connect 3 0 6 1;
#X connect 3 1 2 0;
#X connect 4 0 3 0;
#X connect 5 0 9 0;
#X connect 6 0 42 0;
#X connect 7 0 13 1;
#X connect 8 0 36 0;
#X connect 9 0 3 0;
#X connect 9 1 29 0;
#X connect 10 0 8 0;
#X connect 10 0 73 0;
#X connect 11 0 13 0;
#X connect 12 0 24 0;
#X connect 13 0 27 0;
#X connect 14 0 56 0;
#X connect 15 0 16 0;
#X connect 15 1 75 0;
#X connect 16 0 8 0;
#X connect 16 0 10 0;
#X connect 17 0 15 0;
#X connect 18 0 17 0;
#X connect 18 1 17 1;
#X connect 18 1 20 0;
#X connect 20 0 22 0;
#X connect 20 1 21 0;
#X connect 21 0 23 0;
#X connect 21 1 19 0;
#X connect 22 0 25 0;
#X connect 22 1 12 0;
#X connect 23 0 12 0;
#X connect 24 0 11 0;
#X connect 25 0 19 0;
#X connect 26 0 31 0;
#X connect 26 1 30 0;
#X connect 27 0 97 0;
#X connect 28 0 27 1;
#X connect 29 0 2 1;
#X connect 32 0 17 0;
#X connect 33 0 55 0;
#X connect 34 0 75 0;
#X connect 35 0 8 1;
#X connect 37 0 93 0;
#X connect 38 0 63 0;
#X connect 40 0 62 0;
#X connect 41 0 57 0;
#X connect 42 0 79 0;
#X connect 43 0 7 0;
#X connect 50 0 51 0;
#X connect 51 0 53 0;
#X connect 52 0 51 0;
#X connect 52 1 51 1;
#X connect 53 0 54 0;
#X connect 54 0 14 0;
#X connect 55 0 50 0;
#X connect 55 1 52 0;
#X connect 55 2 54 1;
#X connect 56 0 18 0;
#X connect 57 0 61 0;
#X connect 58 0 4 0;
#X connect 59 0 58 1;
#X connect 60 0 58 0;
#X connect 61 0 60 0;
#X connect 62 0 4 1;
#X connect 62 0 5 1;
#X connect 63 0 67 0;
#X connect 64 0 68 0;
#X connect 65 0 69 0;
#X connect 66 0 71 0;
#X connect 67 0 39 0;
#X connect 67 0 1 0;
#X connect 68 0 28 0;
#X connect 69 0 26 1;
#X connect 70 0 43 0;
#X connect 71 0 10 1;
#X connect 72 0 29 1;
#X connect 74 0 6 0;
#X connect 75 0 10 0;
#X connect 75 1 66 0;
#X connect 75 2 76 0;
#X connect 75 3 49 0;
#X connect 75 4 48 0;
#X connect 75 5 47 0;
#X connect 75 6 46 0;
#X connect 75 7 45 0;
#X connect 75 8 44 0;
#X connect 77 0 65 0;
#X connect 78 0 64 0;
#X connect 79 0 0 0;
#X connect 79 1 91 0;
#X connect 80 0 86 0;
#X connect 86 0 7 1;
#X connect 87 0 81 0;
#X connect 88 0 83 0;
#X connect 89 0 84 0;
#X connect 90 0 82 0;
#X connect 90 1 87 0;
#X connect 90 2 88 0;
#X connect 90 3 89 0;
#X connect 91 0 80 0;
#X connect 92 0 107 0;
#X connect 93 0 95 0;
#X connect 94 0 72 0;
#X connect 95 0 94 0;
#X connect 96 0 97 1;
#X connect 97 0 26 0;
#X connect 98 0 99 0;
#X connect 99 0 100 0;
#X connect 100 0 101 1;
#X connect 101 0 97 2;
#X connect 102 0 101 0;
#X connect 103 0 98 0;
#X connect 104 0 96 0;
#X connect 106 0 107 1;
#X connect 107 0 90 0;
