#N canvas 157 22 930 747 10;
#X msg 476 318 \$1 \, \$2 \$3;
#X obj 506 113 t f f;
#X obj 491 249 +;
#X obj 461 193 t f f;
#X obj 460 114 / 1000;
#X obj 445 144 *;
#X obj 492 143 *;
#X obj 462 249 f;
#X obj 476 295 t l l;
#X obj 618 345 vline~;
#X obj 618 369 cos~;
#X obj 476 398 *~;
#X obj 16 471 delay;
#X obj 492 164 t b f;
#X msg 618 322 0.75 \, 1.25 \$3;
#X obj 42 402 delay;
#X obj 445 51 max 0;
#X obj 249 311 line~;
#X obj 249 269 * 0.1;
#X obj 461 420 *~;
#X obj 26 92 >= \$1;
#X obj 16 182 sel 0 1;
#X msg 16 205 stop;
#X obj 16 160 &&;
#X obj 26 138 t b f;
#X obj 314 300 switch~;
#X obj 248 197 moses 1;
#X obj 287 220 t f f;
#X obj 248 219 t f f;
#X obj 506 71 max 1;
#X obj 69 382 max 0;
#X obj 287 241 pipe 5;
#X msg 249 290 \$1 10;
#X obj 288 269 pipe 15;
#X obj 461 578 pan~;
#X obj 461 509 *~ 0;
#X obj 482 486 dbtorms;
#X obj 645 86 pow;
#X msg 645 66 2 \$1;
#X obj 510 225 *;
#X obj 482 598 throw~ \$2-out2;
#X obj 461 618 throw~ \$2-out1;
#X obj -45 72 r \$2-start;
#X obj 14 -64 r \$2-active;
#X obj 67 182 r \$2-loop-\$1;
#X obj 43 448 r \$2-grainSize-\$1;
#X obj 16 493 s \$2-loop-\$1;
#X obj 491 421 r \$2-bang5-\$1;
#X obj 645 24 r \$2-bang1-\$1;
#X obj 506 -19 r \$2-bang2-\$1;
#X obj 514 92 s \$2-grainSize-\$1;
#X obj 453 73 r \$2-SR;
#X obj 445 -65 r \$2-bang3-\$1;
#X obj 476 275 pack 0 0 0;
#X obj 476 340 vline~;
#X obj 476 364 tabread4~ \$2-soundfile;
#X obj 492 509 r \$2-bang6-\$1;
#X obj 55 206 t b b b b b b b b;
#X obj 154 229 s \$2-bang1-\$1;
#X obj 139 249 s \$2-bang2-\$1;
#X obj 125 271 s \$2-bang3-\$1;
#X obj 111 291 s \$2-bang4-\$1;
#X obj 97 311 s \$2-bang5-\$1;
#X obj 83 332 s \$2-bang6-\$1;
#X obj 14 -19 pipe 500;
#X obj 26 26 ==;
#X obj 41 4 t b f;
#X obj 26 48 sel 1;
#X obj 26 71 f;
#X obj 14 -43 t f f f;
#X obj 332 193 r \$2-delaySilence-\$1;
#X obj 50 424 s \$2-delaySilence-\$1;
#X obj 26 113 change;
#X obj 445 -43 a.parameterDistribution readOffset \$2 gauss;
#X obj 506 1 a.parameterDistribution grainSize \$2 gauss;
#X obj 645 46 a.parameterDistribution speed \$2 gauss;
#X obj 645 108 a.mirrorWall 0.25 4 \$2;
#X obj 491 442 a.parameterDistribution volume \$2 gauss;
#X obj 492 529 a.parameterDistribution pan \$2 gauss;
#X obj 69 360 a.parameterDistribution silence \$2 gauss;
#X obj 492 550 a.mirrorWall -45 45 \$2;
#X obj 491 463 a.mirrorWall 0 112 \$2;
#X connect 0 0 54 0;
#X connect 1 0 6 0;
#X connect 1 1 53 2;
#X connect 2 0 53 1;
#X connect 3 0 7 1;
#X connect 3 1 2 0;
#X connect 4 0 5 1;
#X connect 4 0 6 1;
#X connect 5 0 3 0;
#X connect 6 0 13 0;
#X connect 7 0 53 0;
#X connect 8 0 0 0;
#X connect 8 1 14 0;
#X connect 9 0 10 0;
#X connect 10 0 11 1;
#X connect 11 0 19 1;
#X connect 12 0 46 0;
#X connect 13 0 3 0;
#X connect 13 1 39 0;
#X connect 14 0 9 0;
#X connect 15 0 12 0;
#X connect 15 0 71 0;
#X connect 16 0 5 0;
#X connect 17 0 19 0;
#X connect 18 0 32 0;
#X connect 19 0 35 0;
#X connect 20 0 72 0;
#X connect 21 0 22 0;
#X connect 21 1 57 0;
#X connect 22 0 12 0;
#X connect 22 0 15 0;
#X connect 23 0 21 0;
#X connect 24 0 23 0;
#X connect 24 1 23 1;
#X connect 24 1 26 0;
#X connect 26 0 28 0;
#X connect 26 1 27 0;
#X connect 27 0 31 0;
#X connect 27 1 25 0;
#X connect 28 0 33 0;
#X connect 28 1 18 0;
#X connect 29 0 1 0;
#X connect 29 0 50 0;
#X connect 30 0 15 1;
#X connect 31 0 18 0;
#X connect 32 0 17 0;
#X connect 33 0 25 0;
#X connect 34 0 41 0;
#X connect 34 1 40 0;
#X connect 35 0 34 0;
#X connect 36 0 35 1;
#X connect 37 0 76 0;
#X connect 38 0 37 0;
#X connect 39 0 2 1;
#X connect 42 0 23 0;
#X connect 43 0 69 0;
#X connect 44 0 57 0;
#X connect 45 0 12 1;
#X connect 47 0 77 0;
#X connect 48 0 75 0;
#X connect 49 0 74 0;
#X connect 51 0 4 0;
#X connect 52 0 73 0;
#X connect 53 0 8 0;
#X connect 54 0 55 0;
#X connect 55 0 11 0;
#X connect 56 0 78 0;
#X connect 57 0 15 0;
#X connect 57 1 79 0;
#X connect 57 2 63 0;
#X connect 57 3 62 0;
#X connect 57 4 61 0;
#X connect 57 5 60 0;
#X connect 57 6 59 0;
#X connect 57 7 58 0;
#X connect 64 0 65 0;
#X connect 65 0 67 0;
#X connect 66 0 65 0;
#X connect 66 1 65 1;
#X connect 67 0 68 0;
#X connect 68 0 20 0;
#X connect 69 0 64 0;
#X connect 69 1 66 0;
#X connect 69 2 68 1;
#X connect 70 0 7 0;
#X connect 72 0 24 0;
#X connect 73 0 16 0;
#X connect 74 0 29 0;
#X connect 75 0 38 0;
#X connect 76 0 39 1;
#X connect 77 0 81 0;
#X connect 78 0 80 0;
#X connect 79 0 30 0;
#X connect 80 0 34 1;
#X connect 81 0 36 0;
