#N canvas 690 164 311 400 10;
#X obj 20 -34 inlet;
#X obj 129 320 outlet;
#X obj 129 298 + \$1;
#X obj 129 277 *;
#X obj 20 221 / 3.14159;
#X obj 20 198 + 1.5708;
#X obj 20 175 expr asin(sin($f1));
#X obj 20 150 - 1.5708;
#X obj 20 128 * 3.14159;
#X obj 20 106 /;
#X obj 20 -11 - \$1;
#X obj 144 43 - \$1;
#X obj 144 22 f \$2;
#X obj 144 0 r \$3-loadbang2;
#X connect 0 0 10 0;
#X connect 2 0 1 0;
#X connect 3 0 2 0;
#X connect 4 0 3 0;
#X connect 5 0 4 0;
#X connect 6 0 5 0;
#X connect 7 0 6 0;
#X connect 8 0 7 0;
#X connect 9 0 8 0;
#X connect 10 0 9 0;
#X connect 11 0 3 1;
#X connect 11 0 9 1;
#X connect 12 0 11 0;
#X connect 13 0 12 0;
