#N canvas 704 22 338 312 10;
#X obj 4 69 *~ 0.5;
#X obj 4 91 +~ 0.5;
#X obj 64 90 unpack;
#X obj 64 68 r \$2-\$1;
#X obj 43 159 +~ 0;
#X obj 76 130 *~ 1;
#X obj 43 181 outlet~;
#X obj 4 48 noisi~ 1;
#X obj 4 16 r \$2-changeRate;
#X connect 0 0 1 0;
#X connect 1 0 5 0;
#X connect 2 0 4 1;
#X connect 2 1 5 1;
#X connect 3 0 2 0;
#X connect 4 0 6 0;
#X connect 5 0 4 0;
#X connect 7 0 0 0;
#X connect 8 0 7 0;
