#N canvas 321 153 797 385 10;
#N canvas 0 22 450 300 (subpatch) 0;
#X array \$0-soundfile 531968 float 2;
#X coords 0 1 531968 -1 780 140 1;
#X restore -169 125 graph;
#X obj -170 0 tgl 30 0 \$0-start \$0-initStart empty 17 7 0 10 -262144
-1 -1 0 1;
#X obj -170 -35 bng 30 250 50 0 \$0-loadFile empty empty 17 7 0 10
-262144 -1 -1;
#N canvas 358 120 439 484 patch 0;
#X obj -174 -54 loadbang;
#N canvas 0 22 229 292 makeGrains 0;
#X obj 42 84 until;
#X obj 68 112 + 1;
#X msg 112 84 clear;
#X obj 42 135 t f f;
#X obj 61 57 t f b b;
#X obj 69 158 * 25;
#X obj 69 178 + 25;
#X obj 42 113 f 1;
#X msg 80 84 1;
#X obj 61 35 pipe 1;
#X obj 24 199 pack f f \$0;
#X obj 61 14 r \$0-maxGrains;
#X obj 112 250 s pd-\$0-grains;
#X msg 24 220 obj 25 \$2 a.fileGrain \$1 \$3;
#X connect 0 0 7 0;
#X connect 1 0 7 1;
#X connect 2 0 12 0;
#X connect 3 0 10 0;
#X connect 3 1 5 0;
#X connect 4 0 0 0;
#X connect 4 1 8 0;
#X connect 4 2 2 0;
#X connect 5 0 6 0;
#X connect 6 0 10 1;
#X connect 7 0 1 0;
#X connect 7 0 3 0;
#X connect 8 0 7 1;
#X connect 9 0 4 0;
#X connect 10 0 13 0;
#X connect 11 0 9 0;
#X connect 13 0 12 0;
#X restore -173 246 pd makeGrains;
#X obj -164 10 r \$0-pre_maxGrains;
#X obj -174 33 pack 0 \$0;
#N canvas 0 22 179 666 \$0-grains 0;
#X obj 25 50 a.fileGrain 1 1002;
#X obj 25 75 a.fileGrain 2 1002;
#X obj 25 100 a.fileGrain 3 1002;
#X obj 25 125 a.fileGrain 4 1002;
#X obj 25 150 a.fileGrain 5 1002;
#X obj 25 175 a.fileGrain 6 1002;
#X obj 25 200 a.fileGrain 7 1002;
#X obj 25 225 a.fileGrain 8 1002;
#X obj 25 250 a.fileGrain 9 1002;
#X obj 25 275 a.fileGrain 10 1002;
#X obj 25 300 a.fileGrain 11 1002;
#X obj 25 325 a.fileGrain 12 1002;
#X restore -173 268 pd \$0-grains;
#N canvas 503 22 691 571 mapping 0;
#X obj 153 115 line 0 1;
#X obj 11 406 pack 0 0;
#X obj 21 384 t b f;
#X obj 153 15 f;
#X obj 153 67 pack f f;
#X obj 168 -18 r \$0-sizeMs;
#X obj 11 429 s \$0-grainSize;
#X obj 11 343 r \$0-grainSizeMean;
#X obj 515 47 \$0;
#X obj 515 28 bng 15 250 50 0 empty empty empty 17 7 0 10 -262144 -1
-1;
#X obj 21 363 r \$0-grainSizeDev;
#X obj 515 8 r \$0-loadbang1;
#X obj 261 405 pack 0 0;
#X obj 271 383 t b f;
#X obj 261 428 s \$0-silence;
#X obj 271 362 r \$0-silenceDev;
#X obj 261 342 r \$0-silenceMean;
#X obj 371 405 pack 0 0;
#X obj 381 383 t b f;
#X obj 371 342 r \$0-speedMean;
#X obj 381 362 r \$0-speedDev;
#X obj 371 428 s \$0-speed;
#X obj 471 405 pack 0 0;
#X obj 481 383 t b f;
#X obj 471 342 r \$0-volumeMean;
#X obj 481 362 r \$0-volumeDev;
#X obj 471 428 s \$0-volume;
#X obj 571 405 pack 0 0;
#X obj 581 383 t b f;
#X obj 571 342 r \$0-panMean;
#X obj 581 362 r \$0-panDev;
#X obj 571 428 s \$0-pan;
#X obj 153 407 pack 0 0;
#X obj 171 385 t b f;
#X obj 163 251 r \$0-readOffsetMean;
#X obj 206 271 r \$0-readOffsetDev;
#X obj 221 313 r \$0-sizeMs;
#X obj 163 279 / 100;
#X obj 206 294 / 100;
#X obj 153 429 s \$0-readOffset;
#X obj 152 -109 r \$0-playFile;
#X obj 205 2 r \$0-speedRatio;
#X obj 335 -64 r \$0-stopEnd;
#X obj 302 93 delay;
#X obj 302 139 s \$0-initStart;
#X msg 302 116 0;
#X obj 302 -42 spigot;
#X obj 171 -45 s \$0-initStart;
#X msg 171 -68 1;
#X obj 206 350 * 1;
#X obj 163 350 * 1;
#X msg 153 92 0 \, \$1 \$2;
#X msg 515 68 \; \$1-grainSizeMean_p 80 \; \$1-grainSizeDev_p 10 \;
\$1-readOffsetMean_p 50 \; \$1-readOffsetDev_p 5 \; \$1-silenceMean_p
5 \; \$1-silenceDev_p 5 \; \$1-speedMean_p 0 \; \$1-speedDev_p 0.01
\; \$1-volumeMean_p 90 \; \$1-volumeDev_p 10 \; \$1-panMean_p 0 \;
\$1-panDev_p 45 \; \$1-active_p 10 \; \$1-speedRatio_p 1 \; \$1-midiChannel
1;
#X obj 198 45 * 1;
#X obj 205 23 t b f;
#X obj 160 162 /;
#X obj 175 137 r \$0-sizeMs;
#X obj 160 184 * 100;
#X msg 161 206 set \$1;
#X obj 161 228 s \$0-readOffsetMean_p;
#X obj 152 -89 t b b b;
#X connect 0 0 32 0;
#X connect 0 0 55 0;
#X connect 1 0 6 0;
#X connect 2 0 1 0;
#X connect 2 1 1 1;
#X connect 3 0 4 0;
#X connect 4 0 51 0;
#X connect 5 0 3 1;
#X connect 5 0 53 0;
#X connect 7 0 1 0;
#X connect 8 0 52 0;
#X connect 9 0 8 0;
#X connect 10 0 2 0;
#X connect 11 0 9 0;
#X connect 12 0 14 0;
#X connect 13 0 12 0;
#X connect 13 1 12 1;
#X connect 15 0 13 0;
#X connect 16 0 12 0;
#X connect 17 0 21 0;
#X connect 18 0 17 0;
#X connect 18 1 17 1;
#X connect 19 0 17 0;
#X connect 20 0 18 0;
#X connect 22 0 26 0;
#X connect 23 0 22 0;
#X connect 23 1 22 1;
#X connect 24 0 22 0;
#X connect 25 0 23 0;
#X connect 27 0 31 0;
#X connect 28 0 27 0;
#X connect 28 1 27 1;
#X connect 29 0 27 0;
#X connect 30 0 28 0;
#X connect 32 0 39 0;
#X connect 33 0 32 0;
#X connect 33 1 32 1;
#X connect 34 0 37 0;
#X connect 35 0 38 0;
#X connect 36 0 49 1;
#X connect 36 0 50 1;
#X connect 37 0 50 0;
#X connect 38 0 49 0;
#X connect 40 0 60 0;
#X connect 41 0 54 0;
#X connect 42 0 46 1;
#X connect 43 0 45 0;
#X connect 45 0 44 0;
#X connect 46 0 43 0;
#X connect 48 0 47 0;
#X connect 49 0 33 0;
#X connect 50 0 32 0;
#X connect 51 0 0 0;
#X connect 53 0 4 1;
#X connect 53 0 43 1;
#X connect 54 0 53 0;
#X connect 54 1 53 1;
#X connect 55 0 57 0;
#X connect 56 0 55 1;
#X connect 57 0 58 0;
#X connect 58 0 59 0;
#X connect 60 0 3 0;
#X connect 60 1 48 0;
#X connect 60 2 46 0;
#X restore -173 289 pd mapping;
#X obj 84 -32 openpanel;
#X obj 84 -10 symbol;
#X obj 84 105 soundfiler;
#X obj 84 171 /;
#X obj 99 150 samplerate~;
#X obj 84 213 * 1000;
#X obj 84 -54 getdir;
#X obj 84 -76 r \$0-loadFile;
#X text -146 -33 <-- number of grains per default;
#X obj 99 127 r \$0-loadbang1;
#X obj -174 114 pipe 100;
#X msg -174 54 \$2 \; \$2-initStart 0 \; pd dsp 0 \; \$2-maxGrains
\$1;
#X obj 111 258 s \$0-sizeMs;
#X obj 84 236 t b f;
#X obj 84 302 s \$0-soundfile;
#X msg 84 280 normalize;
#X obj 129 43 symbol \$0-soundfile;
#X obj 84 12 t s b;
#X obj 84 64 pack s s;
#X msg 84 84 read -resize \$1 \$2;
#X obj 90 192 s \$0-sizeSecs;
#X obj 111 171 s \$0-SR;
#X obj -71 334 dac~;
#X obj -71 291 catch~ \$0-out1;
#X obj -50 311 catch~ \$0-out2;
#X obj -164 -10 s \$0-pre_maxGrains_p;
#X msg -174 206 \; \$1-loadbang2 bang;
#X msg -174 136 \$1 \; pd dsp 1 \; \$1-loadbang1 bang;
#X obj -174 184 pipe 10;
#N canvas 12 210 1251 332 midi 0;
#X msg 115 132 9;
#X obj 18 63 s pd-fileGrainder.pd;
#X obj 20 268 s \$0-grainSizeMean_p;
#X obj 20 88 r \$0-grainSizeMean_l;
#X obj 28 110 s \$0-savePatch;
#X obj 18 20 r \$0-savePatch;
#X msg 18 41 menusave;
#X msg 245 132 2;
#X obj 158 110 s \$0-savePatch;
#X obj 150 88 r \$0-grainSizeDev_l;
#X obj 150 268 s \$0-grainSizeDev_p;
#X obj 20 154 / 127;
#X obj 20 226 int;
#X obj 20 247 + 1;
#X obj 20 206 * 499;
#X obj 20 184 *;
#X obj 150 154 / 127;
#X obj 150 226 int;
#X obj 150 184 *;
#X msg 385 132 10;
#X obj 298 110 s \$0-savePatch;
#X msg 525 132 12;
#X obj 438 110 s \$0-savePatch;
#X obj 290 154 / 127;
#X obj 290 226 int;
#X obj 430 154 / 127;
#X obj 430 184 *;
#X obj 290 88 r \$0-readOffsetMean_l;
#X obj 430 88 r \$0-readOffsetDev_l;
#X obj 290 268 s \$0-readOffsetMean_p;
#X obj 430 268 s \$0-readOffsetDev_p;
#X obj 290 206 * 100;
#X obj 430 206 * 100;
#X msg 675 132 12;
#X obj 588 110 s \$0-savePatch;
#X msg 805 132 11;
#X obj 718 110 s \$0-savePatch;
#X obj 580 154 / 127;
#X obj 580 226 int;
#X obj 580 184 *;
#X obj 710 154 / 127;
#X obj 580 88 r \$0-silenceMean_l;
#X obj 710 88 r \$0-silenceDev_l;
#X obj 710 268 s \$0-silenceDev_p;
#X obj 580 268 s \$0-silenceMean_p;
#X obj 580 206 * 500;
#X obj 150 206 * 500;
#X msg 935 132 7;
#X obj 848 110 s \$0-savePatch;
#X msg 1065 132 15;
#X obj 978 110 s \$0-savePatch;
#X obj 840 154 / 127;
#X obj 970 154 / 127;
#X obj 840 88 r \$0-speedMean_l;
#X obj 970 88 r \$0-speedDev_l;
#X obj 970 268 s \$0-speedDev_p;
#X obj 840 268 s \$0-speedMean_p;
#X obj 840 184 * 4;
#X obj 840 206 - 2;
#X obj 710 226 int;
#X obj 710 184 *;
#X obj 710 206 * 500;
#X msg 1185 132 9;
#X obj 1098 110 s \$0-savePatch;
#X msg 1315 132 10;
#X obj 1228 110 s \$0-savePatch;
#X obj 1090 154 / 127;
#X obj 1220 154 / 127;
#X obj 1090 88 r \$0-volumeMean_l;
#X obj 1220 88 r \$0-volumeDev_l;
#X obj 1090 268 s \$0-volumeMean_p;
#X obj 1220 268 s \$0-volumeDev_p;
#X obj 1090 214 * 100;
#X obj 1090 236 int;
#X obj 1220 214 * 100;
#X obj 1220 236 int;
#X msg 1445 132 11;
#X obj 1358 110 s \$0-savePatch;
#X msg 1575 132 12;
#X obj 1488 110 s \$0-savePatch;
#X obj 1350 154 / 127;
#X obj 1480 154 / 127;
#X obj 1350 236 int;
#X obj 1090 188 sqrt;
#X obj 1350 184 * 90;
#X obj 1350 207 - 45;
#X obj 1480 236 int;
#X obj 1480 184 * 45;
#X obj 1350 88 r \$0-panMean_l;
#X obj 1480 88 r \$0-panDev_l;
#X obj 1350 268 s \$0-panMean_p;
#X obj 1480 268 s \$0-panDev_p;
#X msg 1705 132 8;
#X obj 1618 110 s \$0-savePatch;
#X obj 1610 154 / 127;
#X obj 1610 236 int;
#X obj 1610 88 r \$0-active_l;
#X obj 1610 211 * 350;
#X obj 1637 189 r \$0-pre_maxGrains;
#X obj 1610 268 s \$0-active_p;
#X obj 970 183 * 3;
#X obj 20 132 a.midilearn \$0;
#X obj 150 132 a.midilearn \$0;
#X obj 290 132 a.midilearn \$0;
#X obj 430 132 a.midilearn \$0;
#X obj 580 132 a.midilearn \$0;
#X obj 710 132 a.midilearn \$0;
#X obj 840 132 a.midilearn \$0;
#X obj 970 132 a.midilearn \$0;
#X obj 1090 132 a.midilearn \$0;
#X obj 1220 132 a.midilearn \$0;
#X obj 1350 132 a.midilearn \$0;
#X obj 1480 132 a.midilearn \$0;
#X obj 1610 132 a.midilearn \$0;
#X connect 0 0 101 1;
#X connect 3 0 4 0;
#X connect 3 0 101 0;
#X connect 5 0 6 0;
#X connect 6 0 1 0;
#X connect 7 0 102 1;
#X connect 9 0 8 0;
#X connect 9 0 102 0;
#X connect 11 0 15 1;
#X connect 11 0 15 0;
#X connect 12 0 13 0;
#X connect 13 0 2 0;
#X connect 14 0 12 0;
#X connect 15 0 14 0;
#X connect 16 0 18 1;
#X connect 16 0 18 0;
#X connect 17 0 10 0;
#X connect 18 0 46 0;
#X connect 19 0 103 1;
#X connect 21 0 104 1;
#X connect 23 0 31 0;
#X connect 24 0 29 0;
#X connect 25 0 26 1;
#X connect 25 0 26 0;
#X connect 26 0 32 0;
#X connect 27 0 20 0;
#X connect 27 0 103 0;
#X connect 28 0 22 0;
#X connect 28 0 104 0;
#X connect 31 0 24 0;
#X connect 32 0 30 0;
#X connect 33 0 105 1;
#X connect 35 0 106 1;
#X connect 37 0 39 1;
#X connect 37 0 39 0;
#X connect 38 0 44 0;
#X connect 39 0 45 0;
#X connect 40 0 60 1;
#X connect 40 0 60 0;
#X connect 41 0 34 0;
#X connect 41 0 105 0;
#X connect 42 0 36 0;
#X connect 42 0 106 0;
#X connect 45 0 38 0;
#X connect 46 0 17 0;
#X connect 47 0 107 1;
#X connect 49 0 108 1;
#X connect 51 0 57 0;
#X connect 52 0 100 0;
#X connect 53 0 48 0;
#X connect 53 0 107 0;
#X connect 54 0 50 0;
#X connect 54 0 108 0;
#X connect 57 0 58 0;
#X connect 58 0 56 0;
#X connect 59 0 43 0;
#X connect 60 0 61 0;
#X connect 61 0 59 0;
#X connect 62 0 109 1;
#X connect 64 0 110 1;
#X connect 66 0 83 0;
#X connect 67 0 74 0;
#X connect 68 0 63 0;
#X connect 68 0 109 0;
#X connect 69 0 65 0;
#X connect 69 0 110 0;
#X connect 72 0 73 0;
#X connect 73 0 70 0;
#X connect 74 0 75 0;
#X connect 75 0 71 0;
#X connect 76 0 111 1;
#X connect 78 0 112 1;
#X connect 80 0 84 0;
#X connect 81 0 87 0;
#X connect 82 0 90 0;
#X connect 83 0 72 0;
#X connect 84 0 85 0;
#X connect 85 0 82 0;
#X connect 86 0 91 0;
#X connect 87 0 86 0;
#X connect 88 0 77 0;
#X connect 88 0 111 0;
#X connect 89 0 79 0;
#X connect 89 0 112 0;
#X connect 92 0 113 1;
#X connect 94 0 97 0;
#X connect 95 0 99 0;
#X connect 96 0 93 0;
#X connect 96 0 113 0;
#X connect 97 0 95 0;
#X connect 98 0 97 1;
#X connect 100 0 55 0;
#X connect 101 0 11 0;
#X connect 101 1 0 0;
#X connect 102 0 16 0;
#X connect 102 1 7 0;
#X connect 103 0 23 0;
#X connect 103 1 19 0;
#X connect 104 0 25 0;
#X connect 104 1 21 0;
#X connect 105 0 37 0;
#X connect 105 1 33 0;
#X connect 106 0 40 0;
#X connect 106 1 35 0;
#X connect 107 0 51 0;
#X connect 107 1 47 0;
#X connect 108 0 52 0;
#X connect 108 1 49 0;
#X connect 109 0 66 0;
#X connect 109 1 62 0;
#X connect 110 0 67 0;
#X connect 110 1 64 0;
#X connect 111 0 80 0;
#X connect 111 1 76 0;
#X connect 112 0 81 0;
#X connect 112 1 78 0;
#X connect 113 0 94 0;
#X connect 113 1 92 0;
#X restore -173 310 pd midi;
#X msg -174 -32 12;
#X connect 0 0 36 0;
#X connect 2 0 3 0;
#X connect 3 0 17 0;
#X connect 6 0 7 0;
#X connect 7 0 23 0;
#X connect 8 0 9 0;
#X connect 9 0 11 0;
#X connect 9 0 26 0;
#X connect 10 0 9 1;
#X connect 10 0 27 0;
#X connect 11 0 19 0;
#X connect 12 0 6 0;
#X connect 13 0 12 0;
#X connect 15 0 10 0;
#X connect 16 0 33 0;
#X connect 17 0 16 0;
#X connect 19 0 21 0;
#X connect 19 1 18 0;
#X connect 21 0 20 0;
#X connect 22 0 24 1;
#X connect 23 0 24 0;
#X connect 23 1 22 0;
#X connect 24 0 25 0;
#X connect 25 0 8 0;
#X connect 29 0 28 0;
#X connect 30 0 28 1;
#X connect 33 0 34 0;
#X connect 34 0 32 0;
#X connect 36 0 3 0;
#X connect 36 0 31 0;
#X restore -172 -82 pd patch;
#X text -134 -27 load a soundfile (wav or aiff);
#X obj 451 270 nbx 5 14 -1e+37 1e+37 0 0 empty \$0-sizeSecs seconds
60 8 0 10 -262144 -1 -1 0 256;
#X floatatom -170 -55 5 0 0 0 - #0-pre_maxGrains_p #0-pre_maxGrains
;
#X text -130 -55 maximum number of grains (can take a few seconds)
;
#X floatatom -158 70 5 1 1000 0 - #0-grainSizeMean_p #0-grainSizeMean
;
#X floatatom -108 70 0 0 0 0 - #0-grainSizeDev_p #0-grainSizeDev;
#X text -158 84 mean;
#X text -108 85 dev;
#X floatatom 72 70 5 0 0 0 - #0-silenceMean_p #0-silenceMean;
#X floatatom 122 70 5 0 1000 0 - #0-silenceDev_p #0-silenceDev;
#X text 72 84 mean;
#X text 122 85 dev;
#X text -166 268 angelfaraldo@gmail.com \, 2012;
#X floatatom 192 70 5 -2 2 0 - #0-speedMean_p #0-speedMean;
#X floatatom 242 70 5 0 1 0 - #0-speedDev_p #0-speedDev;
#X text 192 84 mean;
#X text 242 85 dev;
#X floatatom 532 69 5 0 100 0 - #0-active_p #0-active;
#X text 530 49 active voices;
#X floatatom 312 70 5 0 100 0 - #0-volumeMean_p #0-volumeMean;
#X floatatom 362 70 5 0 100 0 - #0-volumeDev_p #0-volumeDev;
#X text 312 84 mean;
#X text 362 85 dev;
#X floatatom 422 70 5 -45 45 0 - #0-panMean_p #0-panMean;
#X floatatom 472 70 5 0 45 0 - #0-panDev_p #0-panDev;
#X text 422 84 mean;
#X text 472 85 dev;
#X floatatom -48 70 5 0 100 0 - #0-readOffsetMean_p #0-readOffsetMean
;
#X floatatom 2 70 5 0 100 0 - #0-readOffsetDev_p #0-readOffsetDev;
#X text -48 84 mean;
#X text 2 85 dev;
#X obj 197 3 bng 30 250 50 0 \$0-playFile empty empty 17 7 0 10 -262144
-1 -1;
#X text -160 49 grain size (ms);
#X text -50 49 reading point (%);
#X text 70 49 silence (ms);
#X text 190 49 speed (-2/2);
#X text 310 49 volume (dB);
#X text 420 49 pan (-45/45);
#X text 234 10 play the soundfile from the beginning to the end;
#X floatatom 197 -52 0 0 100 0 - #0-speedRatio_p #0-speedRatio;
#X text 235 -52 speed ratio for reading the file;
#X obj 197 -32 tgl 30 0 \$0-stopEnd nothing empty 17 7 0 10 -262144
-1 -1 0 1;
#X text 232 -26 stop at the end of the file?;
#X floatatom 547 -76 2 0 0 0 - ---- #0-midiChannel;
#X text 462 -74 MIDI channel:;
#X obj -169 70 bng 8 250 50 0 \$0-grainSizeMean_l empty empty 17 7
0 10 -262144 -1 -1;
#X obj -119 70 bng 8 250 50 0 \$0-grainSizeDev_l empty empty 17 7 0
10 -262144 -1 -1;
#X obj -59 70 bng 8 250 50 0 \$0-readOffsetMean_l empty empty 17 7
0 10 -262144 -1 -1;
#X obj -9 70 bng 8 250 50 0 \$0-readOffsetDev_l empty empty 17 7 0
10 -262144 -1 -1;
#X obj 61 70 bng 8 250 50 0 \$0-silenceMean_l empty empty 17 7 0 10
-262144 -1 -1;
#X obj 111 70 bng 8 250 50 0 \$0-silenceDev_l empty empty 17 7 0 10
-262144 -1 -1;
#X obj 181 70 bng 8 250 50 0 \$0-speedMean_l empty empty 17 7 0 10
-262144 -1 -1;
#X obj 231 70 bng 8 250 50 0 \$0-speedDev_l empty empty 17 7 0 10 -262144
-1 -1;
#X obj 301 70 bng 8 250 50 0 \$0-volumeMean_l empty empty 17 7 0 10
-262144 -1 -1;
#X obj 351 70 bng 8 250 50 0 \$0-volumeDev_l empty empty 17 7 0 10
-262144 -1 -1;
#X obj 411 70 bng 8 250 50 0 \$0-panMean_l empty empty 17 7 0 10 -262144
-1 -1;
#X obj 461 70 bng 8 250 50 0 \$0-panDev_l empty empty 17 7 0 10 -262144
-1 -1;
#X obj 521 70 bng 8 250 50 0 \$0-active_l empty empty 17 7 0 10 -262144
-1 -1;
#X text -134 6 start processing the soundfile continuously;
