#N canvas 495 125 801 987 10;
#X msg 98 446 0 \, 1 \$1;
#X obj 98 474 vline~;
#X obj 98 652 *~, f 23;
#X obj 707 744 - 1;
#X obj 707 770 abs;
#X obj 563 799 sqrt;
#X obj 70 135 sel 0 1;
#X msg 19 175 stop;
#X obj 345 376 mtof;
#X obj 345 401 / 8.1758;
#X obj 165 518 *, f 10;
#X obj 707 799 sqrt;
#X obj 338 483 -, f 7;
#X msg 338 457 1;
#X obj 345 427 t b f;
#X obj 98 258 t b b b b b b, f 107;
#X obj 70 12 r \$1-voices;
#X obj 98 617 vd~ \$1-deline;
#X obj 70 42 >= \$2;
#X obj 592 374 dbtorms;
#X obj 19 270 delay;
#X obj 667 831 *~ 0.707;
#X obj 518 831 *~ 0.707;
#X obj 667 860 throw~ \$1-LeftOut;
#X obj 518 860 throw~ \$1-RightOut;
#X obj 221 369 * 0.01;
#X obj 98 556 *~;
#X obj 468 350 scaler \$1 delread;
#X obj 70 72 change;
#X obj 98 585 +~ 0, f 15;
#X obj 209 72 pipe 1000;
#X obj 209 108 switch~;
#X obj 209 42 moses 1;
#X obj 70 101 t f f;
#X obj 98 325 crandtex 2 0.01;
#X obj 716 325 randt 0.01;
#X obj 518 763 *~ 0;
#X obj 84 175 crandtex 2 0.01;
#X obj 221 325 crandtex 2 0.01;
#X obj 345 325 crandtex 2 0.01;
#X obj 468 325 crandtex 2 0.01;
#X obj 592 325 crandtex 2 0.01;
#X obj 345 347 scaler \$1 pitch;
#X obj 592 350 scaler \$1 amp;
#X obj 84 200 scaler \$1 iot;
#X obj 98 347 scaler \$1 grainDur;
#X obj 221 347 scaler \$1 env;
#X obj 216 617 trienv~, f 18;
#X obj 98 371 pack;
#X obj 98 396 min;
#X obj 84 225 t f b f;
#X obj 98 419 t f f, f 14;
#X obj 748 127 r \$1-init.rand.curve;
#X connect 0 0 1 0;
#X connect 1 0 26 0;
#X connect 1 0 47 0;
#X connect 2 0 36 0;
#X connect 3 0 4 0;
#X connect 4 0 11 0;
#X connect 5 0 22 1;
#X connect 6 0 7 0;
#X connect 6 1 37 0;
#X connect 7 0 20 0;
#X connect 8 0 9 0;
#X connect 9 0 14 0;
#X connect 10 0 26 1 32.................G....j7++++A....I++++uA....;
#X connect 11 0 21 1;
#X connect 12 0 10 1 32.................E....n2+++eA....58++++.....;
#X connect 13 0 12 0;
#X connect 14 0 13 0;
#X connect 14 1 12 1;
#X connect 15 0 34 0;
#X connect 15 1 38 0;
#X connect 15 2 39 0;
#X connect 15 3 40 0;
#X connect 15 4 41 0;
#X connect 15 5 35 0;
#X connect 16 0 18 0;
#X connect 17 0 2 0;
#X connect 18 0 28 0;
#X connect 19 0 36 1;
#X connect 20 0 37 0;
#X connect 21 0 23 0;
#X connect 22 0 24 0;
#X connect 25 0 47 1;
#X connect 26 0 29 0;
#X connect 27 0 29 1 48.................CC...r4++++v....a9+++KL....z9+++BC....s++++0....;
#X connect 28 0 33 0;
#X connect 29 0 17 0;
#X connect 30 0 31 0;
#X connect 32 0 30 0;
#X connect 32 1 31 0;
#X connect 33 0 6 0;
#X connect 33 1 32 0;
#X connect 34 0 45 0;
#X connect 35 0 3 0;
#X connect 35 0 5 0;
#X connect 36 0 22 0;
#X connect 36 0 21 0 48.................H....LF....B....iA...b....Pk....G....TI....L....;
#X connect 37 0 44 0;
#X connect 38 0 46 0;
#X connect 39 0 42 0;
#X connect 40 0 27 0;
#X connect 41 0 43 0;
#X connect 42 0 8 0;
#X connect 43 0 19 0;
#X connect 44 0 50 0;
#X connect 45 0 48 0;
#X connect 46 0 25 0;
#X connect 47 0 2 1;
#X connect 48 0 49 0;
#X connect 49 0 51 0;
#X connect 50 0 20 0;
#X connect 50 1 15 0;
#X connect 50 2 48 1;
#X connect 51 0 0 0;
#X connect 51 1 10 0;
#X connect 52 0 39 1 32.................bB...zg+++Om....c3+++KK....;
#X connect 52 0 40 1 32.................bB...fo+++Om....X5+++KK....;
#X connect 52 0 41 1 32.................bB...Pw+++Om....T7+++KK....;
#X connect 52 0 38 1 32.................bB...DZ+++Om....g1+++KK....;
#X connect 52 0 34 1 32.................bB...XR+++Om....lz+++KK....;
#X connect 52 0 37 1 32.................O.....Y++++C....P1+++yA....;
