#N canvas 496 25 826 767 10;
#X msg 128 447 0 \, 1 \$1;
#X obj 128 468 vline~;
#X obj 173 598 *~;
#X obj 146 96 sel 0 1;
#X msg 128 118 stop;
#X obj 229 388 mtof;
#X obj 229 408 / 8.1758;
#X obj 214 492 *;
#X obj 229 471 -;
#X msg 229 450 1;
#X obj 229 429 t b f;
#X obj 128 249 t b b b b b b;
#X obj 4 555 *~;
#X obj 4 575 *~;
#X obj 199 5 r \$1-voices;
#X obj 188 576 vd~ \$1-deline;
#X obj 199 27 >= \$2;
#X obj 499 377 dbtorms;
#X obj 542 140 r \$1-randCurve;
#X obj 128 161 delay;
#X obj 140 139 r \$0-newEvent;
#X obj 165 228 s \$0-newEvent;
#X text 301 48 make sure that dur is always shorter than iot;
#X obj 15 399 sig~;
#X obj 15 377 * 0.01;
#X obj 158 531 *~;
#X obj 374 356 scaler \$1 delread;
#X obj 199 50 change;
#X obj 188 555 +~ 0;
#X obj 205 115 pipe 1000;
#X obj 265 148 switch~;
#X obj 226 90 moses 1;
#X obj 199 70 t f f;
#X obj 128 334 crandtex 2 0.01;
#X obj 348 625 *~ 0;
#X obj 165 185 crandtex 2 0.01;
#X obj 15 333 crandtex 2 0.01;
#X obj 259 334 crandtex 2 0.01;
#X obj 374 334 crandtex 2 0.01;
#X obj 499 333 crandtex 2 0.01;
#X obj 259 356 scaler \$1 pitch;
#X obj 499 355 scaler \$1 amp;
#X obj 165 207 scaler \$1 iot;
#X obj 128 356 scaler \$1 grainDur;
#X obj 15 355 scaler \$1 env;
#X obj 4 531 cyclone/trapezoid~ 0.5 0;
#X obj 614 331 random 8;
#X text 674 333 number of speakers;
#X obj 348 662 throw~ \$1-Out-1;
#X msg 614 546 set \$1;
#X obj 614 382 makefilename \$1-Out-%i;
#X obj 614 358 + 1;
#X connect 0 0 1 0;
#X connect 1 0 25 0;
#X connect 1 0 45 0;
#X connect 2 0 34 0;
#X connect 3 0 4 0;
#X connect 3 1 35 0;
#X connect 4 0 19 0;
#X connect 5 0 6 0;
#X connect 6 0 10 0;
#X connect 7 0 25 1;
#X connect 8 0 7 1;
#X connect 9 0 8 0;
#X connect 10 0 9 0;
#X connect 10 1 8 1;
#X connect 11 0 33 0;
#X connect 11 1 36 0;
#X connect 11 2 37 0;
#X connect 11 3 38 0;
#X connect 11 4 39 0;
#X connect 11 5 46 0;
#X connect 12 0 13 1;
#X connect 12 0 13 0;
#X connect 13 0 2 0;
#X connect 14 0 16 0;
#X connect 15 0 2 1;
#X connect 16 0 27 0;
#X connect 17 0 34 1;
#X connect 18 0 33 1;
#X connect 18 0 35 1;
#X connect 18 0 36 1;
#X connect 18 0 37 1;
#X connect 18 0 38 1;
#X connect 18 0 39 1;
#X connect 19 0 11 0;
#X connect 19 0 35 0;
#X connect 20 0 19 0;
#X connect 23 0 45 1;
#X connect 24 0 23 0;
#X connect 25 0 28 0;
#X connect 26 0 28 1;
#X connect 27 0 32 0;
#X connect 28 0 15 0;
#X connect 29 0 30 0;
#X connect 31 0 29 0;
#X connect 31 1 30 0;
#X connect 32 0 3 0;
#X connect 32 1 31 0;
#X connect 33 0 43 0;
#X connect 34 0 48 0;
#X connect 35 0 42 0;
#X connect 36 0 44 0;
#X connect 37 0 40 0;
#X connect 38 0 26 0;
#X connect 39 0 41 0;
#X connect 40 0 5 0;
#X connect 41 0 17 0;
#X connect 42 0 21 0;
#X connect 43 0 0 0;
#X connect 43 0 7 0;
#X connect 44 0 24 0;
#X connect 45 0 12 1;
#X connect 45 0 12 0;
#X connect 46 0 51 0;
#X connect 49 0 48 0;
#X connect 50 0 49 0;
#X connect 51 0 50 0;
