#N canvas 333 46 625 617 10;
#X text 18 34 Random number generator in range 0-1.;
#X text 18 54 <argument/2nd inlet>: random step-size. Default = 0.001;
#X text 18 14 TRIANGULAR DISTRIBUTION;
#X obj 35 384 +;
#X obj 139 605 * 0.5;
#X obj 222 177 \$1;
#X obj 145 344 random 1000;
#X obj 267 136 loadbang;
#X obj 222 204 sel 0;
#X obj 162 302 + 1;
#X obj 208 690 outlet;
#X msg 162 260 1 \$1;
#X obj 162 281 /;
#X obj 208 664 * 0.001;
#X obj 222 136 inlet;
#X obj 240 234 moses 1;
#X obj 277 287 print ERROR;
#X obj 35 344 random 1000;
#X obj 35 144 inlet;
#X obj 35 295 t b b;
#X msg 277 261 a.randt step-size must be in range (0 < value <= 0.5);
#X text 18 74 Taken from Dodge and Jerse: "Computer Music \, Synthesis \, Composition and Performance.";
#X text 18 114 angelfaraldo@gmail.com \, 2014;
#X obj 74 430 t f f;
#X obj 101 458 mod 2;
#X obj 101 484 - 1;
#X obj 101 510 abs;
#X obj 74 541 *;
#X obj 74 605 s \$0-l;
#X obj 74 567 select 0;
#X obj 53 266 r \$0-l;
#X obj 35 409 moses 1;
#X connect 3 0 31 0;
#X connect 4 0 13 0 32.................X....HD....F....BA...zB....;
#X connect 5 0 8 0;
#X connect 6 0 3 1 32.................J....34+++uB....d9+++SA....;
#X connect 7 0 5 0;
#X connect 8 1 15 0;
#X connect 9 0 6 1;
#X connect 9 0 17 1;
#X connect 11 0 12 0;
#X connect 12 0 9 0;
#X connect 13 0 10 0;
#X connect 14 0 5 0;
#X connect 15 0 13 1;
#X connect 15 0 11 0;
#X connect 15 1 20 0;
#X connect 17 0 3 0;
#X connect 18 0 19 0;
#X connect 19 0 17 0;
#X connect 19 1 6 0;
#X connect 20 0 16 0;
#X connect 23 0 27 0;
#X connect 23 1 24 0;
#X connect 24 0 25 0;
#X connect 25 0 26 0;
#X connect 26 0 27 1;
#X connect 27 0 29 0;
#X connect 29 0 28 0;
#X connect 29 1 4 0;
#X connect 30 0 19 0;
#X connect 31 0 13 0 64.................RC...TE...fz....UA...HM...fZ....RC...nF...Pz....pB...DM...fp....wC....;
#X connect 31 1 23 0;
