#N canvas 569 136 355 501 10;
#X obj 131 41 t b b;
#X obj 29 21 inlet;
#X obj 84 183 r \$1-\$2.m;
#X obj 69 21 r \$1-\$2.d;
#X obj 54 183 *;
#X obj 69 206 +;
#X obj 296 467 outlet;
#X obj 83 116 -;
#X obj 201 83 value \$1-\$2.min;
#X obj 96 82 value \$1-\$2.max;
#X obj 69 137 *;
#X obj 69 43 * 0.01;
#X obj 195 415 *;
#X obj 85 382 / 3.14159;
#X obj 85 359 + 1.5708;
#X obj 85 336 expr asin(sin($f1));
#X obj 85 311 - 1.5708;
#X obj 85 289 * 3.14159;
#X obj 85 267 /;
#X obj 296 444 + 0;
#X obj 85 238 -;
#X obj 210 234 -;
#X obj 131 20 r \$1-apply;
#X connect 0 0 9 0;
#X connect 0 1 8 0;
#X connect 1 0 4 0;
#X connect 2 0 5 1;
#X connect 3 0 11 0;
#X connect 4 0 5 0;
#X connect 5 0 20 0;
#X connect 7 0 10 1;
#X connect 8 0 7 1;
#X connect 8 0 19 1;
#X connect 8 0 21 1;
#X connect 8 0 20 1;
#X connect 9 0 7 0;
#X connect 9 0 21 0;
#X connect 10 0 4 1;
#X connect 11 0 10 0;
#X connect 12 0 19 0;
#X connect 13 0 12 0;
#X connect 14 0 13 0;
#X connect 15 0 14 0;
#X connect 16 0 15 0;
#X connect 17 0 16 0;
#X connect 18 0 17 0;
#X connect 19 0 6 0;
#X connect 20 0 18 0;
#X connect 21 0 12 1;
#X connect 21 0 18 1;
#X connect 22 0 0 0;
