#N canvas 569 136 355 501 10;
#X obj 146 49 t b b, f 6;
#X obj 18 23 inlet;
#X obj 83 190 r \$1-\$2.m;
#X obj 69 23 r \$1-\$2.d, f 11;
#X obj 43 190 *;
#X obj 43 227 +, f 10;
#X obj 258 523 outlet;
#X obj 96 129 -, f 6;
#X obj 224 89 value \$1-\$2.min, f 18;
#X obj 96 89 value \$1-\$2.max, f 18;
#X obj 69 158 *, f 6;
#X obj 69 50 * 0.01, f 8;
#X obj 157 463 *;
#X obj 43 432 / 3.14159;
#X obj 43 405 + 1.5708;
#X obj 43 378 expr asin(sin($f1));
#X obj 43 349 - 1.5708;
#X obj 43 323 * 3.14159;
#X obj 43 297 /;
#X obj 258 492 + 0;
#X obj 43 264 -;
#X obj 172 278 -;
#X obj 146 23 r \$1-apply, f 12;
#X connect 0 0 9 0;
#X connect 0 1 8 0;
#X connect 1 0 4 0;
#X connect 2 0 5 1;
#X connect 3 0 11 0;
#X connect 4 0 5 0;
#X connect 5 0 20 0;
#X connect 7 0 10 1;
#X connect 8 0 7 1 32.................O....73++++C....O9+++SA....;
#X connect 8 0 20 1 32.................RB...b0+++uj....W8+++uI....;
#X connect 8 0 19 1 32.................Q....zB...PD....s....7W....;
#X connect 8 0 21 1 32.................RB...f8+++uj....X++++mJ....;
#X connect 9 0 7 0;
#X connect 9 0 21 0 32.................H....vD....B....LA...TI....;
#X connect 10 0 4 1;
#X connect 11 0 10 0;
#X connect 12 0 19 0;
#X connect 13 0 12 0;
#X connect 14 0 13 0;
#X connect 15 0 14 0;
#X connect 16 0 15 0;
#X connect 17 0 16 0;
#X connect 18 0 17 0;
#X connect 19 0 6 0;
#X connect 20 0 18 0;
#X connect 21 0 12 1;
#X connect 21 0 18 1;
#X connect 22 0 0 0;
