#N canvas 452 25 366 396 10;
#X obj 234 237 clip~ 0 1;
#X obj 255 173 /;
#X obj 246 58 t f f;
#X msg 255 149 1 \$1;
#X obj 234 209 *~ 1;
#X obj 45 101 sig~ 1;
#X obj 45 126 -~, f 11;
#X obj 45 264 *~, f 32;
#X msg 132 99 1 \$1;
#X obj 132 125 -;
#X msg 132 150 1 \$1;
#X obj 132 176 /;
#X obj 45 210 *~, f 15;
#X obj 45 237 clip~ 0 1;
#X obj 246 35 inlet;
#X obj 93 35 inlet~;
#X obj 45 291 outlet~;
#X connect 0 0 7 1;
#X connect 1 0 4 1;
#X connect 2 0 8 0;
#X connect 2 1 3 0;
#X connect 3 0 1 0;
#X connect 4 0 0 0;
#X connect 5 0 6 0;
#X connect 6 0 12 0;
#X connect 7 0 16 0;
#X connect 8 0 9 0;
#X connect 9 0 10 0;
#X connect 10 0 11 0;
#X connect 11 0 12 1;
#X connect 12 0 13 0;
#X connect 13 0 7 0;
#X connect 14 0 2 0;
#X connect 15 0 6 1;
#X connect 15 0 4 0 48.................S....fE...vD....XA...bH...Pi....GB...zH...fl....;
