#N canvas 596 124 366 396 10;
#X obj 234 248 clip~ 0 1;
#X obj 255 202 /;
#X obj 228 97 t f f;
#X msg 255 181 1 \$1;
#X obj 234 225 *~ 1;
#X obj 148 56 phasor~ 0.1;
#X obj 45 147 sig~ 1;
#X obj 45 168 -~, f 11;
#X obj 45 270 *~, f 32;
#X msg 132 141 1 \$1;
#X obj 132 162 -;
#X msg 132 182 1 \$1;
#X obj 132 205 /;
#X obj 45 226 *~, f 15;
#X obj 45 248 clip~ 0 1;
#X obj 45 316 cos~;
#X obj 45 293 *~ 0.25;
#X obj 228 56 - 1;
#X obj 228 77 abs;
#X obj 228 32 inlet;
#X obj 148 35 inlet~;
#X obj 45 336 outlet~;
#X connect 0 0 8 1;
#X connect 1 0 4 1;
#X connect 2 0 9 0;
#X connect 2 1 3 0;
#X connect 3 0 1 0;
#X connect 4 0 0 0;
#X connect 5 0 4 0;
#X connect 5 0 7 1;
#X connect 6 0 7 0;
#X connect 7 0 13 0;
#X connect 8 0 16 0;
#X connect 9 0 10 0;
#X connect 10 0 11 0;
#X connect 11 0 12 0;
#X connect 12 0 13 1;
#X connect 13 0 14 0;
#X connect 14 0 8 0;
#X connect 15 0 21 0;
#X connect 16 0 15 0;
#X connect 17 0 18 0;
#X connect 18 0 2 0;
#X connect 19 0 17 0;
#X connect 20 0 5 0;
